<?xml version="1.0" encoding="UTF-8"?>
<svg id="Ebene_2" data-name="Ebene 2" xmlns="http://www.w3.org/2000/svg" xmlns:xlink="http://www.w3.org/1999/xlink" viewBox="0 0 292.22 326.24">
  <defs>
    <style>
      .cls-1 {
        fill: #fff;
        opacity: .3;
      }

      .cls-2 {
        clip-path: url(#clippath);
      }

      .cls-3 {
        fill: none;
      }

      .cls-4 {
        fill: #0074c7;
      }
    </style>
    <clipPath id="clippath">
      <rect class="cls-3" width="292.22" height="326.24"/>
    </clipPath>
  </defs>
  <g id="Ebene_1-2" data-name="Ebene 1">
    <g class="cls-2">
      <rect class="cls-4" x="1.38" y=".86" width="292.22" height="326.24"/>
      <rect class="cls-3" width="292.22" height="326.24"/>
      <rect class="cls-4" width="292.22" height="326.24"/>
      <path class="cls-1" d="M217.01,74.22l32.87-26.86-41.07,10.63,8.2,16.23Zm-73.69-37.74L116.27,3.71l10.83,40.97,16.23-8.2Zm175.3,294.95s-24.92,2.12-29.88-17.5l-9.42-38.04c66.62-41.17,12.55-175.97,10.11-181.94l-4.16-10.18-125.54,31.08,1.07,10.94c.61,6.27,15.6,150.79,93.85,156.28l10.26,41.44c.65,5.84-.77,17.71-20.07,26.19l2.88,12.16,73.9-18.19-2.97-12.25Zm-121.87-153.48c-4.51-15.87-7.53-31.42-9.3-43.74l82.17-20.34c4.68,13.56,12.47,38.74,15.86,64.48l-88.73-.4ZM215.73,9.16l-30.38,29.66,15.21,9.95,15.17-39.61ZM167.12-6.91l-11.69,40.86,18.15,1.02-6.46-41.87ZM19.58,78.8c-2.45,5.97-56.52,140.77,10.11,181.94l-9.43,38.08c-4.99,19.57-29.87,17.46-29.87,17.46l-2.97,12.25,73.9,18.19,2.87-12.17c-19.32-8.49-20.72-20.39-20.06-26.22l10.25-41.41c78.23-5.49,93.23-150.01,93.84-156.28l1.07-10.94L23.74,68.63l-4.16,10.18Zm101.98,40.26c-1.75,12.31-4.77,27.87-9.27,43.73l-88.73,.4c3.39-25.74,11.16-50.91,15.82-64.48l82.17,20.34Zm-3.7-66.13l-39.73-14.97,29.78,30.18,9.95-15.21Z"/>
    </g>
  </g>
</svg>