<?xml version="1.0" encoding="UTF-8"?>
<svg id="Ebene_2" data-name="Ebene 2" xmlns="http://www.w3.org/2000/svg" xmlns:xlink="http://www.w3.org/1999/xlink" viewBox="0 0 426.9 220.41">
  <defs>
    <style>
      .cls-1 {
        fill: #fff;
      }

      .cls-2 {
        fill: #f90d8d;
      }

      .cls-3 {
        fill: #2e0071;
      }

      .cls-4 {
        fill: #7b57c4;
      }

      .cls-5 {
        fill: none;
      }

      .cls-6 {
        fill: url(#Unbenannter_Verlauf_10);
      }
    </style>
    <linearGradient id="Unbenannter_Verlauf_10" data-name="Unbenannter Verlauf 10" x1="0" y1="141.19" x2="426.9" y2="141.19" gradientUnits="userSpaceOnUse">
      <stop offset="0" stop-color="#7b57c4"/>
      <stop offset="1" stop-color="#7b57c4"/>
    </linearGradient>
  </defs>
  <g id="Ebene_2-2" data-name="Ebene 2">
    <g id="Ebene_1-2" data-name="Ebene 1-2">
      <g>
        <path class="cls-4" d="M322.54,150.05c-1.71-1.25-3.56-2.42-5.78-2.11-3.5,.48-5.43,5.79-5.19,7.48s-5.55-1.93-5.31-3.14,4.83-9.65,4.83-9.65c0,0,1.45-3.26-.72-4.22-2.17-.97-5.67-.24-5.67,1.93s.6,4.34,.6,4.34c0,0-3.38,6.51-3.38,7.24s.72,3.98,2.29,5.91c1.57,1.93,10.01,5.67,10.01,5.67,0,0,.6,4.7-.24,6.03s-11.7,6.39-12.55,5.19c-.84-1.21-1.69-3.38-3.14-3.5s-4.46,1.09-4.46,3.14,2.17,4.58,3.98,5.19c1.81,.6,16.89-2.65,17.25-1.81,.36,.84,.36,13.39,.36,13.39l19.18-.24s.97-11.1-.48-16.89-4.83-12.18-6.27-13.27c-1.45-1.09-3.38-2.29-3.38-2.29,.17-1.15,.2-2.35,.07-3.5-.05-.42-.1-.79-.28-1.17-.09-.18-.43-.46-.44-.65-.04-.63,.75-.43,1.35-.47,.05-.18,.17-.33,.33-.42,.04,.86,.11,1.73,.42,2.52,.31,.8,.91,1.52,1.73,1.78-.59-1.54-1.2-3.2-.79-4.79,.27,.96,.55,1.93,.82,2.89,.19,.66,.45,1.41,1.09,1.65,.21,.08,.44,.09,.66,.1,.64,.01,1.29-.04,1.92-.16-.5-.06-1-.13-1.46-.34s-.87-.58-1-1.06c-.07-.25-.05-.52-.04-.78,.05-.85,.14-1.72-.01-2.56-.16-.84-.61-1.68-1.38-2.05-.77-.38-1.85-.14-2.21,.64-.27-.48-.81-.79-1.36-.8-.55,0-1.09,.31-1.36,.79h0Z"/>
        <path class="cls-4" d="M281.94,150.1c-.06,.02-.11,.03-.17,.03-.52,.03-1.83-1.31-2.38-1.58-1.07-.51-2.26-.77-3.44-.61-3.5,.48-5.43,5.79-5.19,7.48s-5.55-1.93-5.31-3.14,4.83-9.65,4.83-9.65c0,0,1.45-3.26-.72-4.22-2.17-.97-5.67-.24-5.67,1.93s.6,4.34,.6,4.34c0,0-3.38,6.51-3.38,7.24s.72,3.98,2.29,5.91c1.57,1.93,10.01,5.67,10.01,5.67,0,0,.6,4.7-.24,6.03s-11.7,6.39-12.55,5.19c-.84-1.21-1.69-3.38-3.14-3.5s-4.46,1.09-4.46,3.14,2.17,4.58,3.98,5.19c1.81,.6,16.89-2.65,17.25-1.81,.36,.84,.36,13.39,.36,13.39l19.18-.24s.97-11.1-.48-16.89-4.83-12.18-6.27-13.27c-1.45-1.09-3.38-2.29-3.38-2.29,.1-.64,.34-5.42-.33-5.42,.31,.3,.8,.3,1.24,.27,.2-.4,.16-.88,.11-1.32,.73,.63,.99,1.69,1.76,2.28,.81,.62,1.93,.53,2.94,.42,.84-.09,1.85-.31,2.14-1.1-.83,.4-1.93,.11-2.46-.64-.28-.4-.4-.9-.63-1.34-.23-.44-.63-.86-1.12-.85,.65-.55,.91-1.48,.79-2.32-.13-.84-.6-1.61-1.19-2.23,.15,.85,.18,1.96-.6,2.34-.27,.13-.58,.14-.87,.21-.76,.19-1.37,.87-1.47,1.64-.35-.48-1.03-.68-1.58-.47-.15,.06-.3,.15-.46,.19h.01Z"/>
        <path class="cls-4" d="M241.28,150.61c-1.47-1.76-3.88-2.97-6.14-2.66-3.5,.48-5.43,5.79-5.19,7.48,.24,1.69-5.55-1.93-5.31-3.14s4.83-9.65,4.83-9.65c0,0,1.45-3.26-.72-4.22-2.17-.97-5.67-.24-5.67,1.93s.6,4.34,.6,4.34c0,0-3.38,6.51-3.38,7.24s.72,3.98,2.29,5.91c1.57,1.93,10.01,5.67,10.01,5.67,0,0,.6,4.7-.24,6.03-.84,1.33-11.7,6.39-12.55,5.19-.84-1.21-1.69-3.38-3.14-3.5s-4.46,1.09-4.46,3.14,2.17,4.58,3.98,5.19c1.81,.6,16.89-2.65,17.25-1.81,.36,.84,.36,13.39,.36,13.39l19.18-.24s.97-11.1-.48-16.89-4.83-12.18-6.27-13.27-3.37-2.29-3.38-2.29c-.06-.04,.13-1.32,.13-1.43,.05-1.12-.1-2.04,.21-3.12,.14,.7,.28,1.4,.42,2.1,.1,.5,.21,1.01,.48,1.44,.63,.98,1.96,1.24,3.12,1.1-.96-.21-1.74-1.07-1.88-2.04-.14-1.02,.35-2.16-.19-3.03,.47,.96,1.59,1.55,2.64,1.39-.67-.13-1.12-.76-1.41-1.39-.28-.63-.48-1.31-.96-1.8-.48-.49-1.38-.67-1.82-.14-.1,.12-.19,.29-.35,.32-.06-.27-.3-.49-.58-.53s-.57,.12-.69,.37c-.2-.37-.45-.72-.73-1.06l.04-.02Z"/>
        <path class="cls-4" d="M200.48,150.6s-2.65-3.14-6.15-2.65-5.43,5.79-5.19,7.48c.24,1.69-5.55-1.93-5.31-3.14s4.83-9.65,4.83-9.65c0,0,1.45-3.26-.72-4.22-2.17-.97-5.67-.24-5.67,1.93s.6,4.34,.6,4.34c0,0-3.38,6.51-3.38,7.24s.72,3.98,2.29,5.91c1.57,1.93,10.01,5.67,10.01,5.67,0,0,.6,4.7-.24,6.03-.84,1.33-11.7,6.39-12.55,5.19-.84-1.21-1.69-3.38-3.14-3.5s-4.46,1.09-4.46,3.14,2.17,4.58,3.98,5.19c1.81,.6,16.89-2.65,17.25-1.81,.36,.84,.36,13.39,.36,13.39l19.18-.24s.97-11.1-.48-16.89-4.83-12.18-6.27-13.27c-1.45-1.09-3.38-2.29-3.38-2.29,.2-1.28,.12-2.56,.13-3.85,.24,.26,.63,.37,.97,.26s.6-.42,.64-.77c.34,.46,.61,.96,.81,1.49,.13,.34,.23,.71,.49,.97,.19,.19,.44,.3,.69,.39,.62,.22,1.29,.33,1.95,.33-.56-.25-1.01-.72-1.24-1.29-.17-.44-.21-.92-.33-1.37-.12-.46-.36-.92-.78-1.12,.77-.28,1.62-.64,1.93-1.4,.25-.61,.07-1.32-.2-1.93-.02,.56-.55,.98-1.09,1.12s-1.11,.08-1.67,.14-1.15,.29-1.39,.8c-.21-.18-.44-.35-.71-.39s-.58,.09-.66,.35c-.36-.53-.68-1.07-1.1-1.56v-.02Z"/>
        <path class="cls-4" d="M153.8,172c-.36-.45-15.59-3.65-15.59-3.65,0,0-2.85,2.94-3.74,5.43-.41,1.16-.65,3.95-.79,6.61-3.9-1.57-9.64-3.53-9.64-4.68,0-1.66,1.43-7.85,1.43-7.85,0,0,10.81-5.13,11.39-5.32,.36-.12,1.33,.13,2.34,.02l.59,1.18c.23,.46,.79,.65,1.25,.41,.46-.23,.65-.79,.41-1.25l-.55-1.1s.03-.03,.05-.04c1.36-1.36,.29-4.28-.68-4.96-.4-.28-1.15-.28-1.93-.14l-.8-1.81c.3-.14,.53-.26,.66-.35,1.07-.78,.42-9.96,.42-9.96,0,0,.67-.76,1.23-1.7l.22,.11c.46,.22,1.02,.03,1.24-.43s.03-1.02-.43-1.24l-.32-.15c.05-.27,.06-.53,0-.76-.39-1.56-3.6-2.53-5.16-1.75,0,0,0,0-.02,.01l-.48-.23-6.92-3.76c-.46-.55-.94-.99-1.44-1.28-.68-.4-1.46-.63-2.27-.73l-.51-.28c-.8-.44-1.72-.32-2,.26l-.05,.11c-.13,.02-.26,.05-.39,.08-.86,.19-1.67,.58-2.47,.94-.83,.38-1.65,.87-2.18,1.63-.23,.33-.41,.7-.54,1.08-.39,1.16-.37,2.46,.06,3.62,.04,.1,.08,.2,.06,.31-.02,.17-.17,.28-.28,.41-.11,.13-.17,.34-.03,.45-.84,.02-1.78,.21-2.26,.9-.32,.47-.36,1.09-.3,1.66,.06,.57,.22,1.13,.23,1.71,.01,.57-.14,1.19-.58,1.56,.51,.13,1.08-.07,1.4-.48,.41-.53,.38-1.26,.44-1.93,.06-.67,.35-1.43,1-1.58,.34,.42,.63,.93,.61,1.47-.04,.93-.99,1.74-.76,2.64,.35-.59,1.16-.72,1.62-1.22,.57-.61,.46-1.6,.11-2.35-.16-.33-.35-.73-.14-1.03,.19,.94,1.31,1.49,1.45,2.44,.03,.21,.02,.45,.15,.6,.08,.1,.21,.14,.32,.21,.47,.27,.47,.68,.53,1.16v.02c.23,1.85-1.25,3.19-2.38,4.42-1.17,1.27-2.09,2.81-2.88,4.33-3.09,5.95-9.75,17.84-7.61,21.64,2.14,3.81,28.54,14.75,28.54,14.75,0,0,.9-2.7,1.48-5.32l12.77,1.68s4.01-8.11,4.54-10.51c.43-1.94-.09-5.52-.45-5.97l.03-.04Zm-28.24-22.89s3.74,.5,5.1-2.21l2.32,4.11c-2.39,.2-6.91,.23-7.13-.06-.29-.39-.29-1.85-.29-1.85h0Zm10.92,8.13c-.38,.18-.67,.37-.8,.54-.49,.68-.58,1.85-.88,2.14-.29,.29-6.81,2.53-7.01,1.85-.19-.68,.88-3.6,.88-3.6,0,0,4.07-1.39,6.92-2.51l.89,1.58h0Zm-2.4-17.18l.58,.28c0,1.49,.64,3.4,.83,3.91s-.2,2.97-.58,4.72l-1.59-3.58c-.37-.84-1.17-1.3-1.74-1.02l-.39,.2-.03,.02c.08-2.03-.36-4.27-1.11-6.25l4.03,1.72Z"/>
        <path class="cls-5" d="M367.24,172.99s-2.4-15.39,6.39-20.38l2.8-.6-.4,6.19s4.4-2.2,7.59-4.4c3.2-2.2,5.2-4.4,5.2-4.4l1,5s4.4-2.6,6.79-4.4c2.4-1.8,3.8-3.4,3.8-3.4l.2,5.39s4.2-.2,8.39-2c4.2-1.8,8.59-3.4,8.59-3.4,0,0,1.4,4-1,6.19-2.4,2.2-13.19,6.19-13.19,6.19l5.79,3s-6.99,3.6-11.39,2.8c0,0,2,3,4.8,3.2s4.8,0,4.8,0c0,0-6.79,4.4-11.59,4.4,0,0,.4,3.6,7.79,5,0,0-9.59,.8-10.79,2.4s-9.59,5.2-12.39,4.8c-2.8-.4-5.79-1.2-7.99-4s-5.2-7.59-5.2-7.59h.01Z"/>
        <path class="cls-6" d="M407.93,145.25c-2.17,1.68-4.2,4.19-6.94,3.99,1.8-2.78,2.74-6.12,2.64-9.44-4.92,3.12-6.91,10.31-12.55,11.77,1.86-3.84,1.57-8.64-.73-12.23-.98,4.2-2.18,8.74-5.62,11.34-2.44,1.84-5.96,2.69-7.1,5.53-.82-2.27,1.62-4.24,2.94-6.26,1.41-2.17,1.55-5.12,.34-7.41-1.01,2.89-3.02,5.42-5.59,7.08-3.21,2.06-5.31,2.51-7,5.98-1.82,3.74-3.31,7.42-3.41,11.64-.07,3,.55,6.16,1.78,9.03-4.12,2.82-8.81,5.35-13.36,6.31-12.56,2.66-36,3.87-52.43,3.62-16.43-.24-164.08,0-164.08,0,0,0-14.25,0-27.78-9.42-8.7-6.06-13.81-21.12-16.6-31.1,.54,.1,1.11,.2,1.71,.27,8.86,1.14,19.73-10.01,19.73-10.01,0,0-2,1.43-9.44,1.14-7.43-.29-13.44-.29-13.15-3.72s3.15-6.58,8.01-5.72,7.43,4.86,12.3,4.86,10.29-5.15,10.29-5.15c0,0-5.72,1.43-8.58,0s-6.86-7.43-9.15-8.29-8.01-.86-9.72-.86-5.72-1.14-2.86-3.72c2.86-2.57,4.86-2.29,10.01-2s10.58-4.57,10.58-4.57c0,0-9.72,1.43-13.15-.57-.31-.18-.62-.34-.95-.5-3.56-1.72-7.76-1.33-11.08,.82-.5,.32-.91,.54-1.12,.54-2.57,0-.88-2.75-.16-3.55,1.26-1.38,2.38-2.62,2.22-4.64-.04-.51-.15-1.02-.36-1.48-.73-1.58-2.77-2.39-4.39-1.74,.25,.47,.89,.55,1.29,.9,.1,.09,.2,.18,.28,.27,2.59,2.75-4.16,4.84-5.91,4.69-3.43-.31-6.97-2.3-10.42-1.01-2.18,.82-3.13,2.74-3.92,4.46-.08-.66-.17-1.31-.18-1.95-.05-2.03,.66-4.12,2.12-5.54,2.38-2.33,6.08-2.46,9.41-2.42,5.89,.07,11.78,.25,17.66,.52,3.08,.14,6.34,.27,9.05-1.2,2.36-1.28,3.99-3.68,4.68-6.28,.69-2.59,.5-5.36-.18-7.96-1.67,3.75-1.66,9.12-5.41,10.79-5.06,2.26-14.33,.13-18.35,.32,.78-1.64,1.59-3.38,1.48-5.2-.1-1.82-1.46-3.7-3.28-3.72,.93,2.47-.36,5.35-2.43,6.98s-4.75,2.25-7.36,2.62c-1.99,.28-4.03,.46-5.89,1.23-3.19,1.33-5.48,4.35-6.51,7.66-.37,1.17-.59,2.36-.7,3.58-.21-.29-.4-.59-.58-.89-1.03-1.75-1.43-3.92-.86-5.87,.94-3.19,4.11-5.12,7.03-6.71,5.18-2.81,10.4-5.54,15.67-8.17,2.76-1.38,5.67-2.86,7.31-5.46,1.43-2.27,1.69-5.16,1.02-7.76-.67-2.6-2.18-4.92-4.04-6.86,.37,4.09,3.01,8.77,.55,12.06-3.31,4.44-12.44,7.11-15.86,9.24-.12-1.82-.27-3.72-1.24-5.26-.98-1.54-3.08-2.52-4.68-1.64,2.02,1.7,2.3,4.84,1.29,7.27-1.01,2.43-3.05,4.28-5.15,5.88-1.6,1.22-3.3,2.37-4.54,3.95-2.13,2.72-2.65,6.48-1.95,9.86,.11,.53,.25,1.05,.41,1.57-.28,.09-.57,.19-.88,.33-4.57,2-4.29,6-7.15,6.58-2.86,.57-14.58,2-19.73,.86s-6-6-10.87-5.72-3.43,4.29-6.86,5.15-6.86-.29-7.43,2c-.57,2.29,2.57,6.58,2.57,6.58,0,0,5.43,10.58,5.72,9.72s-2.86-6.86-.86-8.01c2-1.14,5.72-.29,5.72,.86s1.14,7.15,3.43,8.01c0,0-1.72-6.58-.29-7.15,1.43-.57,7.72-2.86,12.58-1.14s4.57,2.86,9.44,3.43c4.86,.57,11.44-1.72,13.15-.29,1.72,1.43,5.43,5.43-1.72,7.43s-13.44,2-17.73,1.72c-4.29-.29-8.58,3.15-11.15,3.72s-4.29,1.72-5.43,.29c-1.14-1.43-1.72-6.29-1.72-6.29,0,0-1.54,1.57-1.14,3.72,.03,.17,.05,.39,.06,.64,.05,1.31-.99,2.41-2.31,2.41-.84,0-1.68-.11-2.04-.47-.86-.86-.99-6.12-.99-6.12,0,0-1.59,2.97-1.59,4.97s.86,5.15,.86,5.15c0,0-1.43,1.43-.86,5.43,.57,4,3.15,8.01,5.15,10.58s1.43,13.44,1.43,13.44c0,0,3.72-4.29,4-8.01,.29-3.72-5.15-6.29-2.57-9.72,2.57-3.43,7.15-1.72,10.29,1.72,3.15,3.43,10.58,4.29,10.58,4.29,0,0-4.86-1.43-6.58-3.72s-3.43-5.72-1.14-5.43c2.29,.29,5.43,4.29,8.86,5.43s8.86,.57,8.86,.57c0,0-5.43-.86-7.43-3.72s-3.43-6.58,0-7.15,9.44,4.57,12.58,4.57,6-.29,6-.29c0,0-6-2.29-7.15-4.57-1.14-2.29,2.86-6,6.29-4.29,3.43,1.72,8.01,5.72,11.15,6.86,2.25,.82,5.68,1.63,9.12,1.93,3.63,15.68,10.61,40.05,18.37,48.15,11.35,11.84,30.2,15.46,46.87,16.67,16.67,1.21,193.76,.48,193.76,.48,0,0,14.98,1.21,25.85-7.25,6.08-4.73,11.86-15.8,16.44-25.32,1.03,.31,2.13,.5,3.28,.55,3.99,.17,7.92-1.28,11.28-3.44,1.59-1.02,3.14-2.23,4.98-2.66,1.31-.3,2.68-.19,4.03-.28,3.8-.25,7.44-2.27,9.68-5.35-4.14,2.26-9.65,1.66-13.21-1.43,7.3,1.3,13.48-5.88,20.85-6.74-6.17,.67-12.45,.28-18.49-1.15,5.23-.4,10.86-.97,14.81-4.42-2.7,.15-5.44-.45-7.84-1.7,4.94-.94,10.41-2.2,13.22-6.37,1.27-1.88,1.83-4.15,2.83-6.19s2.72-4,4.98-4.21c-6.54-.67-13.81-1.15-19.01,2.87h.04ZM14.3,114.65c-.48,.73,.48,1.09,2.18,1.94,1.7,.85,.36,2.42-1.09,2.54-1.45,.12-3.63-1.82-3.63-4.48s2.42-3.39,5.33-1.7c2.91,1.7,5.09,4.97,5.09,4.97-3.75-4.6-7.39-4-7.87-3.27h-.01Zm50.83,3.76c-2.07,.48-4.06,3.02-5.33,3.58s-3.9,1.03-5.57,1.03-5.65-2.39-5.65-2.39c0,0,4.78,2.79,8.28,1.59,3.5-1.19,4.14-4.22,3.42-5.57s-2.07-4.22-5.09-3.9-7.32,4.22-7.32,4.22c0,0,3.82-5.41,7-5.81s5.81,3.98,9.31,5.09,7.96,.32,7.96,.32c0,0-4.93,1.35-7,1.83h0Zm-13.26-1.17c0-1.91,1.55-3.46,3.46-3.46s3.46,1.55,3.46,3.46-1.55,3.46-3.46,3.46-3.46-1.55-3.46-3.46Zm37.54,19.35c-.97-1.29-1.73-2.74-2.24-4.28-.47-1.43-.72-2.97-.43-4.46,.29-1.48,1.17-2.89,2.52-3.57,.62-.31,1.3-.45,1.98-.59,.66-.14,1.32-.28,1.99-.42-.7-.25-1.4-.51-2.1-.76-1.68-.61-3.4-1.24-4.77-2.38s-2.36-2.92-2.07-4.68c.21-1.29,1.13-2.45,2.34-2.95-1.33-.21-2.69-.05-4.02-.2-1.33-.16-2.75-.75-3.32-1.96-.51-1.09-.22-2.37-.44-3.55-1.45,.74-3.13,1.01-4.73,.78-1.08-.16-2.12-.54-3.19-.7-1.08-.16-2.26-.08-3.13,.58,.69-1.03,2.01-1.45,3.24-1.47,1.23-.02,2.45,.29,3.68,.39,2.56,.22,5.18-.47,7.3-1.92-.7,1.11-1.43,2.35-1.21,3.64,.21,1.3,1.39,2.3,2.67,2.63s2.64,.09,3.9-.31,2.47-.95,3.75-1.29c2.25-.59,4.63-.47,6.95-.27-3.02,.58-6.1,1.18-8.81,2.63-.63,.33-1.25,.73-1.66,1.3-.99,1.37-.53,3.32,.29,4.8,.33,.59,.72,1.16,1.22,1.61,1.43,1.28,3.51,1.4,5.41,1.72,3.19,.54,6.37,1.92,8.39,4.44-2.06-.57-4.19-1.02-6.33-.92-2.14,.1-4.31,.81-5.86,2.28-2.57,2.45-2.91,6.7-1.29,9.86l-.03,.02Zm318.63,19.06c-2.55,1.29-5.4,2-7.79,3.57,2,1.65,4.64,2.51,7.23,2.36-3.69,2.43-8.47,2.16-12.87,1.8-.36,1.21,.74,2.35,1.8,3.03,2.46,1.56,5.38,2.39,8.3,2.34-3.35,2.28-7.69,2.26-11.74,2.17-.24,1.63,1.36,2.88,2.76,3.74,1.31,.8,2.61,1.6,3.92,2.4-2.53,.32-5.12,.66-7.43,1.75-1.47,.7-2.8,1.68-4.26,2.39-3.28,1.58-7.24,1.65-10.58,.2,2.71,.18,5.53,.35,8.06-.63,1.59-.62,2.97-1.66,4.5-2.41,1.81-.89,3.82-1.37,5.84-1.39-1.57-.31-2.86-1.47-3.7-2.83-.84-1.36-1.3-2.91-1.75-4.45,2.83,.25,5.69,.02,8.45-.66-1.53-.55-3.07-1.14-4.36-2.13-1.29-.99-2.32-2.43-2.43-4.05,2.77-.49,5.57-.83,8.38-1.01l-4.73-2.22c2.62-1.24,5.29-2.38,8.01-3.41-3.01,.23-6.01,.75-8.92,1.55,.31-.74,.63-1.47,.94-2.21-4.45,1.19-8.85,2.61-13.15,4.27,.59-.87,1.18-1.74,1.77-2.6-2.21,.61-4.9,1.34-6.66,2.9-.71,.63-2.43,3.46-2.75,5.22-.09,.47-.07,.86,.08,1.11-1.07-1.76-1.93-3.64-2.58-5.6-1.19,2.41-3.44,6-2.69,8.82-1.51-5.62,.45-12.02,4.84-15.83-1.57,2.95-1.31,6.79,.67,9.49-.12-2.11,1.37-4.01,3.12-5.17,1.76-1.16,3.81-1.79,5.69-2.75s3.7-2.37,4.31-4.39c.2,1.81-.35,3.7-1.5,5.12,5.15-.46,10.06-3.17,13.18-7.29-.83,2.01-1.66,4.03-2.48,6.04,2.3-1.44,4.92-2.37,7.62-2.71,1-.13,2.01-.18,3-.37,1.87-.37,3.64-1.26,5.04-2.56-.15,2.86-2.57,5.09-5.12,6.39h-.02Z"/>
        <g>
          <path class="cls-3" d="M109.82,186.59s7.94,5,0,9.12c0,0,14.7-4.02,0-9.12Z"/>
          <path class="cls-3" d="M109.82,197.07s7.94,5,0,9.12c0,0,14.7-4.02,0-9.12Z"/>
          <path class="cls-3" d="M109.82,207.54s2.07,1.31,3.04,3.13c1.11,.39,2.26,.77,3.44,1.12-.29-1.26-2.04-2.71-6.49-4.25h0Z"/>
          <path class="cls-3" d="M118.27,193.01s7.94,5,0,9.12c0,0,14.7-4.02,0-9.12Z"/>
          <path class="cls-3" d="M118.27,191.66s8.11-2.22,6.25-5.45c-1.15-.32-2.34-.7-3.57-1.13,1.26,1.82,1.66,4.33-2.68,6.59h0Z"/>
          <path class="cls-3" d="M118.27,203.48s7.72,4.86,.32,8.95c.05,0,.09,.02,.14,.04,2.37-.74,12.66-4.43-.46-8.99h0Z"/>
          <path class="cls-3" d="M126.88,195.71s13.61-3.72,1.52-8.56c-.34-.07-.68-.14-1.03-.22,1.6,1.19,6.21,5.3-.49,8.78Z"/>
          <path class="cls-3" d="M126.88,197.07s7.94,5,0,9.12c0,0,14.7-4.02,0-9.12Z"/>
          <path class="cls-3" d="M126.88,207.54s5.63,3.54,2.66,7.13c.53,.08,1.06,.16,1.61,.23,2.8-1.65,4.51-4.31-4.27-7.36Z"/>
          <path class="cls-3" d="M135.33,193.01s7.94,5,0,9.12c0,0,14.7-4.02,0-9.12Z"/>
          <path class="cls-3" d="M135.33,191.66s4.93-1.35,6.23-3.48h-2.79c-.28,1.14-1.26,2.34-3.44,3.47h0Z"/>
          <path class="cls-3" d="M135.33,203.48s7.94,5,0,9.12c0,0,14.7-4.02,0-9.12Z"/>
          <path class="cls-3" d="M143.95,195.71s11.75-3.21,3.73-7.54h-1.83c1.72,1.81,3.27,4.86-1.9,7.54Z"/>
          <path class="cls-3" d="M143.95,197.07s7.94,5,0,9.12c0,0,14.7-4.02,0-9.12Z"/>
          <path class="cls-3" d="M143.95,207.54s7.19,4.53,1.04,8.52c.23,0,.46,0,.7,.02,3.4-1.29,9.64-4.59-1.74-8.54h0Z"/>
          <path class="cls-3" d="M152.39,193.01s7.94,5,0,9.12c0,0,14.7-4.02,0-9.12Z"/>
          <path class="cls-3" d="M152.39,191.66s4.97-1.36,6.24-3.5h-2.79c-.27,1.15-1.25,2.36-3.45,3.5h0Z"/>
          <path class="cls-3" d="M152.39,203.48s7.94,5,0,9.12c0,0,14.7-4.02,0-9.12Z"/>
          <path class="cls-3" d="M161.01,195.71s11.79-3.22,3.68-7.56h-1.81c1.73,1.8,3.31,4.87-1.87,7.56Z"/>
          <path class="cls-3" d="M161.01,197.07s7.94,5,0,9.12c0,0,14.7-4.02,0-9.12Z"/>
          <path class="cls-3" d="M161.01,207.54s7.52,4.74,.59,8.79h.43c3.07-1.05,11.21-4.55-1.03-8.8h.01Z"/>
          <path class="cls-3" d="M169.45,193.01s7.94,5,0,9.12c0,0,14.7-4.02,0-9.12Z"/>
          <path class="cls-3" d="M169.45,191.66s5-1.37,6.25-3.52h-2.8c-.26,1.16-1.24,2.37-3.45,3.52Z"/>
          <path class="cls-3" d="M169.45,203.48s7.94,5,0,9.12c0,0,14.7-4.02,0-9.12Z"/>
          <path class="cls-3" d="M178.07,195.71s11.82-3.23,3.65-7.58h-1.79c1.73,1.8,3.35,4.88-1.85,7.58h0Z"/>
          <path class="cls-3" d="M178.07,197.07s7.94,5,0,9.12c0,0,14.7-4.02,0-9.12Z"/>
          <path class="cls-3" d="M178.07,207.54s7.68,4.83,.38,8.92h.29c2.69-.87,12.1-4.49-.66-8.92h0Z"/>
          <path class="cls-3" d="M186.52,193.01s7.94,5,0,9.12c0,0,14.7-4.02,0-9.12Z"/>
          <path class="cls-3" d="M186.52,191.66s5.03-1.38,6.26-3.54h-2.81c-.26,1.16-1.23,2.39-3.46,3.54h.01Z"/>
          <path class="cls-3" d="M186.52,203.48s7.94,5,0,9.12c0,0,14.7-4.02,0-9.12Z"/>
          <path class="cls-3" d="M195.13,195.71s11.86-3.24,3.61-7.6h-1.78c1.74,1.8,3.39,4.89-1.84,7.6h0Z"/>
          <path class="cls-3" d="M195.13,197.07s7.94,5,0,9.12c0,0,14.7-4.02,0-9.12Z"/>
          <path class="cls-3" d="M195.13,207.54s7.76,4.89,.25,8.99h.2c2.37-.74,12.66-4.43-.46-8.99h.01Z"/>
          <path class="cls-3" d="M203.58,193.01s7.94,5,0,9.12c0,0,14.7-4.02,0-9.12Z"/>
          <path class="cls-3" d="M203.58,191.66s5.06-1.38,6.27-3.56h-2.81c-.25,1.17-1.23,2.4-3.46,3.56Z"/>
          <path class="cls-3" d="M203.58,203.48s7.94,5,0,9.12c0,0,14.7-4.02,0-9.12Z"/>
          <path class="cls-3" d="M212.19,195.71s11.88-3.25,3.58-7.62h-1.76c1.74,1.8,3.42,4.89-1.82,7.62Z"/>
          <path class="cls-3" d="M212.19,197.07s7.94,5,0,9.12c0,0,14.7-4.02,0-9.12Z"/>
          <path class="cls-3" d="M212.19,207.54s7.81,4.91,.19,9.02h.16c2.14-.66,12.98-4.39-.35-9.02Z"/>
          <path class="cls-3" d="M220.64,193.01s7.94,5,0,9.12c0,0,14.7-4.02,0-9.12Z"/>
          <path class="cls-3" d="M220.64,191.66s5.08-1.39,6.28-3.57h-2.81c-.25,1.17-1.22,2.4-3.46,3.57h0Z"/>
          <path class="cls-3" d="M220.64,203.48s7.94,5,0,9.12c0,0,14.7-4.02,0-9.12Z"/>
          <path class="cls-3" d="M229.25,195.71s11.9-3.26,3.57-7.63h-1.75c1.75,1.79,3.44,4.9-1.81,7.63h-.01Z"/>
          <path class="cls-3" d="M229.25,197.07s7.94,5,0,9.12c0,0,14.7-4.02,0-9.12Z"/>
          <path class="cls-3" d="M229.25,207.54s7.82,4.92,.17,9.03h.14c2.05-.62,13.09-4.38-.31-9.03Z"/>
          <path class="cls-3" d="M237.7,193.01s7.94,5,0,9.12c0,0,14.7-4.02,0-9.12Z"/>
          <path class="cls-3" d="M237.7,191.66s5.09-1.39,6.28-3.58h-2.82c-.24,1.17-1.22,2.41-3.46,3.58h0Z"/>
          <path class="cls-3" d="M237.7,203.48s7.94,5,0,9.12c0,0,14.7-4.02,0-9.12Z"/>
          <path class="cls-3" d="M246.32,195.71s11.91-3.26,3.56-7.63h-1.75c1.75,1.79,3.45,4.9-1.81,7.63Z"/>
          <path class="cls-3" d="M246.32,197.07s7.94,5,0,9.12c0,0,14.7-4.02,0-9.12Z"/>
          <path class="cls-3" d="M246.32,207.54s7.81,4.92,.18,9.02h.15c2.1-.64,13.02-4.39-.34-9.02h.01Z"/>
          <path class="cls-3" d="M254.76,193.01s7.94,5,0,9.12c0,0,14.7-4.02,0-9.12Z"/>
          <path class="cls-3" d="M254.76,191.66s5.09-1.39,6.28-3.58h-2.82c-.24,1.17-1.22,2.41-3.46,3.58Z"/>
          <path class="cls-3" d="M254.76,203.48s7.94,5,0,9.12c0,0,14.7-4.02,0-9.12Z"/>
          <path class="cls-3" d="M263.38,195.71s11.9-3.26,3.57-7.63h-1.76c1.75,1.79,3.44,4.9-1.81,7.63Z"/>
          <path class="cls-3" d="M263.38,197.07s7.94,5,0,9.12c0,0,14.7-4.02,0-9.12Z"/>
          <path class="cls-3" d="M263.38,207.54s7.79,4.9,.22,9h.18c2.25-.7,12.83-4.41-.4-9Z"/>
          <path class="cls-3" d="M271.82,193.01s7.94,5,0,9.12c0,0,14.7-4.02,0-9.12Z"/>
          <path class="cls-3" d="M271.82,191.66s5.06-1.39,6.27-3.56h-2.81c-.25,1.17-1.22,2.4-3.46,3.57h0Z"/>
          <path class="cls-3" d="M271.82,203.48s7.94,5,0,9.12c0,0,14.7-4.02,0-9.12Z"/>
          <path class="cls-3" d="M280.44,195.71s11.86-3.24,3.61-7.61h-1.78c1.74,1.8,3.4,4.89-1.83,7.61Z"/>
          <path class="cls-3" d="M280.44,197.07s7.94,5,0,9.12c0,0,14.7-4.02,0-9.12Z"/>
          <path class="cls-3" d="M280.44,207.54s7.75,4.88,.28,8.97h.22c2.45-.77,12.54-4.44-.5-8.97Z"/>
          <path class="cls-3" d="M288.89,193.01s7.94,5,0,9.12c0,0,14.7-4.02,0-9.12Z"/>
          <path class="cls-3" d="M288.89,191.66s4.99-1.37,6.25-3.52c-.86,0-1.79,0-2.79-.01-.26,1.16-1.24,2.38-3.45,3.53h0Z"/>
          <path class="cls-3" d="M288.89,203.48s7.94,5,0,9.12c0,0,14.7-4.02,0-9.12Z"/>
          <path class="cls-3" d="M297.5,195.71s11.71-3.2,3.77-7.52h-.4c-.41,0-.9-.01-1.47-.02,1.72,1.81,3.27,4.86-1.89,7.54h0Z"/>
          <path class="cls-3" d="M297.5,197.07s7.94,5,0,9.12c0,0,14.7-4.02,0-9.12Z"/>
          <path class="cls-3" d="M297.5,207.54s7.7,4.84,.35,8.93h.27c2.65-.85,12.19-4.48-.63-8.93h.01Z"/>
          <path class="cls-3" d="M305.95,193.01s7.94,5,0,9.12c0,0,14.7-4.02,0-9.12Z"/>
          <path class="cls-3" d="M305.95,191.66s4.99-1.36,6.25-3.51c-.95,.02-1.88,.03-2.81,.05-.28,1.14-1.26,2.34-3.44,3.47h0Z"/>
          <path class="cls-3" d="M305.95,203.48s7.94,5,0,9.12c0,0,14.7-4.02,0-9.12Z"/>
          <path class="cls-3" d="M314.56,195.71s12.08-3.3,3.38-7.73c-.54,.02-1.08,.04-1.61,.05,1.76,1.79,3.53,4.92-1.76,7.67h-.01Z"/>
          <path class="cls-3" d="M314.56,197.07s7.94,5,0,9.12c0,0,14.7-4.02,0-9.12Z"/>
          <path class="cls-3" d="M314.56,207.54s7.63,4.8,.44,8.88h.34c2.84-.94,11.8-4.51-.78-8.88Z"/>
          <path class="cls-3" d="M323.01,193.01s7.94,5,0,9.12c0,0,14.7-4.02,0-9.12Z"/>
          <path class="cls-3" d="M323.01,191.66s6.15-1.68,6.51-4.25c-.99,.07-1.99,.13-2.99,.18-.06,1.31-.96,2.74-3.52,4.07h0Z"/>
          <path class="cls-3" d="M323.01,203.48s7.94,5,0,9.12c0,0,14.7-4.02,0-9.12Z"/>
          <path class="cls-3" d="M331.62,195.71s13.63-3.73,1.5-8.56c-.22,.02-.44,.03-.67,.05,1.81,1.46,5.43,5.25-.83,8.51Z"/>
          <path class="cls-3" d="M331.62,197.07s7.94,5,0,9.12c0,0,14.7-4.02,0-9.12Z"/>
          <path class="cls-3" d="M331.62,207.54s7.56,4.76,.54,8.82h.42c3.01-1.02,11.37-4.54-.96-8.82h0Z"/>
          <path class="cls-3" d="M340.07,193.01s7.94,5,0,9.12c0,0,14.7-4.02,0-9.12Z"/>
          <path class="cls-3" d="M340.07,191.66s8.77-2.4,5.98-5.84c-.88,.12-1.79,.24-2.71,.35,.65,1.66,.26,3.66-3.27,5.5h0Z"/>
          <path class="cls-3" d="M340.07,203.48s7.94,5,0,9.12c0,0,14.7-4.02,0-9.12Z"/>
          <path class="cls-3" d="M348.69,186.59s7.94,5,0,9.12c0,0,14.7-4.02,0-9.12Z"/>
          <path class="cls-3" d="M348.69,197.07s7.94,5,0,9.12c0,0,14.7-4.02,0-9.12Z"/>
          <path class="cls-3" d="M348.69,207.54s4.4,2.77,3.37,5.89c1.05-.44,2.11-.93,3.14-1.5-.19-1.3-1.91-2.79-6.51-4.39Z"/>
          <path class="cls-3" d="M357.13,193.01s7.94,5,0,9.12c0,0,14.7-4.02,0-9.12Z"/>
          <path class="cls-3" d="M357.13,191.66s13.74-3.76,1.36-8.62c-.15,.06-.3,.12-.44,.18,1.83,1.5,5.26,5.24-.92,8.44h0Z"/>
          <path class="cls-3" d="M360.63,207.96c.59-.58,1.17-1.22,1.75-1.91-1.01-.81-2.68-1.67-5.24-2.56,0,0,3.14,1.98,3.5,4.47h-.01Z"/>
          <path class="cls-3" d="M365.75,186.59s7.94,5,0,9.12c0,0,2.58-.71,4.5-1.9,.61-1.14,1.22-2.3,1.81-3.46-.59-1.14-2.42-2.41-6.3-3.76h-.01Z"/>
          <path class="cls-3" d="M92.81,168.19s6.09,5.81,7.9,2.54c-.53-.79-1.05-1.63-1.56-2.51-1.1,1.37-3.01,2.01-6.34-.04h0Z"/>
          <path class="cls-3" d="M83.84,173.58s11.02,10.53,7.82-4.7c0,0-.19,9.38-7.82,4.7Z"/>
          <path class="cls-3" d="M98.53,174.29s5.7,5.45,7.71,2.83c-.73-.62-1.45-1.31-2.15-2.07-1.16,.78-2.91,.86-5.56-.77h0Z"/>
          <path class="cls-3" d="M88.99,187.67c.11-1.55-.23-2.96-.23-2.96,.5,1,.89,1.88,1.19,2.67,.64-.42,1.08-1.32,1.13-2.96-.82-.37-1.38-.68-1.38-.68,.5,.15,.96,.26,1.38,.34,0-1.18-.17-2.7-.58-4.65,0,0-.11,5.4-3.5,5.96,.29,.72,.58,1.43,.88,2.13,.38,.11,.76,.17,1.1,.16h.01Z"/>
          <path class="cls-3" d="M91.08,184.42c3.21,1.45,10.52,3.88,5-7.2,0,0,1.94,8.09-5,6.86-.43-.08-.89-.19-1.38-.34,0,0,.55,.31,1.38,.68Z"/>
          <path class="cls-3" d="M89.95,187.38c-.3-.79-.69-1.67-1.19-2.67,0,0,.34,1.41,.23,2.96-.04,.55-.13,1.11-.32,1.64,.51,1.13,1.03,2.21,1.56,3.24,.71-.77,.81-2.33-.28-5.17Z"/>
          <path class="cls-3" d="M104.96,180.23s2.18,9.12-6.38,6.52c0,0,13.32,7.4,6.38-6.52Z"/>
          <path class="cls-3" d="M105.9,179.26s3.99,2.22,6.47,1.94c-.88-.49-1.77-1.02-2.66-1.59-.94,.21-2.18,.14-3.81-.35Z"/>
          <path class="cls-3" d="M104.2,202.1s2,3.02,1.37,5.42c.88,.46,1.79,.9,2.74,1.32,.41-1.25-.51-3.33-4.1-6.75h-.01Z"/>
          <path class="cls-3" d="M97.63,187.72s2.18,9.12-6.38,6.52c0,0,13.32,7.4,6.38-6.52Z"/>
          <path class="cls-3" d="M99.11,196.54s13.32,7.4,6.38-6.52c0,0,2.18,9.12-6.38,6.52Z"/>
          <path class="cls-3" d="M98.78,198.45s.63,2.62-.11,4.66c.68,.54,1.38,1.06,2.11,1.56,.02-1.31-.54-3.29-2-6.22Z"/>
          <path class="cls-3" d="M88.15,151.69s3.13,4.33,5.6,4.64c-.32-.86-.63-1.75-.94-2.66-1.2,.23-2.73-.23-4.66-1.97h0Z"/>
          <path class="cls-3" d="M86.88,152.16s-1.9,9.19-8.54,3.19c0,0,8.91,12.36,8.54-3.19Z"/>
          <path class="cls-3" d="M93.64,158.66s-1.9,9.19-8.54,3.19c0,0,8.91,12.36,8.54-3.19Z"/>
          <path class="cls-3" d="M83.83,162.32s-.74,3.57-2.9,4.8c.27,.96,.56,1.94,.85,2.93,1.26-.48,2.17-2.56,2.05-7.74h0Z"/>
        </g>
        <path class="cls-2" d="M289.55,199.83l18.04-56.83-1.52-.48-18.04,56.83c-1.91-.22-3.77,.94-4.38,2.84l-4.73,14.9c-.2,.63,.15,1.3,.78,1.5l5.56,1.76c.63,.2,1.3-.15,1.5-.78l4.73-14.9c.6-1.9-.25-3.92-1.94-4.84Z"/>
        <path class="cls-2" d="M248.74,199.83l18.04-56.83-1.52-.48-18.04,56.83c-1.91-.22-3.77,.94-4.38,2.84l-4.73,14.9c-.2,.63,.15,1.3,.78,1.5l5.56,1.76c.63,.2,1.3-.15,1.5-.78l4.73-14.9c.6-1.9-.25-3.92-1.94-4.84h0Z"/>
        <path class="cls-2" d="M207.93,199.83l18.04-56.83-1.52-.48-18.04,56.83c-1.91-.22-3.77,.94-4.38,2.84l-4.73,14.9c-.2,.63,.15,1.3,.78,1.5l5.56,1.76c.63,.2,1.3-.15,1.5-.78l4.73-14.9c.6-1.9-.25-3.92-1.94-4.84Z"/>
        <path class="cls-2" d="M167.12,199.83l18.04-56.83-1.52-.48-18.04,56.83c-1.91-.22-3.77,.94-4.38,2.84l-4.73,14.9c-.2,.63,.15,1.3,.78,1.5l5.56,1.76c.63,.2,1.3-.15,1.5-.78l4.73-14.9c.6-1.9-.25-3.92-1.94-4.84Z"/>
      </g>
    </g>
    <path class="cls-2" d="M355.43,120.51c-7.78,0-15.49-1.78-22.53-5.25-1.9-.94-3.78-2.01-5.58-3.19l-9.6,6.89,3.13-11.9c-2.98-2.7-5.63-5.74-7.9-9.02-5.31-7.69-8.05-16.58-7.7-25.02,.19-4.65,1.3-8.91,3.31-12.66,2.06-3.86,5.28-7.28,9.31-9.88,5.66-3.66,22.31-6.71,22.88-6.79,8.26-1.11,16.93-.08,25.06,2.96,8.18,3.06,15.49,7.93,21.15,14.09,7.03,7.65,11.17,16.63,11.68,25.27,.29,4.89-.77,9.7-3.05,13.9-2.01,3.71-5,7.13-8.89,10.15-7.43,5.77-16.62,9.31-26.57,10.24-1.57,.15-3.14,.22-4.71,.22Zm-28.13-9.9l.35,.23c1.86,1.25,3.81,2.37,5.79,3.34,8.26,4.06,17.46,5.76,26.59,4.91,9.73-.9,18.7-4.36,25.95-9.99,3.75-2.92,6.64-6.2,8.57-9.77,2.17-4.01,3.18-8.59,2.9-13.26-.49-8.37-4.53-17.08-11.37-24.53-5.53-6.02-12.68-10.79-20.69-13.78-7.95-2.97-16.41-3.97-24.48-2.89-.36,.05-16.85,3.02-22.39,6.6-3.85,2.49-6.93,5.76-8.9,9.44-1.92,3.59-2.98,7.68-3.17,12.15-.34,8.18,2.32,16.81,7.49,24.29,2.28,3.3,4.97,6.35,7.98,9.05l.27,.24-2.47,9.39,7.57-5.43Z"/>
    <path class="cls-2" d="M271.91,123.02l-15.12-18.94c-5.63,.15-11.78,.07-18.79-.23-8.46-.37-14.73-2.85-19.16-7.58-11.6-12.41-10.39-39.27-6.74-54.29,3.61-14.89,12.51-27.67,25.05-35.99,10.3-6.83,21.91-6.52,31.91-5.32,1.45,.17,3.2,.27,5.05,.37,3.85,.21,8.22,.45,12.18,1.47,4.69,1.21,7.85,3.27,9.66,6.32,2.12,3.56,2.36,8.16,2.42,12.57,.18,12.66-.43,26.49-1.92,43.54-.54,6.2-1.15,12.8-2.06,19.35-.65,4.68-1.9,10.51-5.86,14.06-1.7,1.52-3.86,2.53-6.8,3.17-2.54,.56-5.13,.9-7.65,1.24l-.18,.02c-1.06,.14-2.16,.27-3.3,.4l1.29,19.84Zm-14.56-20.15l13.11,16.42-1.12-17.18,.57-.06c1.32-.14,2.61-.29,3.83-.45l.18-.02c2.49-.33,5.06-.67,7.55-1.22,2.73-.6,4.72-1.52,6.26-2.89,3.67-3.29,4.86-8.85,5.47-13.33,.9-6.53,1.51-13.11,2.05-19.3,1.49-17.01,2.1-30.8,1.92-43.42-.06-4.24-.29-8.66-2.25-11.97-3.73-6.26-13.24-6.78-20.88-7.2-1.87-.1-3.64-.2-5.12-.38-9.78-1.18-21.13-1.49-31.11,5.13l-.33-.5,.33,.5c-12.29,8.15-21,20.67-24.55,35.27-3.58,14.77-4.82,41.13,6.45,53.19,4.2,4.5,10.2,6.85,18.33,7.2,7.11,.31,13.32,.38,19,.22h.3Z"/>
    <path class="cls-2" d="M185.86,110.11l-10.12-10.43c-6.87,3.41-14.34,5.09-21.64,4.87-9.6-.3-19.33-3.7-27.4-9.56-10.56-7.68-17.78-20.32-18.39-32.22-.41-8.09,2.2-14.9,7.55-19.69,4.32-3.87,10.27-6.27,17.67-7.13,17.57-2.05,36.05-3.59,51.83,1.84,9.72,3.34,15.61,9.62,17.04,18.14,1.06,6.3-.33,13.52-4,20.88-3.33,6.68-8.23,12.79-13.82,17.24l1.27,16.08Zm-9.84-12.12l8.16,8.42-1.03-13,.29-.23c10.2-7.98,19.84-23.68,17.6-37.03-1.34-8-6.92-13.9-16.13-17.07-15.51-5.34-33.81-3.8-51.22-1.77-7.12,.83-12.81,3.11-16.91,6.79l-.46-.51,.46,.51c-5.03,4.51-7.49,10.94-7.1,18.6,.59,11.5,7.58,23.73,17.82,31.18,7.85,5.71,17.31,9.01,26.64,9.3,7.23,.23,14.64-1.48,21.43-4.95l.45-.23Z"/>
    <g>
      <path class="cls-1" d="M135.9,69.97v-8h1.7v8h-1.7Z"/>
      <path class="cls-1" d="M139.45,68.53v-3.02h-.96v-1.33h.96v-1.58h1.54v1.58h1.18v1.33h-1.18v2.61c0,.36,.19,.64,.53,.64,.23,0,.44-.08,.53-.17l.32,1.15c-.23,.2-.64,.37-1.27,.37-1.07,0-1.64-.55-1.64-1.58Z"/>
      <path class="cls-1" d="M144.81,62.38c-.38,.2-.83,.71-.94,1.14,.04-.02,.14-.04,.24-.04,.46,0,.82,.35,.82,.86s-.43,.95-.95,.95c-.56,0-1.08-.44-1.08-1.22,0-.9,.5-1.7,1.25-2.22l.66,.53Z"/>
      <path class="cls-1" d="M146.06,68.15c.42,.4,1.28,.79,2,.79,.66,0,.97-.23,.97-.59,0-.41-.5-.55-1.16-.68-1-.19-2.28-.43-2.28-1.81,0-.97,.85-1.82,2.37-1.82,.98,0,1.76,.34,2.33,.79l-.6,1.04c-.35-.37-1.01-.67-1.71-.67-.55,0-.91,.2-.91,.54,0,.36,.46,.49,1.1,.62,1,.19,2.33,.46,2.33,1.9,0,1.07-.9,1.86-2.51,1.86-1.01,0-1.98-.34-2.59-.9l.66-1.07Z"/>
      <path class="cls-1" d="M156.57,65.51v4.46h-1.54v-4.46h-.96v-1.33h.96v-.31c0-1.26,.82-2.02,1.96-2.02,.43,0,.83,.1,1.1,.24l-.31,1.08c-.13-.08-.31-.12-.49-.12-.43,0-.72,.29-.72,.84v.29h1.18v1.33h-1.18Z"/>
      <path class="cls-1" d="M162.53,69.97v-.73c-.4,.44-1.09,.88-2.04,.88-1.27,0-1.87-.7-1.87-1.82v-4.11h1.52v3.51c0,.8,.42,1.07,1.07,1.07,.59,0,1.06-.32,1.32-.66v-3.92h1.52v5.79h-1.52Z"/>
      <path class="cls-1" d="M169.48,69.97v-3.5c0-.8-.42-1.08-1.07-1.08-.6,0-1.07,.34-1.32,.68v3.9h-1.52v-5.79h1.52v.76c.37-.44,1.08-.9,2.03-.9,1.27,0,1.88,.72,1.88,1.85v4.09h-1.52Z"/>
    </g>
    <g>
      <path class="cls-1" d="M235.85,38.63v-8h1.7v8h-1.7Z"/>
      <path class="cls-1" d="M239.4,37.19v-3.02h-.96v-1.33h.96v-1.58h1.54v1.58h1.18v1.33h-1.18v2.61c0,.36,.19,.64,.53,.64,.23,0,.44-.08,.53-.17l.32,1.15c-.23,.2-.64,.37-1.27,.37-1.07,0-1.64-.55-1.64-1.58Z"/>
      <path class="cls-1" d="M253.41,38.63v-3.66c0-.54-.24-.92-.86-.92-.54,0-.98,.36-1.2,.67v3.91h-1.54v-3.66c0-.54-.24-.92-.86-.92-.53,0-.97,.36-1.2,.68v3.9h-1.52v-5.79h1.52v.76c.24-.35,1.01-.9,1.89-.9s1.39,.4,1.61,1.06c.34-.53,1.1-1.06,1.99-1.06,1.07,0,1.7,.56,1.7,1.75v4.19h-1.54Z"/>
      <path class="cls-1" d="M259.93,38.63v-.6c-.4,.47-1.08,.74-1.84,.74-.92,0-2.01-.62-2.01-1.92s1.09-1.85,2.01-1.85c.77,0,1.45,.24,1.84,.71v-.8c0-.59-.5-.97-1.27-.97-.62,0-1.2,.23-1.69,.68l-.58-1.02c.71-.62,1.62-.91,2.53-.91,1.32,0,2.53,.53,2.53,2.19v3.74h-1.52Zm0-2.11c-.25-.34-.73-.5-1.22-.5-.6,0-1.09,.32-1.09,.88s.49,.85,1.09,.85c.49,0,.97-.17,1.22-.5v-.72Z"/>
      <path class="cls-1" d="M266.72,38.63l-1.54-2.23-.7,.74v1.49h-1.52v-8h1.52v4.79l2.2-2.58h1.87l-2.29,2.63,2.36,3.17h-1.91Z"/>
      <path class="cls-1" d="M271.76,32.69c1.73,0,2.9,1.29,2.9,3.19v.34h-4.31c.1,.73,.68,1.34,1.67,1.34,.54,0,1.18-.22,1.55-.58l.67,.98c-.59,.54-1.49,.8-2.39,.8-1.76,0-3.09-1.19-3.09-3.05,0-1.68,1.24-3.03,3-3.03Zm-1.43,2.49h2.85c-.04-.55-.42-1.28-1.43-1.28-.95,0-1.36,.71-1.43,1.28Z"/>
      <path class="cls-1" d="M275.93,36.81c.42,.4,1.28,.79,2,.79,.66,0,.97-.23,.97-.59,0-.41-.5-.55-1.16-.68-1-.19-2.28-.43-2.28-1.81,0-.97,.85-1.82,2.38-1.82,.98,0,1.76,.34,2.33,.79l-.6,1.04c-.35-.37-1.01-.67-1.71-.67-.55,0-.91,.2-.91,.54,0,.36,.46,.49,1.1,.62,1,.19,2.33,.46,2.33,1.9,0,1.07-.9,1.86-2.51,1.86-1.01,0-1.98-.34-2.59-.9l.66-1.07Z"/>
      <path class="cls-1" d="M248.68,53.93c.13,.06,.34,.1,.48,.1,.4,0,.66-.11,.8-.42l.22-.49-2.35-5.88h1.63l1.51,4.03,1.51-4.03h1.64l-2.72,6.74c-.43,1.09-1.2,1.38-2.2,1.4-.18,0-.56-.04-.75-.08l.23-1.37Z"/>
      <path class="cls-1" d="M254.44,50.13c0-1.64,1.15-3.03,3.06-3.03s3.07,1.39,3.07,3.03-1.15,3.05-3.07,3.05-3.06-1.39-3.06-3.05Zm4.55,0c0-.9-.54-1.68-1.49-1.68s-1.48,.78-1.48,1.68,.53,1.69,1.48,1.69,1.49-.78,1.49-1.69Z"/>
      <path class="cls-1" d="M265.61,53.03v-.73c-.4,.44-1.09,.88-2.04,.88-1.27,0-1.87-.7-1.87-1.82v-4.11h1.52v3.51c0,.8,.42,1.07,1.07,1.07,.59,0,1.05-.32,1.32-.66v-3.92h1.52v5.79h-1.52Z"/>
      <path class="cls-1" d="M235.85,65.61c.42,.4,1.28,.79,2,.79,.66,0,.97-.23,.97-.59,0-.41-.5-.55-1.16-.68-1-.19-2.28-.43-2.28-1.81,0-.97,.85-1.82,2.38-1.82,.98,0,1.76,.34,2.33,.79l-.6,1.04c-.35-.37-1.01-.67-1.71-.67-.55,0-.91,.2-.91,.54,0,.36,.46,.49,1.1,.62,1,.19,2.33,.46,2.33,1.9,0,1.07-.9,1.86-2.51,1.86-1.01,0-1.98-.34-2.59-.9l.66-1.07Z"/>
      <path class="cls-1" d="M241.72,65.99v-3.02h-.96v-1.33h.96v-1.58h1.54v1.58h1.18v1.33h-1.18v2.61c0,.36,.19,.64,.53,.64,.23,0,.44-.08,.53-.17l.32,1.15c-.23,.2-.64,.37-1.27,.37-1.07,0-1.64-.55-1.64-1.58Z"/>
      <path class="cls-1" d="M245.48,67.43v-5.79h1.52v.79c.41-.52,1.13-.92,1.85-.92v1.49c-.11-.02-.25-.04-.42-.04-.5,0-1.18,.28-1.43,.65v3.83h-1.52Z"/>
      <path class="cls-1" d="M249.43,64.53c0-1.64,1.15-3.03,3.06-3.03s3.07,1.39,3.07,3.03-1.15,3.05-3.07,3.05-3.06-1.39-3.06-3.05Zm4.55,0c0-.9-.54-1.68-1.49-1.68s-1.48,.78-1.48,1.68,.53,1.69,1.48,1.69,1.49-.78,1.49-1.69Z"/>
      <path class="cls-1" d="M260.6,67.43v-3.5c0-.8-.42-1.08-1.07-1.08-.6,0-1.07,.34-1.32,.68v3.9h-1.52v-5.79h1.52v.76c.37-.44,1.08-.9,2.03-.9,1.27,0,1.88,.72,1.88,1.85v4.09h-1.52Z"/>
      <path class="cls-1" d="M264.2,67.81c.47,.52,1.08,.72,1.81,.72s1.6-.32,1.6-1.46v-.59c-.46,.58-1.08,.91-1.79,.91-1.45,0-2.55-1.02-2.55-2.95s1.09-2.95,2.55-2.95c.7,0,1.32,.3,1.79,.89v-.74h1.54v5.4c0,2.21-1.7,2.75-3.13,2.75-1,0-1.77-.23-2.49-.86l.68-1.1Zm3.41-4.31c-.25-.38-.8-.66-1.31-.66-.86,0-1.46,.6-1.46,1.6s.6,1.6,1.46,1.6c.5,0,1.06-.29,1.31-.66v-1.87Z"/>
      <path class="cls-1" d="M273.28,61.49c1.73,0,2.9,1.29,2.9,3.19v.34h-4.31c.1,.73,.68,1.34,1.67,1.34,.54,0,1.17-.22,1.55-.58l.67,.98c-.59,.54-1.49,.8-2.39,.8-1.76,0-3.09-1.19-3.09-3.05,0-1.68,1.24-3.03,3-3.03Zm-1.43,2.49h2.85c-.04-.55-.42-1.28-1.43-1.28-.95,0-1.36,.71-1.43,1.28Z"/>
      <path class="cls-1" d="M277.29,67.43v-5.79h1.52v.79c.41-.52,1.13-.92,1.85-.92v1.49c-.11-.02-.25-.04-.42-.04-.5,0-1.17,.28-1.43,.65v3.83h-1.52Z"/>
    </g>
    <g>
      <path class="cls-1" d="M343.78,68.25v-8h1.7v8h-1.7Z"/>
      <path class="cls-1" d="M347.34,66.81v-3.02h-.96v-1.33h.96v-1.58h1.54v1.58h1.18v1.33h-1.18v2.61c0,.36,.19,.64,.53,.64,.23,0,.44-.08,.53-.17l.32,1.15c-.23,.2-.64,.37-1.27,.37-1.07,0-1.64-.55-1.64-1.58Z"/>
      <path class="cls-1" d="M352.7,60.66c-.38,.2-.83,.71-.94,1.14,.04-.02,.14-.04,.24-.04,.46,0,.82,.35,.82,.86s-.43,.95-.95,.95c-.56,0-1.08-.44-1.08-1.22,0-.9,.5-1.7,1.25-2.22l.66,.53Z"/>
      <path class="cls-1" d="M353.95,66.43c.42,.4,1.28,.79,2,.79,.66,0,.97-.23,.97-.59,0-.41-.5-.55-1.16-.68-1-.19-2.28-.43-2.28-1.81,0-.97,.85-1.82,2.38-1.82,.98,0,1.76,.34,2.33,.79l-.6,1.04c-.35-.37-1.01-.67-1.71-.67-.55,0-.91,.2-.91,.54,0,.36,.46,.49,1.1,.62,1,.19,2.33,.46,2.33,1.9,0,1.07-.9,1.86-2.51,1.86-1.01,0-1.98-.34-2.59-.9l.66-1.07Z"/>
      <path class="cls-1" d="M338.21,81.21v-3.02h-.96v-1.33h.96v-1.58h1.54v1.58h1.18v1.33h-1.18v2.61c0,.36,.19,.64,.53,.64,.23,0,.44-.08,.53-.17l.32,1.15c-.23,.2-.64,.37-1.27,.37-1.07,0-1.64-.55-1.64-1.58Z"/>
      <path class="cls-1" d="M344.6,76.71c1.73,0,2.9,1.29,2.9,3.19v.34h-4.31c.1,.73,.68,1.34,1.67,1.34,.54,0,1.17-.22,1.55-.58l.67,.98c-.59,.54-1.49,.8-2.39,.8-1.76,0-3.09-1.19-3.09-3.05,0-1.68,1.24-3.03,3-3.03Zm-1.43,2.49h2.85c-.04-.55-.42-1.28-1.43-1.28-.95,0-1.36,.71-1.43,1.28Z"/>
      <path class="cls-1" d="M352.09,82.65v-.6c-.4,.47-1.08,.74-1.84,.74-.92,0-2.01-.62-2.01-1.92s1.09-1.85,2.01-1.85c.77,0,1.45,.24,1.84,.71v-.8c0-.59-.5-.97-1.27-.97-.62,0-1.2,.23-1.69,.68l-.58-1.02c.71-.62,1.62-.91,2.53-.91,1.32,0,2.53,.53,2.53,2.19v3.74h-1.52Zm0-2.11c-.25-.34-.73-.5-1.22-.5-.6,0-1.09,.32-1.09,.88s.49,.85,1.09,.85c.49,0,.97-.17,1.22-.5v-.72Z"/>
      <path class="cls-1" d="M362.31,82.65v-3.66c0-.54-.24-.92-.86-.92-.54,0-.98,.36-1.2,.67v3.91h-1.54v-3.66c0-.54-.24-.92-.86-.92-.53,0-.97,.36-1.2,.68v3.9h-1.52v-5.79h1.52v.76c.24-.35,1.01-.9,1.9-.9s1.39,.4,1.61,1.06c.34-.53,1.1-1.06,1.99-1.06,1.07,0,1.7,.56,1.7,1.75v4.19h-1.54Z"/>
      <path class="cls-1" d="M343.29,97.05l-1.22-3.95-1.22,3.95h-1.63l-1.76-5.79h1.58l1.08,3.9,1.27-3.9h1.36l1.27,3.9,1.08-3.9h1.58l-1.76,5.79h-1.62Z"/>
      <path class="cls-1" d="M347.06,94.15c0-1.64,1.15-3.03,3.06-3.03s3.07,1.39,3.07,3.03-1.15,3.05-3.07,3.05-3.06-1.39-3.06-3.05Zm4.55,0c0-.9-.54-1.68-1.49-1.68s-1.48,.78-1.48,1.68,.53,1.69,1.48,1.69,1.49-.78,1.49-1.69Z"/>
      <path class="cls-1" d="M354.32,97.05v-5.79h1.52v.79c.41-.52,1.13-.92,1.85-.92v1.49c-.11-.02-.25-.04-.42-.04-.5,0-1.17,.28-1.43,.65v3.83h-1.52Z"/>
      <path class="cls-1" d="M362.39,97.05l-1.54-2.23-.7,.74v1.49h-1.52v-8h1.52v4.79l2.2-2.58h1.87l-2.29,2.63,2.36,3.17h-1.91Z"/>
    </g>
  </g>
</svg>