<?xml version="1.0" encoding="UTF-8"?>
<svg id="Ebene_2" data-name="Ebene 2" xmlns="http://www.w3.org/2000/svg" xmlns:xlink="http://www.w3.org/1999/xlink" viewBox="0 0 214.17 234.65">
  <defs>
    <style>
      .cls-1 {
        clip-path: url(#clippath);
      }

      .cls-2 {
        fill: none;
      }

      .cls-3 {
        fill: #47378d;
      }
    </style>
    <clipPath id="clippath">
      <rect class="cls-2" width="214.17" height="234.65"/>
    </clipPath>
  </defs>
  <g id="couples">
    <g class="cls-1">
      <path class="cls-3" d="M250.32,388.5c-1.1-5.52-2.02-10.07-.46-11.63s-1.32-14.99-1.32-14.99c0,0-.12-.96-7.68-.96s-10.79,3.84-10.79,3.84c-3.36,.72-10.79-.72-25.79-12.71-14.99-11.99-20.15-15.71-33.56-17.51,0-3.24-2.3-13.55-3.5-21.23-1.2-7.68,1.32-22.67,1.32-22.67,0,0,7.32,.12,11.15-3.72-2.4-7.56-5.88-27.11-1.44-43.3,4.44-16.19,1.44-23.03-1.44-30.1-2.88-7.08-2.94-9.18-.36-11.75s-.72-6.12,2.28-10.79c3-4.68,8.28-11.15,6.96-21.23-1.32-10.07-17.99-12.59-19.55-16.67-1.56-4.08,4.92-24.71,6.24-29.38,1.32-4.68,3.06-11.21,4.44-12.59,1.38-1.38,.12,4.2,.12,4.2,0,0,4.32,3.72,12.23-2.4,7.92-6.12,7.08-34.78,4.2-52.17-2.88-17.39-14.15-20.27-27.71-22.19-13.55-1.92-20.51,2.64-19.55,8.87,0,0-2.58,2.61-4,4.46-1.86,2.4,.13,6.06-1.14,7.33-1.26,1.26-2.27,3.41-6.44,6.19-4.17,2.78-2.4,3.54-1.01,4.93,1.39,1.39,2.91,2.4,1.52,2.4s-2.15,2.27-.63,3.79c-.82-.82-2.34,.95-1.26,2.02,1.07,1.07,.57,3.47-.63,4.67-1.2,1.2-.38,3.54,3.61,4.8,3.99,1.26,10.1,1.83,11.3,3.03,1.2,1.2-1.26,3.92-1.26,3.92-21.73-1.64-53.19-16.21-56.52-18.29-3.32-2.07-3.56-2.66-4.03-3.83-.47-1.17,.08-4.93,.86-4.93s1.8-1.92,.82-2.89c.63-.27,.82-1.17,.43-2.54-.39-1.37,1.06-2.71,3.58-2.71s0-6.36-1.8-9.23c-1.8-2.88-.36-4.56,.48-7.44,.84-2.88-.6-10.67-.6-10.67,0,0-.72-3.36,3.12-2.4-1.2-5.88-4.56-11.39-19.91-17.39-15.35-6-23.51-1.68-23.51,3.36-4.68-2.16-12.71,4.56-13.55,16.43-.76,10.74,3.48,17.51,5.64,19.67,2.16,2.16,4.32,7.68,3.12,7.68s-11.63-1.92-13.31-1.92-7.8,4.44-7.8,7.32-2.04,3.24-2.76,6.84c-.72,3.6,1.38,8.22,2.64,9.48s-1.2,10.43-1.2,14.51,2.64,3.6,2.64,3.6c1.08,1.08,1.56,3.96,2.64,2.88,1.08-1.08,2.04-2.04,.72-6-.78-2.33,.12-8.16,.84-10.67,.72-2.52,4.32-7.92,4.32-5.28s2.4,4.8,3.96,3.24c0-2.52,1.44-4.32,2.04-6.72,.6-2.4,2.52-3.96,3.24-1.8,.72,2.16-7.08,20.03-10.19,32.02-3.12,11.99,3.36,34.54,7.44,41.26,4.08,6.72,9.24,33.58,13.5,42.94,4.26,9.35,9.83,11.81,7.49,14.15s-3.6,13.67-2.76,19.43c.84,5.76,9,28.66,12.59,30.34,3.6,1.68,6.9,5.1,3.72,8.28-3.18,3.18,.84,23.27,1.68,36.7,.84,13.43-3.6,24.35-4.8,32.38-1.2,8.04-5.64,12.83-9,28.78-3.36,15.95-2.04,50.13-1.32,56.61,.72,6.48-4.32,13.79-6.6,20.51-2.28,6.72,0,19.79,0,19.79l15.23,1.2s-.72-.6,2.64-1.44c3.36-.84,12.83,5.28,29.74,5.28s23.63-3.84,23.63-6.36c4.2,0,14.87-.12,22.43-2.52,3.16-1,1.92,1.2,4.56,1.2,3.72,0,17.15,.12,17.15-2.28s1.56-9.24,1.56-11.39-4.2-10.43-2.76-22.07c1.44-11.63,10.79-42.7,8.52-58.29,8.16,1.8,36.34,18.35,44.62,24.59,8.28,6.24,9.47,8.16,14.63,13.31,5.16,5.16,7.2,12.23,8.16,15.83,0,0,.36,5.64,3.48,5.64,6.96,0,3.84-27.11,2.74-32.62ZM124.67,113.39c-1.39,2.78-7.58,7.33-11.62,7.33s-25.65-22.87-26.41-27.04c7.83,6.32,33.48,15.16,38.03,19.71Zm16.56,322.88c-8.13,4.42-12.26,5.03-12.26,5.03,0,0-.4-4.42-7.84-3.62s-13.07-1.41-16.89-3.02c-3.82-1.61-9.05-6.23-9.05-16.69s14.88-58.5,16.48-66.54,4.83-30.56,7.84-30.56c-1.01,6.43-2.87,21.31,12.33,24.53,15.21,3.22,16.82,6.63,16.82,6.63,0,0,.55,23.52,2.29,34.58,1.73,11.06,3.67,42.38-9.72,49.66Z"/>
    </g>
  </g>
</svg>