<?xml version="1.0" encoding="UTF-8"?>
<svg id="Ebene_2" data-name="Ebene 2" xmlns="http://www.w3.org/2000/svg" xmlns:xlink="http://www.w3.org/1999/xlink" viewBox="0 0 1386.8 1004.24">
  <defs>
    <style>
      .cls-1 {
        fill: #fff;
      }

      .cls-2 {
        fill: url(#Unbenannter_Verlauf);
      }

      .cls-3 {
        clip-path: url(#clippath);
      }

      .cls-4 {
        fill: none;
      }
    </style>
    <clipPath id="clippath">
      <rect class="cls-4" width="1386.8" height="1004.24"/>
    </clipPath>
    <linearGradient id="Unbenannter_Verlauf" data-name="Unbenannter Verlauf" x1="411.37" y1="-1081.02" x2="2000.61" y2="-163.48" gradientTransform="translate(0 658)" gradientUnits="userSpaceOnUse">
      <stop offset="0" stop-color="#ff6659"/>
      <stop offset="1" stop-color="#e72c83"/>
    </linearGradient>
  </defs>
  <g id="Ebene_2-2" data-name="Ebene 2">
    <g>
      <g class="cls-3">
        <g id="_Ńëîé_1" data-name=" Ńëîé 1">
          <path class="cls-2" d="M194.95,366.13c55.9-13.4,55.5-122.1,121.8-163.2,66.6-41.3,178.6-2.4,202.8,9,33.1,15.5,64.6,44.4,102,29.8,34.5-13.4,58.6-51.3,78.3-80.1,40.8-59.8,43.3-125.2,44.7-196.1,.8-41-5.5-70.1,39.2-43,18.3,11.1,27.7,26.4,48.4,32.1,21.2,5.9,50.2,5.2,72.1,3.7,68.9-4.7,133.9-24,203.5-14.9,63.1,8.2,129.2,27.9,192.8,24.6,37.9-2,76.1-10,113.3-17.1,35-6.7,68.6-4.4,103.7-8.8,29.1-3.7,80.6-13.2,104.8-29.3,12.5-8.3,15.2-26,26.1-36.6,12.1-11.8,27.1-15.8,43.8-22.2,65.5-25.2,139.9-.5,204.7-24.2,30.2-11,57.3-39.9,85-56.5,29.3-17.6,61.4-31,90.1-49.6,32.3-20.9,60.6-46.6,96.8-61.6,28.8-12,58.6-14.5,86.6-28.9,63.2-32.4,128.4-58.5,192.3-89.6,29.4-14.3,59.6-44.8,94.1-40.5,53.2,6.7,.1,37.2-24.6,49.9-64.1,33.1-115.9,67.4-171.8,113.1-24.3,19.9-48.6,37.5-74.7,55.1-15.6,10.5-34.2,20-48.2,32.5-12.7,11.3-20.5,28.8-36.2,36.9-16.8,8.6-39.5,2.1-56.5,9.6-13.7,6-28.1,22.8-39.1,33.2-22.4,21.1-41.7,44.9-60.9,69-25.2,31.5-44.2,61.7-86.2,72.6-43.1,11.1-64.3-8.6-94.6,27.7-36.9,44.2-43.5,132.6-28.5,188.6,11.2,41.9,37.7,82.8,64.9,115.4,13.7,16.4,27,36.3,43.4,50,14,11.7,27.7,13.9,43.6,23.5,35,21.2,34.3,43,34.3,81.6-45.5-20-99.8-73.7-149.5-53.4-28.2,11.5-31.4,28.5-46.5,49.4-19.2,26.7-26.5,34.7-55.7,21.6-23-10.3-36.9-31.3-59.2-39.9-19.6-7.6-51.5-9.1-71.7-5-66.9,13.5-87,52.3-102.8,112.3-5.7,21.7-17.5,32.3-25.3,50.5-12.3,28.7-5.6,63.3-41.4,73.2-16.7,4.7-13-1.4-30.3-3.4-21.4-2.5-11.8-5.8-31.3,0-19.4,5.8-40.4,21.2-54.8,34.6-41.9,39-64.9,97.9-103.1,137-34.1,34.8-95.1,43-140.4,39.8-21.9-1.6-49.1-4.1-69.4-11.8-26.2-9.8-45.7-30-74.2-36.8-43.4-10.3-103.3,31.4-112.6,75.6-6.2,29.4,19.7,45.1,11.5,74.1-6.6,23.3-35,25.7-61.7,24.3-63.2-3.2-71-46-96.3-93-13.4-25-22.9-33.6-54-38.5-28.6-4.5-64.5-1.1-93.4-1.7-46-.9-116,11.1-159.8-4.4-50.3-17.8-88.3-72.7-140.4-92.1-17.1-6.4-37.1-4.4-51.5-14.1-17.6-11.8-48-55.1-56.3-75.1-9.7-23.4-4.8-52.9-13.7-76.9-5.2-14.1-15.9-35-26-46.8-8.5-9.9-27-15.8-33.1-26.7-10.4-18.6-1.6-63.3-2.5-86.1-1.2-28.9-6.6-62.9-21.8-88.3C25.85,337.73-2.95,329.93,.25,297.93c3.8-38.1,36.1-36.2,59.8-13.4,22.3,21.5,21,29.9,48.2,54.1,11.4,10.1,28.8,25.3,54.5,29,.1,0,16,2.4,32.2-1.5Z"/>
        </g>
      </g>
      <path class="cls-1" d="M857.15,838.43c-1.1-1.5-2.2-3-3.3-4.5-3.6-5.1-6.9-10.4-9.6-16.1-1.3-2.8-2.5-5.6-3.1-8.7-1.1-5.7,.2-10.8,4.1-15.2,3.7-4.2,8.5-6.1,14.1-5.9,7.8,.3,14.6,6.2,16.2,13.9,.6,3.1,.4,6.2-.5,9.3-1.9,6.1-5,11.6-8.4,17-2.5,3.8-5.2,7.5-7.8,11.2-.1,.1-.1,.2-.2,.3-.3,.1-.9-.5-1.5-1.3h0Zm9.7-32.5c.2-4.4-3.5-8.6-7.9-8.8-5.1-.3-9,3.3-9.3,8.4-.2,4.4,3.5,8.6,8,8.8,5.1,.1,9-3.5,9.2-8.4h0Z"/>
      <path class="cls-1" d="M171.05,685.73c-1.1-1.5-2.2-3-3.3-4.5-3.6-5.1-6.9-10.4-9.6-16.1-1.3-2.8-2.5-5.6-3.1-8.7-1.1-5.7,.2-10.8,4.1-15.2,3.7-4.2,8.5-6.1,14.1-5.9,7.8,.3,14.6,6.2,16.2,13.9,.6,3.1,.4,6.2-.5,9.3-1.9,6.1-5,11.6-8.4,17-2.5,3.8-5.2,7.5-7.8,11.2-.1,.1-.1,.2-.2,.3-.3,.1-.9-.4-1.5-1.3h0Zm9.7-32.5c.2-4.4-3.5-8.6-7.9-8.8-5.1-.3-9,3.3-9.3,8.4-.2,4.4,3.5,8.6,8,8.8,5.1,.2,9-3.4,9.2-8.4h0Z"/>
      <g>
        <path class="cls-1" d="M198.35,695.63h-4.1v6.8h-6v-18.7h9.9c5.1,0,7.9,2.2,7.9,6,.1,3.4-2.3,5.9-7.7,5.9Zm-1-7.6h-3.1v4.4h3.1c1.9,0,2.7-1,2.7-2.3,.1-1.2-.7-2.1-2.7-2.1Z"/>
        <path class="cls-1" d="M222.45,701.73c-.8,.6-1.8,1-3.3,1-2.6,0-3.5-1.2-3.8-2.4-.7,1.7-2.3,2.4-4.4,2.4-2.4,0-3.9-1.3-3.9-3.5s2-3.2,5.1-3.2c.9,0,2,.1,3.1,.2v-2.3c0-1-.4-1.6-1.2-1.6s-1.2,.5-1.2,1.1c0,.3,.1,.5,.2,.8l-5.2,1.2c-.4-.8-.6-1.5-.6-2.2,0-2.5,2.5-4.1,7-4.1s6.7,1.8,6.7,5.4v4.4c0,.6,.2,1,.9,1,.3,0,.5,0,.7-.1v1.9h-.1Zm-7.3-4.1c-1.6,.2-2.5,.5-2.5,1.5,0,.5,.4,.9,1,.9,1.2,0,1.5-1.1,1.5-2.1v-.3Z"/>
        <path class="cls-1" d="M234.15,702.73c-1.9,0-3.5-1.2-4.1-2.9v7.3h-5.8v-17.6h3.3l1.3,3.7c.6-2.1,2.3-3.9,4.8-3.9,4.1,0,5.7,3.4,5.7,6.8s-1.6,6.6-5.2,6.6Zm-2.3-10.2c-1.1,0-1.8,1.3-1.8,3.4s.6,3.4,1.8,3.4,1.8-1.2,1.8-3.4-.7-3.4-1.8-3.4Z"/>
        <path class="cls-1" d="M250.45,702.43v-7.6c0-.9-.4-1.4-1.2-1.4-1.5,0-2,2-2,5v3.9h-5.8v-18.6h5.8v9.4c.6-2.6,2.2-4.1,4.2-4.1,3.3,0,4.8,2.2,4.8,6.1v7.2h-5.8v.1Z"/>
        <path class="cls-1" d="M265.85,702.73c-4.5,0-7.7-2.7-7.7-6.8s3.2-6.8,7.7-6.8,7.7,2.7,7.7,6.8-3.2,6.8-7.7,6.8Zm0-10.2c-1.1,0-1.9,.9-1.9,3.4s.8,3.4,1.9,3.4,1.9-.9,1.9-3.4-.7-3.4-1.9-3.4Z"/>
        <path class="cls-1" d="M281.35,702.73c-2.6,0-5.2-.9-6.7-2.1l1.5-2.7c1.3,.9,2.8,1.6,4.3,1.6,.9,0,1.3-.3,1.3-.7s-.3-.7-1.5-1.1c-4.2-1.2-5-2.6-5-4.6,0-2.4,2.2-4,6-4,2.1,0,4.2,.4,6.1,1.8l-1.4,2.7c-1.3-.8-2.7-1.3-4-1.3-.7,0-1.1,.2-1.1,.6,0,.5,.3,.7,2.3,1.3,2.9,.8,4.2,2,4.2,4.3,0,2.3-2.1,4.2-6,4.2Z"/>
      </g>
      <g>
        <path class="cls-1" d="M717.15,854.43v-18.6h6v14.3h8.7v4.4h-14.7v-.1Z"/>
        <path class="cls-1" d="M733.95,840.13v-4.3h5.8v4.3h-5.8Zm0,14.3v-13h5.8v13h-5.8Z"/>
        <path class="cls-1" d="M751.85,854.43v-7.6c0-.9-.4-1.4-1.2-1.4-1.5,0-2,2-2,5v3.9h-5.8v-13h4.1l1.1,4.5c.7-3.2,2.2-4.8,4.8-4.8,2.8,0,4.3,1.7,4.6,4.8,.4-2.6,1.8-4.8,4.3-4.8,3.2,0,4.7,2.2,4.7,6.1v7.2h-5.8v-7.6c0-.9-.4-1.4-1.2-1.4-1.5,0-2,2-2,5v3.9h-5.6v.2Z"/>
        <path class="cls-1" d="M784.45,853.73c-.8,.6-1.8,1-3.3,1-2.6,0-3.5-1.2-3.8-2.4-.7,1.7-2.3,2.4-4.4,2.4-2.4,0-3.9-1.3-3.9-3.5s2-3.2,5.1-3.2c.9,0,2,.1,3.1,.2v-2.3c0-1-.4-1.6-1.2-1.6s-1.2,.5-1.2,1.1c0,.3,.1,.5,.2,.8l-5.2,1.2c-.4-.8-.6-1.5-.6-2.2,0-2.5,2.5-4.1,7-4.1s6.7,1.8,6.7,5.4v4.4c0,.6,.2,1,.9,1,.3,0,.5,0,.7-.1v1.9h-.1Zm-7.3-4c-1.6,.2-2.5,.5-2.5,1.5,0,.5,.4,.9,1,.9,1.2,0,1.5-1.1,1.5-2.1v-.3Z"/>
        <path class="cls-1" d="M791.85,854.73c-2.6,0-5.2-.9-6.7-2.1l1.5-2.7c1.3,.9,2.8,1.6,4.3,1.6,.9,0,1.3-.3,1.3-.7s-.3-.7-1.5-1.1c-4.2-1.2-5-2.6-5-4.6,0-2.4,2.2-4,6-4,2.1,0,4.2,.4,6.1,1.8l-1.4,2.7c-1.3-.8-2.7-1.3-4-1.3-.7,0-1.1,.2-1.1,.6,0,.5,.3,.7,2.3,1.3,2.9,.8,4.2,2,4.2,4.3,.1,2.4-2,4.2-6,4.2Z"/>
        <path class="cls-1" d="M805.65,854.73c-2.6,0-5.2-.9-6.7-2.1l1.5-2.7c1.3,.9,2.8,1.6,4.3,1.6,.9,0,1.3-.3,1.3-.7s-.3-.7-1.5-1.1c-4.2-1.2-5-2.6-5-4.6,0-2.4,2.2-4,6-4,2.1,0,4.2,.4,6.1,1.8l-1.4,2.7c-1.3-.8-2.7-1.3-4-1.3-.7,0-1.1,.2-1.1,.6,0,.5,.3,.7,2.3,1.3,2.9,.8,4.2,2,4.2,4.3,0,2.4-2.1,4.2-6,4.2Z"/>
        <path class="cls-1" d="M820.55,854.73c-4.5,0-7.7-2.7-7.7-6.8s3.2-6.8,7.7-6.8,7.7,2.7,7.7,6.8-3.2,6.8-7.7,6.8Zm0-10.2c-1.1,0-1.9,.9-1.9,3.4s.8,3.4,1.9,3.4,1.9-.9,1.9-3.4-.8-3.4-1.9-3.4Z"/>
        <path class="cls-1" d="M830.35,854.43v-18.6h5.8v18.6h-5.8Z"/>
      </g>
    </g>
  </g>
</svg>