<?xml version="1.0" encoding="UTF-8"?>
<svg id="Ebene_2" data-name="Ebene 2" xmlns="http://www.w3.org/2000/svg" xmlns:xlink="http://www.w3.org/1999/xlink" viewBox="0 0 2564.42 1501.45">
  <defs>
    <style>
      .cls-1 {
        fill: #fff;
      }

      .cls-2 {
        fill: url(#Unbenannter_Verlauf);
      }
    </style>
    <linearGradient id="Unbenannter_Verlauf" data-name="Unbenannter Verlauf" x1="411.35" y1="1425.56" x2="2000.34" y2="508.15" gradientTransform="translate(0 1499.95) scale(1 -1)" gradientUnits="userSpaceOnUse">
      <stop offset="0" stop-color="#ff6659"/>
      <stop offset="1" stop-color="#e72c83"/>
    </linearGradient>
  </defs>
  <g id="Ebene_2-2" data-name="Ebene 2">
    <g id="_Ńëîé_1" data-name=" Ńëîé 1">
      <path class="cls-2" d="M194.98,863.43c55.86-13.35,55.47-122.05,121.76-163.18,66.61-41.32,178.59-2.37,202.82,8.99,33.1,15.52,64.64,44.37,102,29.84,34.55-13.44,58.62-51.28,78.27-80.06,40.81-59.8,43.33-125.15,44.69-196.09,.79-40.97-5.45-70.11,39.17-42.96,18.3,11.14,27.71,26.38,48.39,32.1,21.2,5.87,50.15,5.17,72.06,3.67,68.88-4.73,133.88-23.97,203.54-14.87,63.06,8.23,129.18,27.9,192.76,24.59,37.92-1.97,76.06-10.03,113.26-17.12,35.02-6.67,68.58-4.36,103.67-8.85,29.09-3.72,80.56-13.18,104.84-29.28,12.46-8.26,15.22-25.96,26.07-36.62,12.06-11.84,27.07-15.81,43.82-22.25,65.52-25.2,139.9-.54,204.7-24.21,30.16-11.02,57.27-39.87,85.02-56.5,29.35-17.58,61.36-31.04,90.07-49.63,32.34-20.93,60.56-46.57,96.75-61.62,28.79-11.97,58.59-14.49,86.62-28.87,63.17-32.39,128.45-58.51,192.26-89.64,29.39-14.34,59.57-44.79,94.05-40.45,53.25,6.7,.05,37.16-24.63,49.88-64.13,33.06-115.91,67.4-171.81,113.14-24.32,19.9-48.6,37.53-74.68,55.11-15.58,10.5-34.17,19.99-48.21,32.49-12.67,11.28-20.54,28.84-36.21,36.9-16.75,8.62-39.51,2.1-56.46,9.56-13.74,6.05-28.06,22.81-39.06,33.19-22.37,21.11-41.7,44.92-60.94,68.99-25.18,31.51-44.17,61.7-86.15,72.55-43.11,11.15-64.26-8.61-94.56,27.75-36.88,44.25-43.5,132.61-28.48,188.61,11.24,41.89,37.66,82.83,64.87,115.43,13.68,16.39,27.02,36.26,43.45,49.99,14.02,11.71,27.74,13.93,43.62,23.52,35.03,21.15,34.31,43.04,34.31,81.58-45.48-20.01-99.84-73.66-149.46-53.43-28.23,11.51-31.4,28.47-46.5,49.42-19.22,26.66-26.51,34.71-55.74,21.61-22.98-10.3-36.87-31.34-59.18-39.92-19.63-7.56-51.53-9.1-71.72-5.02-66.92,13.53-87.02,52.27-102.81,112.29-5.72,21.72-17.49,32.26-25.32,50.52-12.29,28.66-5.57,63.26-41.45,73.23-16.73,4.65-13.01-1.39-30.31-3.41-21.4-2.5-11.81-5.8-31.35,0-19.38,5.75-40.44,21.2-54.82,34.6-41.91,39.03-64.9,97.87-103.1,136.96-34.06,34.85-95.13,43.01-140.41,39.8-21.94-1.56-49.14-4.14-69.44-11.76-26.17-9.82-45.74-30.03-74.25-36.82-43.38-10.33-103.27,31.37-112.58,75.55-6.19,29.41,19.69,45.12,11.54,74.07-6.57,23.34-35.02,25.69-61.69,24.35-63.22-3.18-71.04-45.96-96.3-93.01-13.44-25.03-22.91-33.58-54.05-38.46-28.6-4.49-64.46-1.11-93.37-1.71-46-.95-116,11.07-159.78-4.36-50.34-17.75-88.27-72.65-140.43-92.14-17.12-6.4-37.08-4.44-51.53-14.14-17.62-11.83-48.01-55.14-56.3-75.07-9.73-23.38-4.75-52.94-13.65-76.91-5.24-14.12-15.95-35.04-26.01-46.82-8.46-9.91-27.04-15.77-33.14-26.69-10.38-18.58-1.58-63.29-2.55-86.06-1.23-28.86-6.64-62.92-21.75-88.33-13.33-22.4-42.16-30.25-38.93-62.18,3.85-38.14,36.13-36.25,59.85-13.41,22.34,21.51,20.96,29.85,48.17,54.08,11.39,10.14,28.8,25.26,54.54,29.02,0,0,15.98,2.34,32.17-1.53Z"/>
    </g>
    <path class="cls-1" d="M857.18,1335.74c-1.11-1.52-2.21-3-3.25-4.49-3.61-5.13-6.95-10.42-9.64-16.1-1.32-2.79-2.54-5.63-3.13-8.67-1.11-5.7,.21-10.81,4.06-15.17,3.72-4.19,8.48-6.11,14.07-5.88,7.8,.32,14.61,6.19,16.2,13.86,.65,3.15,.44,6.23-.53,9.29-1.94,6.1-4.98,11.65-8.45,16.96-2.48,3.8-5.18,7.45-7.79,11.17-.06,.09-.13,.17-.22,.27-.13,.14-.72-.41-1.33-1.24h0Zm9.72-32.54c.23-4.44-3.46-8.58-7.86-8.82-5.08-.28-9.02,3.25-9.29,8.37-.24,4.44,3.53,8.56,8.03,8.77,4.95,.24,8.87-3.35,9.12-8.32h0Z"/>
    <path class="cls-1" d="M171.09,1183.06c-1.11-1.52-2.21-3-3.25-4.49-3.61-5.13-6.95-10.42-9.64-16.1-1.32-2.79-2.54-5.63-3.13-8.67-1.11-5.7,.21-10.81,4.06-15.17,3.72-4.19,8.48-6.11,14.07-5.88,7.8,.32,14.61,6.19,16.2,13.86,.65,3.15,.44,6.23-.53,9.29-1.94,6.1-4.98,11.65-8.45,16.96-2.48,3.8-5.18,7.45-7.79,11.17-.06,.09-.13,.17-.22,.27-.13,.14-.72-.41-1.33-1.24h0Zm9.72-32.54c.23-4.44-3.46-8.58-7.86-8.82-5.08-.28-9.02,3.25-9.29,8.37-.24,4.44,3.53,8.56,8.03,8.77,4.95,.24,8.87-3.35,9.12-8.32h0Z"/>
    <g>
      <path class="cls-1" d="M198.36,1192.9h-4.06v6.8h-5.99v-18.65h9.91c5.1,0,7.92,2.21,7.92,6.05,0,3.3-2.35,5.8-7.78,5.8Zm-.95-7.53h-3.11v4.42h3.11c1.93,0,2.74-1.04,2.74-2.27s-.84-2.16-2.74-2.16Z"/>
      <path class="cls-1" d="M222.47,1199.01c-.76,.62-1.82,.98-3.3,.98-2.63,0-3.53-1.2-3.81-2.41-.73,1.65-2.3,2.41-4.42,2.41-2.41,0-3.95-1.34-3.95-3.53,0-2.32,1.99-3.25,5.1-3.25,.92,0,1.96,.08,3.05,.22v-2.32c0-1.01-.42-1.57-1.23-1.57s-1.18,.48-1.18,1.12c0,.25,.06,.53,.17,.84l-5.15,1.2c-.39-.78-.59-1.54-.59-2.21,0-2.46,2.49-4.12,7.03-4.12s6.72,1.79,6.72,5.38v4.4c0,.64,.17,1.01,.87,1.01,.28,0,.5-.03,.7-.11v1.96Zm-7.31-4.03c-1.6,.22-2.52,.48-2.52,1.46,0,.53,.36,.9,.98,.9,1.23,0,1.54-1.09,1.54-2.1v-.25Z"/>
      <path class="cls-1" d="M234.17,1199.99c-1.88,0-3.5-1.23-4.12-2.94v7.25h-5.77v-17.64h3.3l1.29,3.67c.56-2.13,2.27-3.95,4.84-3.95,4.12,0,5.68,3.42,5.68,6.8,0,3.56-1.65,6.8-5.24,6.8Zm-2.35-10.19c-1.12,0-1.76,1.34-1.76,3.39,0,2.16,.64,3.39,1.79,3.39s1.79-1.2,1.79-3.39-.67-3.39-1.82-3.39Z"/>
      <path class="cls-1" d="M250.49,1199.71v-7.56c0-.87-.36-1.4-1.2-1.4-1.48,0-2.02,1.99-2.02,5.04v3.92h-5.77v-18.65h5.77v9.41c.62-2.58,2.21-4.09,4.2-4.09,3.28,0,4.79,2.24,4.79,6.13v7.2h-5.77Z"/>
      <path class="cls-1" d="M265.89,1199.99c-4.48,0-7.67-2.66-7.67-6.8s3.19-6.8,7.67-6.8,7.67,2.66,7.67,6.8-3.16,6.8-7.67,6.8Zm0-10.19c-1.12,0-1.9,.9-1.9,3.39s.78,3.39,1.9,3.39,1.9-.9,1.9-3.39-.78-3.39-1.9-3.39Z"/>
      <path class="cls-1" d="M281.32,1199.99c-2.6,0-5.21-.9-6.72-2.1l1.51-2.66c1.26,.92,2.8,1.62,4.34,1.62,.9,0,1.29-.25,1.29-.7,0-.39-.28-.73-1.54-1.09-4.23-1.23-4.98-2.58-4.98-4.65,0-2.44,2.16-4.03,6.05-4.03,2.07,0,4.2,.45,6.1,1.82l-1.43,2.66c-1.29-.78-2.72-1.34-4-1.34-.73,0-1.12,.22-1.12,.62,0,.53,.28,.7,2.3,1.26,2.88,.78,4.23,1.99,4.23,4.28,0,2.46-2.1,4.31-6.02,4.31Z"/>
    </g>
    <g>
      <path class="cls-1" d="M717.15,1351.77v-18.65h5.99v14.28h8.74v4.37h-14.73Z"/>
      <path class="cls-1" d="M733.97,1337.4v-4.28h5.77v4.28h-5.77Zm0,14.36v-13.05h5.77v13.05h-5.77Z"/>
      <path class="cls-1" d="M751.81,1351.77v-7.56c0-.87-.36-1.4-1.2-1.4-1.48,0-2.02,1.99-2.02,5.04v3.92h-5.77v-13.05h4.09l1.12,4.54c.7-3.16,2.21-4.82,4.84-4.82,2.8,0,4.34,1.71,4.65,4.82,.36-2.58,1.79-4.82,4.34-4.82,3.19,0,4.7,2.24,4.7,6.13v7.2h-5.77v-7.56c0-.87-.36-1.4-1.2-1.4-1.48,0-2.02,1.99-2.02,5.04v3.92h-5.77Z"/>
      <path class="cls-1" d="M784.43,1351.07c-.76,.62-1.82,.98-3.3,.98-2.63,0-3.53-1.2-3.81-2.41-.73,1.65-2.3,2.41-4.42,2.41-2.41,0-3.95-1.34-3.95-3.53,0-2.32,1.99-3.25,5.1-3.25,.92,0,1.96,.08,3.05,.22v-2.32c0-1.01-.42-1.57-1.23-1.57s-1.18,.48-1.18,1.12c0,.25,.06,.53,.17,.84l-5.15,1.2c-.39-.78-.59-1.54-.59-2.21,0-2.46,2.49-4.12,7.03-4.12s6.72,1.79,6.72,5.38v4.4c0,.64,.17,1.01,.87,1.01,.28,0,.5-.03,.7-.11v1.96Zm-7.31-4.03c-1.6,.22-2.52,.48-2.52,1.46,0,.53,.36,.9,.98,.9,1.23,0,1.54-1.09,1.54-2.1v-.25Z"/>
      <path class="cls-1" d="M791.91,1352.05c-2.6,0-5.21-.9-6.72-2.1l1.51-2.66c1.26,.92,2.8,1.62,4.34,1.62,.9,0,1.29-.25,1.29-.7,0-.39-.28-.73-1.54-1.09-4.23-1.23-4.98-2.58-4.98-4.65,0-2.44,2.16-4.03,6.05-4.03,2.07,0,4.2,.45,6.1,1.82l-1.43,2.66c-1.29-.78-2.72-1.34-4-1.34-.73,0-1.12,.22-1.12,.62,0,.53,.28,.7,2.3,1.26,2.88,.78,4.23,1.99,4.23,4.28,0,2.46-2.1,4.31-6.02,4.31Z"/>
      <path class="cls-1" d="M805.68,1352.05c-2.6,0-5.21-.9-6.72-2.1l1.51-2.66c1.26,.92,2.8,1.62,4.34,1.62,.9,0,1.29-.25,1.29-.7,0-.39-.28-.73-1.54-1.09-4.23-1.23-4.98-2.58-4.98-4.65,0-2.44,2.16-4.03,6.05-4.03,2.07,0,4.2,.45,6.1,1.82l-1.43,2.66c-1.29-.78-2.72-1.34-4-1.34-.73,0-1.12,.22-1.12,.62,0,.53,.28,.7,2.3,1.26,2.88,.78,4.23,1.99,4.23,4.28,0,2.46-2.1,4.31-6.02,4.31Z"/>
      <path class="cls-1" d="M820.58,1352.05c-4.48,0-7.67-2.66-7.67-6.8s3.19-6.8,7.67-6.8,7.67,2.66,7.67,6.8-3.16,6.8-7.67,6.8Zm0-10.19c-1.12,0-1.9,.9-1.9,3.39s.78,3.39,1.9,3.39,1.9-.9,1.9-3.39-.78-3.39-1.9-3.39Z"/>
      <path class="cls-1" d="M830.35,1351.77v-18.65h5.77v18.65h-5.77Z"/>
    </g>
  </g>
</svg>