<?xml version="1.0" encoding="UTF-8"?>
<svg id="Ebene_2" data-name="Ebene 2" xmlns="http://www.w3.org/2000/svg" xmlns:xlink="http://www.w3.org/1999/xlink" viewBox="0 0 292.22 326.24">
  <defs>
    <style>
      .cls-1 {
        fill: #fff;
        opacity: .3;
      }

      .cls-2 {
        clip-path: url(#clippath);
      }

      .cls-3 {
        fill: none;
      }

      .cls-4 {
        fill: #ff6659;
      }
    </style>
    <clipPath id="clippath">
      <rect class="cls-3" width="292.22" height="326.24"/>
    </clipPath>
  </defs>
  <g id="Ebene_1-2" data-name="Ebene 1">
    <g class="cls-2">
      <rect class="cls-4" x="1.38" y=".86" width="292.22" height="326.24"/>
      <path class="cls-1" d="M230.14,35.94l20.64,5.51,7.15,20.13,11.62-17.94,21.36-.58-13.48-16.59,6.04-20.48-19.94,7.67L245.93,1.58l1.14,21.33-16.92,13.03Zm-121.43-4.51c4.26-4.86,3.76-12.24-1.1-16.49-4.85-4.26-12.23-3.77-16.49,1.09-4.24,4.85-3.76,12.23,1.1,16.49,4.85,4.25,12.24,3.77,16.49-1.09ZM60.15,110.2l11.86-2.73,8.98,8.24,1.08-12.13,10.61-5.99-11.21-4.77-2.42-11.94-8.01,9.18-12.09-1.4,6.25,10.45-5.06,11.08ZM165.68,24.18l14.68,15.52,3.38-21.09,19.3-9.16L184.04-.29l-2.75-21.18-15.15,15.07-20.99-3.93,9.65,19.05-10.22,18.76,21.09-3.29Zm-17.29,33.28l-34.83,117.64,52.51-110.88-17.68-6.76ZM232.37-24.39c3.46-3.94,3.06-9.94-.88-13.4-3.95-3.45-9.95-3.05-13.4,.89-3.46,3.95-3.07,9.94,.88,13.4,3.94,3.45,9.95,3.05,13.4-.9ZM57.36,153.35l-9.01,23.5,38.88,2.67-29.87-26.17Zm68.05,31.54l120.11-116.52-20.43-17.92L125.4,184.89Zm158.26-5.08c-4.26,4.85-3.76,12.23,1.1,16.48,4.85,4.25,12.24,3.77,16.49-1.09,4.24-4.85,3.76-12.24-1.1-16.49-4.86-4.25-12.24-3.76-16.5,1.1Zm-140.56,21.17l99.22-43.48-9.03-16.64-90.19,60.11Zm73.3,12.61l-6.2-10.48-4.54,11.31-11.89,2.67,9.35,7.81-1.13,12.12,10.31-6.47,11.18,4.82-2.97-11.81,8.03-9.15-12.16-.81Zm65.96-79.72l9.71-13.46-16.6,.48-9.81-13.38-4.66,15.93-15.77,5.2,13.72,9.35,.06,16.6,13.15-10.16,15.79,5.07-5.58-15.63Zm39.92-51.35c-3.65-3.19-9.19-2.82-12.37,.82-3.19,3.64-2.83,9.19,.82,12.37,3.64,3.19,9.18,2.82,12.36-.82,3.2-3.64,2.84-9.18-.81-12.37ZM105.38,195.41l-62.5-4.29-11.78,30.71,113.36,7.81-39.07-34.23ZM-17.63,348.86l38.17-20.77-29.42-2.02-8.75,22.79Zm14.22-37.06l47.84,3.3,51.43-28-87.49-6.02-11.78,30.72Zm29.04-75.7l-11.79,30.72,105.91,7.3,46.55-25.34-3.71-3.25-136.96-9.42Z"/>
    </g>
  </g>
</svg>