<?xml version="1.0" encoding="UTF-8"?>
<svg id="Ebene_2" data-name="Ebene 2" xmlns="http://www.w3.org/2000/svg" viewBox="0 0 204.09 218.19">
  <defs>
    <style>
      .cls-1 {
        fill: #fff;
        stroke: #fff;
        stroke-linecap: round;
        stroke-linejoin: round;
        stroke-width: 2px;
      }

      .cls-2 {
        opacity: .3;
      }
    </style>
  </defs>
  <g id="Ebene_1-2" data-name="Ebene 1">
    <g class="cls-2">
      <path class="cls-1" d="M1,1c30.41,.62,60.82,1.25,91.23,1.87-.3,6.44-.84,15.2-1.88,25.56-2.64,26.33-6.86,46.56-8.74,55.04-10.51,47.26-27.18,82.98-39.36,108.72-5.06,10.69-9.51,19.33-12.5,24.99-1.5-29.72-4.09-61.25-8.12-94.35C16.27,78.95,9.09,38.23,1,1Z"/>
      <path class="cls-1" d="M111.86,1c30.41,.62,60.82,1.25,91.23,1.87-.3,6.44-.84,15.2-1.88,25.56-2.64,26.33-6.86,46.56-8.74,55.04-10.51,47.26-27.18,82.98-39.36,108.72-5.06,10.69-9.51,19.33-12.5,24.99-1.5-29.72-4.09-61.25-8.12-94.35-5.35-43.89-12.53-84.61-20.62-121.84Z"/>
    </g>
  </g>
</svg>