<?xml version="1.0" encoding="UTF-8"?>
<svg id="Ebene_2" data-name="Ebene 2" xmlns="http://www.w3.org/2000/svg" xmlns:xlink="http://www.w3.org/1999/xlink" viewBox="0 0 1291.71 890.17">
  <defs>
    <style>
      .cls-1 {
        fill: #47378d;
      }

      .cls-2 {
        fill: url(#Unbenannter_Verlauf_9);
      }
    </style>
    <linearGradient id="Unbenannter_Verlauf_9" data-name="Unbenannter Verlauf 9" x1="645.86" y1="890.17" x2="645.86" y2="45.97" gradientUnits="userSpaceOnUse">
      <stop offset=".16" stop-color="#1f1c3c"/>
      <stop offset=".35" stop-color="#1b1935" stop-opacity=".89"/>
      <stop offset=".62" stop-color="#121023" stop-opacity=".6"/>
      <stop offset=".94" stop-color="#030306" stop-opacity=".11"/>
      <stop offset="1" stop-color="#000" stop-opacity="0"/>
    </linearGradient>
  </defs>
  <g id="Ebene_1-2" data-name="Ebene 1">
    <g>
      <g>
        <path class="cls-1" d="M135.17,834.13c-3.78,31.52-30.67,56.04-63.19,56.04s-59.41-24.52-63.19-56.04c27.81-2.98,51.39-20.29,63.19-44.39,11.8,24.1,35.38,41.41,63.19,44.39Z"/>
        <path class="cls-1" d="M215.48,789.74c-11.8,24.1-35.38,41.41-63.19,44.39,3.78,31.52,30.67,56.04,63.19,56.04s59.41-24.52,63.19-56.04c-27.81-2.98-51.39-20.29-63.19-44.39Z"/>
        <path class="cls-1" d="M358.98,789.74c-11.8,24.1-35.38,41.41-63.19,44.39,3.78,31.52,30.67,56.04,63.19,56.04s59.41-24.52,63.19-56.04c-27.81-2.98-51.39-20.29-63.19-44.39Z"/>
        <path class="cls-1" d="M502.48,789.74c-11.8,24.1-35.38,41.41-63.19,44.39,3.78,31.52,30.67,56.04,63.19,56.04s59.41-24.52,63.19-56.04c-27.81-2.98-51.39-20.29-63.19-44.39Z"/>
        <path class="cls-1" d="M645.97,789.74c-11.8,24.1-35.38,41.41-63.19,44.39,3.78,31.52,30.67,56.04,63.19,56.04s59.41-24.52,63.19-56.04c-27.81-2.98-51.39-20.29-63.19-44.39Z"/>
        <path class="cls-1" d="M789.47,789.74c-11.8,24.1-35.38,41.41-63.19,44.39,3.78,31.52,30.67,56.04,63.19,56.04s59.41-24.52,63.19-56.04c-27.81-2.98-51.39-20.29-63.19-44.39Z"/>
        <path class="cls-1" d="M932.97,789.74c-11.8,24.1-35.38,41.41-63.19,44.39,3.78,31.52,30.67,56.04,63.19,56.04s59.41-24.52,63.19-56.04c-27.81-2.98-51.39-20.29-63.19-44.39Z"/>
        <path class="cls-1" d="M1076.47,789.74c-11.8,24.1-35.38,41.41-63.19,44.39,3.78,31.52,30.67,56.04,63.19,56.04s59.41-24.52,63.19-56.04c-27.81-2.98-51.39-20.29-63.19-44.39Z"/>
        <path class="cls-1" d="M1219.96,789.74c-11.8,24.1-35.38,41.41-63.19,44.39,3.78,31.52,30.67,56.04,63.19,56.04s59.41-24.52,63.19-56.04c-27.81-2.98-51.39-20.29-63.19-44.39Z"/>
        <path class="cls-1" d="M63.29,763.46c.05-.36,.09-.72,.14-1.07-5.46-.59-10.76-1.73-15.84-3.36-3.65-1.17-7.18-2.6-10.58-4.26-16.13-7.9-29.22-21.08-37-37.28v100.93c.08,0,.16,0,.24,0,.16,0,.31-.01,.47-.01,2.79-.02,5.54-.23,8.23-.6,28.15-3.87,50.49-26.2,54.35-54.35Z"/>
        <path class="cls-1" d="M206.78,763.46c.05-.36,.09-.72,.14-1.07-5.46-.59-10.76-1.73-15.84-3.36-3.65-1.17-7.18-2.6-10.58-4.26-15.97-7.82-28.95-20.8-36.77-36.77-7.82,15.97-20.8,28.95-36.77,36.77-3.4,1.66-6.93,3.09-10.58,4.26-5.08,1.63-10.37,2.78-15.84,3.36,.04,.36,.09,.72,.14,1.07,3.87,28.15,26.2,50.48,54.35,54.35,.36,.05,.72,.09,1.07,.14,2.35,.28,4.74,.44,7.16,.46,.16,0,.31,.01,.47,.01s.31-.01,.47-.01c2.42-.02,4.81-.18,7.16-.46,.36-.04,.72-.09,1.08-.14,28.15-3.87,50.48-26.2,54.35-54.35Z"/>
        <path class="cls-1" d="M350.28,763.46c.05-.36,.09-.72,.14-1.07-5.46-.59-10.76-1.73-15.84-3.36-3.65-1.17-7.18-2.6-10.58-4.26-15.97-7.82-28.95-20.8-36.77-36.77-7.82,15.97-20.8,28.95-36.77,36.77-3.4,1.66-6.93,3.09-10.58,4.26-5.08,1.63-10.37,2.78-15.84,3.36,.04,.36,.09,.72,.14,1.07,3.87,28.15,26.2,50.48,54.35,54.35,.36,.05,.72,.09,1.08,.14,2.35,.28,4.74,.44,7.16,.46,.16,0,.31,.01,.47,.01s.31-.01,.47-.01c2.42-.02,4.81-.18,7.16-.46,.36-.04,.72-.09,1.07-.14,28.15-3.87,50.49-26.2,54.35-54.35Z"/>
        <path class="cls-1" d="M493.78,763.46c.05-.36,.09-.72,.14-1.07-5.46-.59-10.76-1.73-15.84-3.36-3.65-1.17-7.18-2.6-10.58-4.26-15.97-7.82-28.95-20.8-36.77-36.77-7.82,15.97-20.8,28.95-36.77,36.77-3.4,1.66-6.93,3.09-10.58,4.26-5.08,1.63-10.37,2.78-15.84,3.36,.04,.36,.09,.72,.14,1.07,3.87,28.15,26.2,50.48,54.35,54.35,.36,.05,.72,.09,1.08,.14,2.35,.28,4.74,.44,7.16,.46,.16,0,.31,.01,.47,.01s.31-.01,.47-.01c2.42-.02,4.81-.18,7.16-.46,.36-.04,.72-.09,1.08-.14,28.15-3.87,50.48-26.2,54.35-54.35Z"/>
        <path class="cls-1" d="M637.28,763.46c.05-.36,.09-.72,.14-1.07-5.46-.59-10.76-1.73-15.84-3.36-3.65-1.17-7.18-2.6-10.58-4.26-15.97-7.82-28.95-20.8-36.77-36.77-7.82,15.97-20.8,28.95-36.77,36.77-3.4,1.66-6.93,3.09-10.58,4.26-5.08,1.63-10.37,2.78-15.84,3.36,.04,.36,.09,.72,.14,1.07,3.87,28.15,26.2,50.48,54.35,54.35,.36,.05,.72,.09,1.07,.14,2.35,.28,4.74,.44,7.16,.46,.16,0,.31,.01,.47,.01s.31-.01,.47-.01c2.42-.02,4.81-.18,7.16-.46,.36-.04,.72-.09,1.08-.14,28.15-3.87,50.48-26.2,54.35-54.35Z"/>
        <path class="cls-1" d="M780.77,763.46c.05-.36,.09-.72,.14-1.07-5.46-.59-10.76-1.73-15.84-3.36-3.65-1.17-7.18-2.6-10.58-4.26-15.97-7.82-28.95-20.8-36.77-36.77-7.82,15.97-20.8,28.95-36.77,36.77-3.4,1.66-6.93,3.09-10.58,4.26-5.08,1.63-10.37,2.78-15.84,3.36,.04,.36,.09,.72,.14,1.07,3.87,28.15,26.2,50.48,54.35,54.35,.36,.05,.72,.09,1.07,.14,2.35,.28,4.74,.44,7.16,.46,.16,0,.31,.01,.47,.01s.31-.01,.47-.01c2.42-.02,4.81-.18,7.16-.46,.36-.04,.72-.09,1.08-.14,28.15-3.87,50.48-26.2,54.35-54.35Z"/>
        <path class="cls-1" d="M924.27,763.46c.05-.36,.09-.72,.14-1.07-5.46-.59-10.76-1.73-15.84-3.36-3.65-1.17-7.18-2.6-10.58-4.26-15.97-7.82-28.95-20.8-36.77-36.77-7.82,15.97-20.8,28.95-36.77,36.77-3.4,1.66-6.93,3.09-10.58,4.26-5.08,1.63-10.37,2.78-15.84,3.36,.04,.36,.09,.72,.14,1.07,3.87,28.15,26.2,50.48,54.35,54.35,.36,.05,.72,.09,1.08,.14,2.35,.28,4.74,.44,7.16,.46,.16,0,.31,.01,.47,.01s.31-.01,.47-.01c2.42-.02,4.81-.18,7.16-.46,.36-.04,.72-.09,1.07-.14,28.15-3.87,50.48-26.2,54.35-54.35Z"/>
        <path class="cls-1" d="M1067.77,763.46c.05-.36,.09-.72,.14-1.07-5.46-.59-10.76-1.73-15.84-3.36-3.65-1.17-7.18-2.6-10.58-4.26-15.97-7.82-28.95-20.8-36.77-36.77-7.82,15.97-20.8,28.95-36.77,36.77-3.4,1.66-6.93,3.09-10.58,4.26-5.08,1.63-10.38,2.78-15.84,3.36,.04,.36,.09,.72,.14,1.07,3.87,28.15,26.2,50.48,54.35,54.35,.36,.05,.72,.09,1.08,.14,2.35,.28,4.74,.44,7.16,.46,.16,0,.31,.01,.47,.01s.31-.01,.47-.01c2.42-.02,4.81-.18,7.16-.46,.36-.04,.72-.09,1.08-.14,28.15-3.87,50.48-26.2,54.35-54.35Z"/>
        <path class="cls-1" d="M1211.27,763.46c.05-.36,.09-.72,.14-1.07-5.46-.59-10.76-1.73-15.84-3.36-3.65-1.17-7.18-2.6-10.58-4.26-15.97-7.82-28.95-20.8-36.77-36.77-7.82,15.97-20.8,28.95-36.77,36.77-3.4,1.66-6.93,3.09-10.58,4.26-5.08,1.63-10.37,2.78-15.84,3.36,.04,.36,.09,.72,.14,1.07,3.87,28.15,26.2,50.48,54.35,54.35,.36,.05,.72,.09,1.08,.14,2.35,.28,4.74,.44,7.16,.46,.16,0,.31,.01,.47,.01s.31-.01,.47-.01c2.42-.02,4.81-.18,7.16-.46,.36-.04,.72-.09,1.07-.14,28.15-3.87,50.49-26.2,54.35-54.35Z"/>
        <path class="cls-1" d="M1254.94,754.76c-3.4,1.66-6.93,3.09-10.58,4.26-5.08,1.63-10.37,2.78-15.84,3.36,.04,.36,.09,.72,.14,1.07,3.87,28.15,26.2,50.48,54.35,54.35,.36,.05,.72,.09,1.08,.14,2.35,.28,4.74,.44,7.16,.46,.16,0,.31,.01,.47,.01h0v-26.89h0v-73.54s0,0,0,0c-7.82,15.97-20.8,28.95-36.77,36.77Z"/>
        <path class="cls-1" d="M35.22,683.01c-3.4,1.66-6.93,3.09-10.58,4.26-5.08,1.63-10.37,2.78-15.84,3.36,.04,.36,.09,.72,.14,1.07,3.87,28.15,26.2,50.48,54.35,54.35,.36,.05,.72,.09,1.08,.14,2.35,.28,4.74,.44,7.16,.46,.16,0,.31,.01,.47,.01s.31-.01,.47-.01c2.42-.02,4.81-.18,7.16-.46,.36-.04,.72-.09,1.08-.14,28.15-3.87,50.48-26.2,54.35-54.35,.05-.36,.09-.72,.14-1.07-5.46-.59-10.76-1.73-15.84-3.36-3.65-1.17-7.18-2.6-10.58-4.26-15.97-7.82-28.95-20.8-36.77-36.77-7.82,15.97-20.8,28.95-36.77,36.77Z"/>
        <path class="cls-1" d="M206.78,746.06c.36,.05,.72,.09,1.07,.14,2.35,.28,4.74,.44,7.16,.46,.16,0,.31,.01,.47,.01s.31-.01,.47-.01c2.42-.02,4.81-.18,7.16-.46,.36-.04,.72-.09,1.07-.14,28.15-3.87,50.48-26.2,54.35-54.35,.05-.36,.09-.72,.14-1.07-5.46-.59-10.76-1.73-15.84-3.36-3.65-1.17-7.18-2.6-10.58-4.26-15.97-7.82-28.95-20.8-36.77-36.77-7.82,15.97-20.8,28.95-36.77,36.77-3.4,1.66-6.93,3.09-10.58,4.26-5.08,1.63-10.37,2.78-15.84,3.36,.04,.36,.09,.72,.14,1.07,3.87,28.15,26.2,50.48,54.35,54.35Z"/>
        <path class="cls-1" d="M350.28,746.06c.36,.05,.72,.09,1.08,.14,2.35,.28,4.74,.44,7.16,.46,.16,0,.31,.01,.47,.01s.31-.01,.47-.01c2.42-.02,4.81-.18,7.16-.46,.36-.04,.72-.09,1.07-.14,28.15-3.87,50.48-26.2,54.35-54.35,.05-.36,.09-.72,.14-1.07-5.46-.59-10.76-1.73-15.84-3.36-3.65-1.17-7.18-2.6-10.58-4.26-15.97-7.82-28.95-20.8-36.77-36.77-7.82,15.97-20.8,28.95-36.77,36.77-3.4,1.66-6.93,3.09-10.58,4.26-5.08,1.63-10.37,2.78-15.84,3.36,.04,.36,.09,.72,.14,1.07,3.87,28.15,26.2,50.48,54.35,54.35Z"/>
        <path class="cls-1" d="M493.78,746.06c.36,.05,.72,.09,1.07,.14,2.35,.28,4.74,.44,7.16,.46,.16,0,.31,.01,.47,.01s.31-.01,.47-.01c2.42-.02,4.81-.18,7.16-.46,.36-.04,.72-.09,1.07-.14,28.15-3.87,50.48-26.2,54.35-54.35,.05-.36,.09-.72,.14-1.07-5.46-.59-10.76-1.73-15.84-3.36-3.65-1.17-7.18-2.6-10.58-4.26-15.97-7.82-28.95-20.8-36.77-36.77-7.82,15.97-20.8,28.95-36.77,36.77-3.4,1.66-6.93,3.09-10.58,4.26-5.08,1.63-10.37,2.78-15.84,3.36,.04,.36,.09,.72,.14,1.07,3.87,28.15,26.2,50.48,54.35,54.35Z"/>
        <path class="cls-1" d="M637.28,746.06c.36,.05,.72,.09,1.07,.14,2.35,.28,4.74,.44,7.16,.46,.16,0,.31,.01,.47,.01s.31-.01,.47-.01c2.42-.02,4.81-.18,7.16-.46,.36-.04,.72-.09,1.07-.14,28.15-3.87,50.49-26.2,54.35-54.35,.05-.36,.09-.72,.14-1.07-5.46-.59-10.76-1.73-15.84-3.36-3.65-1.17-7.18-2.6-10.58-4.26-15.97-7.82-28.95-20.8-36.77-36.77-7.82,15.97-20.8,28.95-36.77,36.77-3.4,1.66-6.93,3.09-10.58,4.26-5.08,1.63-10.37,2.78-15.84,3.36,.04,.36,.09,.72,.14,1.07,3.87,28.15,26.2,50.48,54.35,54.35Z"/>
        <path class="cls-1" d="M780.77,746.06c.36,.05,.72,.09,1.07,.14,2.35,.28,4.74,.44,7.16,.46,.16,0,.31,.01,.47,.01s.31-.01,.47-.01c2.42-.02,4.81-.18,7.16-.46,.36-.04,.72-.09,1.07-.14,28.15-3.87,50.48-26.2,54.35-54.35,.05-.36,.09-.72,.14-1.07-5.46-.59-10.76-1.73-15.84-3.36-3.65-1.17-7.18-2.6-10.58-4.26-15.97-7.82-28.95-20.8-36.77-36.77-7.82,15.97-20.8,28.95-36.77,36.77-3.4,1.66-6.93,3.09-10.58,4.26-5.08,1.63-10.37,2.78-15.84,3.36,.04,.36,.09,.72,.14,1.07,3.87,28.15,26.2,50.48,54.35,54.35Z"/>
        <path class="cls-1" d="M924.27,746.06c.36,.05,.72,.09,1.08,.14,2.35,.28,4.74,.44,7.16,.46,.16,0,.31,.01,.47,.01s.31-.01,.47-.01c2.42-.02,4.81-.18,7.16-.46,.36-.04,.72-.09,1.08-.14,28.15-3.87,50.49-26.2,54.35-54.35,.05-.36,.09-.72,.14-1.07-5.46-.59-10.76-1.73-15.84-3.36-3.65-1.17-7.18-2.6-10.58-4.26-15.97-7.82-28.95-20.8-36.77-36.77-7.82,15.97-20.8,28.95-36.77,36.77-3.4,1.66-6.93,3.09-10.58,4.26-5.08,1.63-10.38,2.78-15.84,3.36,.04,.36,.09,.72,.14,1.07,3.87,28.15,26.2,50.48,54.35,54.35Z"/>
        <path class="cls-1" d="M1067.77,746.06c.36,.05,.72,.09,1.07,.14,2.35,.28,4.74,.44,7.16,.46,.16,0,.31,.01,.47,.01s.31-.01,.47-.01c2.42-.02,4.81-.18,7.16-.46,.36-.04,.72-.09,1.07-.14,28.15-3.87,50.48-26.2,54.35-54.35,.05-.36,.09-.72,.14-1.07-5.46-.59-10.76-1.73-15.84-3.36-3.65-1.17-7.18-2.6-10.58-4.26-15.97-7.82-28.95-20.8-36.77-36.77-7.82,15.97-20.8,28.95-36.77,36.77-3.4,1.66-6.93,3.09-10.58,4.26-5.08,1.63-10.38,2.78-15.84,3.36,.04,.36,.09,.72,.14,1.07,3.87,28.15,26.2,50.48,54.35,54.35Z"/>
        <path class="cls-1" d="M1211.27,746.06c.36,.05,.72,.09,1.08,.14,2.35,.28,4.74,.44,7.16,.46,.16,0,.31,.01,.47,.01s.31-.01,.47-.01c2.42-.02,4.81-.18,7.16-.46,.36-.04,.72-.09,1.07-.14,28.15-3.87,50.48-26.2,54.35-54.35,.05-.36,.09-.72,.14-1.07-5.46-.59-10.76-1.73-15.84-3.36-3.65-1.17-7.18-2.6-10.58-4.26-15.97-7.82-28.95-20.8-36.77-36.77-7.82,15.97-20.8,28.95-36.77,36.77-3.4,1.66-6.93,3.09-10.58,4.26-5.08,1.63-10.37,2.78-15.84,3.36,.04,.36,.09,.72,.14,1.07,3.87,28.15,26.2,50.48,54.35,54.35Z"/>
        <path class="cls-1" d="M.7,674.91c2.79-.02,5.54-.23,8.23-.6,28.15-3.87,50.49-26.2,54.35-54.35,.05-.36,.09-.72,.14-1.07-5.46-.59-10.76-1.73-15.84-3.36-3.65-1.17-7.18-2.6-10.58-4.26-16.13-7.9-29.22-21.08-37-37.28v100.93c.08,0,.16,0,.24,0,.16,0,.31-.01,.47-.01Z"/>
        <path class="cls-1" d="M143.27,674.91c.16,0,.31,.01,.47,.01s.31-.01,.47-.01c2.42-.02,4.81-.18,7.16-.46,.36-.04,.72-.09,1.08-.14,28.15-3.87,50.48-26.2,54.35-54.35,.05-.36,.09-.72,.14-1.07-5.46-.59-10.76-1.73-15.84-3.36-3.65-1.17-7.18-2.6-10.58-4.26-15.97-7.82-28.95-20.8-36.77-36.77-7.82,15.97-20.8,28.95-36.77,36.77-3.4,1.66-6.93,3.09-10.58,4.26-5.08,1.63-10.38,2.78-15.84,3.36,.04,.36,.09,.72,.14,1.07,3.87,28.15,26.2,50.48,54.35,54.35,.36,.05,.72,.09,1.07,.14,2.35,.28,4.74,.44,7.16,.46Z"/>
        <path class="cls-1" d="M286.76,674.91c.16,0,.31,.01,.47,.01s.31-.01,.47-.01c2.42-.02,4.81-.18,7.16-.46,.36-.04,.72-.09,1.07-.14,28.15-3.87,50.49-26.2,54.35-54.35,.05-.36,.09-.72,.14-1.07-5.46-.59-10.76-1.73-15.84-3.36-3.65-1.17-7.18-2.6-10.58-4.26-15.97-7.82-28.95-20.8-36.77-36.77-7.82,15.97-20.8,28.95-36.77,36.77-3.4,1.66-6.93,3.09-10.58,4.26-5.08,1.63-10.37,2.78-15.84,3.36,.04,.36,.09,.72,.14,1.07,3.87,28.15,26.2,50.48,54.35,54.35,.36,.05,.72,.09,1.08,.14,2.35,.28,4.74,.44,7.16,.46Z"/>
        <path class="cls-1" d="M430.26,674.91c.16,0,.31,.01,.47,.01s.31-.01,.47-.01c2.42-.02,4.81-.18,7.16-.46,.36-.04,.72-.09,1.08-.14,28.15-3.87,50.48-26.2,54.35-54.35,.05-.36,.09-.72,.14-1.07-5.46-.59-10.76-1.73-15.84-3.36-3.65-1.17-7.18-2.6-10.58-4.26-15.97-7.82-28.95-20.8-36.77-36.77-7.82,15.97-20.8,28.95-36.77,36.77-3.4,1.66-6.93,3.09-10.58,4.26-5.08,1.63-10.38,2.78-15.84,3.36,.04,.36,.09,.72,.14,1.07,3.87,28.15,26.2,50.48,54.35,54.35,.36,.05,.72,.09,1.08,.14,2.35,.28,4.74,.44,7.16,.46Z"/>
        <path class="cls-1" d="M573.76,674.91c.16,0,.31,.01,.47,.01s.31-.01,.47-.01c2.42-.02,4.81-.18,7.16-.46,.36-.04,.72-.09,1.08-.14,28.15-3.87,50.48-26.2,54.35-54.35,.05-.36,.09-.72,.14-1.07-5.46-.59-10.76-1.73-15.84-3.36-3.65-1.17-7.18-2.6-10.58-4.26-15.97-7.82-28.95-20.8-36.77-36.77-7.82,15.97-20.8,28.95-36.77,36.77-3.4,1.66-6.93,3.09-10.58,4.26-5.08,1.63-10.37,2.78-15.84,3.36,.04,.36,.09,.72,.14,1.07,3.87,28.15,26.2,50.48,54.35,54.35,.36,.05,.72,.09,1.07,.14,2.35,.28,4.74,.44,7.16,.46Z"/>
        <path class="cls-1" d="M717.26,674.91c.16,0,.31,.01,.47,.01s.31-.01,.47-.01c2.42-.02,4.81-.18,7.16-.46,.36-.04,.72-.09,1.08-.14,28.15-3.87,50.48-26.2,54.35-54.35,.05-.36,.09-.72,.14-1.07-5.46-.59-10.76-1.73-15.84-3.36-3.65-1.17-7.18-2.6-10.58-4.26-15.97-7.82-28.95-20.8-36.77-36.77-7.82,15.97-20.8,28.95-36.77,36.77-3.4,1.66-6.93,3.09-10.58,4.26-5.08,1.63-10.38,2.78-15.84,3.36,.04,.36,.09,.72,.14,1.07,3.87,28.15,26.2,50.48,54.35,54.35,.36,.05,.72,.09,1.07,.14,2.35,.28,4.74,.44,7.16,.46Z"/>
        <path class="cls-1" d="M860.75,674.91c.16,0,.31,.01,.47,.01s.31-.01,.47-.01c2.42-.02,4.81-.18,7.16-.46,.36-.04,.72-.09,1.07-.14,28.15-3.87,50.48-26.2,54.35-54.35,.05-.36,.09-.72,.14-1.07-5.46-.59-10.76-1.73-15.84-3.36-3.65-1.17-7.18-2.6-10.58-4.26-15.97-7.82-28.95-20.8-36.77-36.77-7.82,15.97-20.8,28.95-36.77,36.77-3.4,1.66-6.93,3.09-10.58,4.26-5.08,1.63-10.37,2.78-15.84,3.36,.04,.36,.09,.72,.14,1.07,3.87,28.15,26.2,50.48,54.35,54.35,.36,.05,.72,.09,1.08,.14,2.35,.28,4.74,.44,7.16,.46Z"/>
        <path class="cls-1" d="M1004.25,674.91c.16,0,.31,.01,.47,.01s.31-.01,.47-.01c2.42-.02,4.81-.18,7.16-.46,.36-.04,.72-.09,1.08-.14,28.15-3.87,50.48-26.2,54.35-54.35,.05-.36,.09-.72,.14-1.07-5.46-.59-10.76-1.73-15.84-3.36-3.65-1.17-7.18-2.6-10.58-4.26-15.97-7.82-28.95-20.8-36.77-36.77-7.82,15.97-20.8,28.95-36.77,36.77-3.4,1.66-6.93,3.09-10.58,4.26-5.08,1.63-10.38,2.78-15.84,3.36,.04,.36,.09,.72,.14,1.07,3.87,28.15,26.2,50.48,54.35,54.35,.36,.05,.72,.09,1.08,.14,2.35,.28,4.74,.44,7.16,.46Z"/>
        <path class="cls-1" d="M1147.75,674.91c.16,0,.31,.01,.47,.01s.31-.01,.47-.01c2.42-.02,4.81-.18,7.16-.46,.36-.04,.72-.09,1.07-.14,28.15-3.87,50.49-26.2,54.35-54.35,.05-.36,.09-.72,.14-1.07-5.46-.59-10.76-1.73-15.84-3.36-3.65-1.17-7.18-2.6-10.58-4.26-15.97-7.82-28.95-20.8-36.77-36.77-7.82,15.97-20.8,28.95-36.77,36.77-3.4,1.66-6.93,3.09-10.58,4.26-5.08,1.63-10.38,2.78-15.84,3.36,.04,.36,.09,.72,.14,1.07,3.87,28.15,26.2,50.48,54.35,54.35,.36,.05,.72,.09,1.08,.14,2.35,.28,4.74,.44,7.16,.46Z"/>
        <path class="cls-1" d="M1254.94,611.27c-3.4,1.66-6.93,3.09-10.58,4.26-5.08,1.63-10.38,2.78-15.84,3.36,.04,.36,.09,.72,.14,1.07,3.87,28.15,26.2,50.48,54.35,54.35,.36,.05,.72,.09,1.08,.14,2.35,.28,4.74,.44,7.16,.46,.16,0,.31,.01,.47,.01h0v-26.89h0v-73.54s0,0,0,0c-7.82,15.97-20.8,28.95-36.77,36.77Z"/>
        <path class="cls-1" d="M35.22,539.52c-3.4,1.66-6.93,3.09-10.58,4.26-5.08,1.63-10.37,2.78-15.84,3.36,.04,.36,.09,.72,.14,1.07,3.87,28.15,26.2,50.49,54.35,54.35,.36,.05,.72,.09,1.08,.14,2.35,.28,4.74,.44,7.16,.46,.16,0,.31,.01,.47,.01s.31-.01,.47-.01c2.42-.02,4.81-.18,7.16-.46,.36-.04,.72-.09,1.08-.14,28.15-3.87,50.48-26.2,54.35-54.35,.05-.36,.09-.72,.14-1.07-5.46-.59-10.76-1.73-15.84-3.36-3.65-1.17-7.18-2.6-10.58-4.26-15.97-7.82-28.95-20.8-36.77-36.77-7.82,15.97-20.8,28.95-36.77,36.77Z"/>
        <path class="cls-1" d="M206.78,602.57c.36,.05,.72,.09,1.07,.14,2.35,.28,4.74,.44,7.16,.46,.16,0,.31,.01,.47,.01s.31-.01,.47-.01c2.42-.02,4.81-.18,7.16-.46,.36-.04,.72-.09,1.07-.14,28.15-3.87,50.48-26.2,54.35-54.35,.05-.36,.09-.72,.14-1.07-5.46-.59-10.76-1.73-15.84-3.36-3.65-1.17-7.18-2.6-10.58-4.26-15.97-7.82-28.95-20.8-36.77-36.77-7.82,15.97-20.8,28.95-36.77,36.77-3.4,1.66-6.93,3.09-10.58,4.26-5.08,1.63-10.37,2.78-15.84,3.36,.04,.36,.09,.72,.14,1.07,3.87,28.15,26.2,50.49,54.35,54.35Z"/>
        <path class="cls-1" d="M350.28,602.57c.36,.05,.72,.09,1.08,.14,2.35,.28,4.74,.44,7.16,.46,.16,0,.31,.01,.47,.01s.31-.01,.47-.01c2.42-.02,4.81-.18,7.16-.46,.36-.04,.72-.09,1.07-.14,28.15-3.87,50.48-26.2,54.35-54.35,.05-.36,.09-.72,.14-1.07-5.46-.59-10.76-1.73-15.84-3.36-3.65-1.17-7.18-2.6-10.58-4.26-15.97-7.82-28.95-20.8-36.77-36.77-7.82,15.97-20.8,28.95-36.77,36.77-3.4,1.66-6.93,3.09-10.58,4.26-5.08,1.63-10.37,2.78-15.84,3.36,.04,.36,.09,.72,.14,1.07,3.87,28.15,26.2,50.49,54.35,54.35Z"/>
        <path class="cls-1" d="M493.78,602.57c.36,.05,.72,.09,1.07,.14,2.35,.28,4.74,.44,7.16,.46,.16,0,.31,.01,.47,.01s.31-.01,.47-.01c2.42-.02,4.81-.18,7.16-.46,.36-.04,.72-.09,1.07-.14,28.15-3.87,50.48-26.2,54.35-54.35,.05-.36,.09-.72,.14-1.07-5.46-.59-10.76-1.73-15.84-3.36-3.65-1.17-7.18-2.6-10.58-4.26-15.97-7.82-28.95-20.8-36.77-36.77-7.82,15.97-20.8,28.95-36.77,36.77-3.4,1.66-6.93,3.09-10.58,4.26-5.08,1.63-10.37,2.78-15.84,3.36,.04,.36,.09,.72,.14,1.07,3.87,28.15,26.2,50.49,54.35,54.35Z"/>
        <path class="cls-1" d="M637.28,602.57c.36,.05,.72,.09,1.07,.14,2.35,.28,4.74,.44,7.16,.46,.16,0,.31,.01,.47,.01s.31-.01,.47-.01c2.42-.02,4.81-.18,7.16-.46,.36-.04,.72-.09,1.07-.14,28.15-3.87,50.49-26.2,54.35-54.35,.05-.36,.09-.72,.14-1.07-5.46-.59-10.76-1.73-15.84-3.36-3.65-1.17-7.18-2.6-10.58-4.26-15.97-7.82-28.95-20.8-36.77-36.77-7.82,15.97-20.8,28.95-36.77,36.77-3.4,1.66-6.93,3.09-10.58,4.26-5.08,1.63-10.37,2.78-15.84,3.36,.04,.36,.09,.72,.14,1.07,3.87,28.15,26.2,50.49,54.35,54.35Z"/>
        <path class="cls-1" d="M780.77,602.57c.36,.05,.72,.09,1.07,.14,2.35,.28,4.74,.44,7.16,.46,.16,0,.31,.01,.47,.01s.31-.01,.47-.01c2.42-.02,4.81-.18,7.16-.46,.36-.04,.72-.09,1.07-.14,28.15-3.87,50.48-26.2,54.35-54.35,.05-.36,.09-.72,.14-1.07-5.46-.59-10.76-1.73-15.84-3.36-3.65-1.17-7.18-2.6-10.58-4.26-15.97-7.82-28.95-20.8-36.77-36.77-7.82,15.97-20.8,28.95-36.77,36.77-3.4,1.66-6.93,3.09-10.58,4.26-5.08,1.63-10.37,2.78-15.84,3.36,.04,.36,.09,.72,.14,1.07,3.87,28.15,26.2,50.49,54.35,54.35Z"/>
        <path class="cls-1" d="M924.27,602.57c.36,.05,.72,.09,1.08,.14,2.35,.28,4.74,.44,7.16,.46,.16,0,.31,.01,.47,.01s.31-.01,.47-.01c2.42-.02,4.81-.18,7.16-.46,.36-.04,.72-.09,1.08-.14,28.15-3.87,50.49-26.2,54.35-54.35,.05-.36,.09-.72,.14-1.07-5.46-.59-10.76-1.73-15.84-3.36-3.65-1.17-7.18-2.6-10.58-4.26-15.97-7.82-28.95-20.8-36.77-36.77-7.82,15.97-20.8,28.95-36.77,36.77-3.4,1.66-6.93,3.09-10.58,4.26-5.08,1.63-10.37,2.78-15.84,3.36,.04,.36,.09,.72,.14,1.07,3.87,28.15,26.2,50.49,54.35,54.35Z"/>
        <path class="cls-1" d="M1067.77,602.57c.36,.05,.72,.09,1.07,.14,2.35,.28,4.74,.44,7.16,.46,.16,0,.31,.01,.47,.01s.31-.01,.47-.01c2.42-.02,4.81-.18,7.16-.46,.36-.04,.72-.09,1.07-.14,28.15-3.87,50.48-26.2,54.35-54.35,.05-.36,.09-.72,.14-1.07-5.46-.59-10.76-1.73-15.84-3.36-3.65-1.17-7.18-2.6-10.58-4.26-15.97-7.82-28.95-20.8-36.77-36.77-7.82,15.97-20.8,28.95-36.77,36.77-3.4,1.66-6.93,3.09-10.58,4.26-5.08,1.63-10.37,2.78-15.84,3.36,.04,.36,.09,.72,.14,1.07,3.87,28.15,26.2,50.49,54.35,54.35Z"/>
        <path class="cls-1" d="M1283.01,548.21c.05-.36,.09-.72,.14-1.07-5.46-.59-10.76-1.73-15.84-3.36-3.65-1.17-7.18-2.6-10.58-4.26-15.97-7.82-28.95-20.8-36.77-36.77-7.82,15.97-20.8,28.95-36.77,36.77-3.4,1.66-6.93,3.09-10.58,4.26-5.08,1.63-10.37,2.78-15.84,3.36,.04,.36,.09,.72,.14,1.07,3.87,28.15,26.2,50.49,54.35,54.35,.36,.05,.72,.09,1.08,.14,2.35,.28,4.74,.44,7.16,.46,.16,0,.31,.01,.47,.01s.31-.01,.47-.01c2.42-.02,4.81-.18,7.16-.46,.36-.04,.72-.09,1.07-.14,28.15-3.87,50.48-26.2,54.35-54.35Z"/>
        <path class="cls-1" d="M.7,531.41c2.79-.02,5.54-.23,8.23-.6,28.15-3.87,50.49-26.2,54.35-54.35,.05-.36,.09-.72,.14-1.07-5.46-.59-10.76-1.73-15.84-3.36-3.65-1.17-7.18-2.6-10.58-4.26-16.13-7.9-29.22-21.08-37-37.28v100.93c.08,0,.16,0,.24,0,.16,0,.31-.01,.47-.01Z"/>
        <path class="cls-1" d="M106.97,467.77c-3.4,1.66-6.93,3.09-10.58,4.26-5.08,1.63-10.37,2.78-15.84,3.36,.04,.36,.09,.72,.14,1.07,3.87,28.15,26.2,50.48,54.35,54.35,.36,.05,.72,.09,1.07,.14,2.35,.28,4.74,.44,7.16,.46,.16,0,.31,.01,.47,.01s.31-.01,.47-.01c2.42-.02,4.81-.18,7.16-.46,.36-.04,.72-.09,1.08-.14,28.15-3.87,50.48-26.2,54.35-54.35,.05-.36,.09-.72,.14-1.07-5.46-.59-10.76-1.73-15.84-3.36-3.65-1.17-7.18-2.6-10.58-4.26-15.97-7.82-28.95-20.8-36.77-36.77-7.82,15.97-20.8,28.95-36.77,36.77Z"/>
        <path class="cls-1" d="M286.76,531.41c.16,0,.31,.01,.47,.01s.31-.01,.47-.01c2.42-.02,4.81-.18,7.16-.46,.36-.04,.72-.09,1.07-.14,28.15-3.87,50.49-26.2,54.35-54.35,.05-.36,.09-.72,.14-1.07-5.46-.59-10.76-1.73-15.84-3.36-3.65-1.17-7.18-2.6-10.58-4.26-15.97-7.82-28.95-20.8-36.77-36.77-7.82,15.97-20.8,28.95-36.77,36.77-3.4,1.66-6.93,3.09-10.58,4.26-5.08,1.63-10.37,2.78-15.84,3.36,.04,.36,.09,.72,.14,1.07,3.87,28.15,26.2,50.48,54.35,54.35,.36,.05,.72,.09,1.08,.14,2.35,.28,4.74,.44,7.16,.46Z"/>
        <path class="cls-1" d="M430.26,531.41c.16,0,.31,.01,.47,.01s.31-.01,.47-.01c2.42-.02,4.81-.18,7.16-.46,.36-.04,.72-.09,1.08-.14,28.15-3.87,50.48-26.2,54.35-54.35,.05-.36,.09-.72,.14-1.07-5.46-.59-10.76-1.73-15.84-3.36-3.65-1.17-7.18-2.6-10.58-4.26-15.97-7.82-28.95-20.8-36.77-36.77-7.82,15.97-20.8,28.95-36.77,36.77-3.4,1.66-6.93,3.09-10.58,4.26-5.08,1.63-10.37,2.78-15.84,3.36,.04,.36,.09,.72,.14,1.07,3.87,28.15,26.2,50.48,54.35,54.35,.36,.05,.72,.09,1.08,.14,2.35,.28,4.74,.44,7.16,.46Z"/>
        <path class="cls-1" d="M573.76,531.41c.16,0,.31,.01,.47,.01s.31-.01,.47-.01c2.42-.02,4.81-.18,7.16-.46,.36-.04,.72-.09,1.08-.14,28.15-3.87,50.48-26.2,54.35-54.35,.05-.36,.09-.72,.14-1.07-5.46-.59-10.76-1.73-15.84-3.36-3.65-1.17-7.18-2.6-10.58-4.26-15.97-7.82-28.95-20.8-36.77-36.77-7.82,15.97-20.8,28.95-36.77,36.77-3.4,1.66-6.93,3.09-10.58,4.26-5.08,1.63-10.37,2.78-15.84,3.36,.04,.36,.09,.72,.14,1.07,3.87,28.15,26.2,50.48,54.35,54.35,.36,.05,.72,.09,1.07,.14,2.35,.28,4.74,.44,7.16,.46Z"/>
        <path class="cls-1" d="M717.26,531.41c.16,0,.31,.01,.47,.01s.31-.01,.47-.01c2.42-.02,4.81-.18,7.16-.46,.36-.04,.72-.09,1.08-.14,28.15-3.87,50.48-26.2,54.35-54.35,.05-.36,.09-.72,.14-1.07-5.46-.59-10.76-1.73-15.84-3.36-3.65-1.17-7.18-2.6-10.58-4.26-15.97-7.82-28.95-20.8-36.77-36.77-7.82,15.97-20.8,28.95-36.77,36.77-3.4,1.66-6.93,3.09-10.58,4.26-5.08,1.63-10.37,2.78-15.84,3.36,.04,.36,.09,.72,.14,1.07,3.87,28.15,26.2,50.48,54.35,54.35,.36,.05,.72,.09,1.07,.14,2.35,.28,4.74,.44,7.16,.46Z"/>
        <path class="cls-1" d="M860.75,531.41c.16,0,.31,.01,.47,.01s.31-.01,.47-.01c2.42-.02,4.81-.18,7.16-.46,.36-.04,.72-.09,1.07-.14,28.15-3.87,50.48-26.2,54.35-54.35,.05-.36,.09-.72,.14-1.07-5.46-.59-10.76-1.73-15.84-3.36-3.65-1.17-7.18-2.6-10.58-4.26-15.97-7.82-28.95-20.8-36.77-36.77-7.82,15.97-20.8,28.95-36.77,36.77-3.4,1.66-6.93,3.09-10.58,4.26-5.08,1.63-10.37,2.78-15.84,3.36,.04,.36,.09,.72,.14,1.07,3.87,28.15,26.2,50.48,54.35,54.35,.36,.05,.72,.09,1.08,.14,2.35,.28,4.74,.44,7.16,.46Z"/>
        <path class="cls-1" d="M1004.25,531.41c.16,0,.31,.01,.47,.01s.31-.01,.47-.01c2.42-.02,4.81-.18,7.16-.46,.36-.04,.72-.09,1.08-.14,28.15-3.87,50.48-26.2,54.35-54.35,.05-.36,.09-.72,.14-1.07-5.46-.59-10.76-1.73-15.84-3.36-3.65-1.17-7.18-2.6-10.58-4.26-15.97-7.82-28.95-20.8-36.77-36.77-7.82,15.97-20.8,28.95-36.77,36.77-3.4,1.66-6.93,3.09-10.58,4.26-5.08,1.63-10.37,2.78-15.84,3.36,.04,.36,.09,.72,.14,1.07,3.87,28.15,26.2,50.48,54.35,54.35,.36,.05,.72,.09,1.08,.14,2.35,.28,4.74,.44,7.16,.46Z"/>
        <path class="cls-1" d="M1147.75,531.41c.16,0,.31,.01,.47,.01s.31-.01,.47-.01c2.42-.02,4.81-.18,7.16-.46,.36-.04,.72-.09,1.07-.14,28.15-3.87,50.49-26.2,54.35-54.35,.05-.36,.09-.72,.14-1.07-5.46-.59-10.76-1.73-15.84-3.36-3.65-1.17-7.18-2.6-10.58-4.26-15.97-7.82-28.95-20.8-36.77-36.77-7.82,15.97-20.8,28.95-36.77,36.77-3.4,1.66-6.93,3.09-10.58,4.26-5.08,1.63-10.37,2.78-15.84,3.36,.04,.36,.09,.72,.14,1.07,3.87,28.15,26.2,50.48,54.35,54.35,.36,.05,.72,.09,1.08,.14,2.35,.28,4.74,.44,7.16,.46Z"/>
        <path class="cls-1" d="M1254.94,467.77c-3.4,1.66-6.93,3.09-10.58,4.26-5.08,1.63-10.37,2.78-15.84,3.36,.04,.36,.09,.72,.14,1.07,3.87,28.15,26.2,50.48,54.35,54.35,.36,.05,.72,.09,1.08,.14,2.35,.28,4.74,.44,7.16,.46,.16,0,.31,.01,.47,.01h0v-26.89h0v-73.54s0,0,0,0c-7.82,15.97-20.8,28.95-36.77,36.77Z"/>
        <path class="cls-1" d="M35.22,396.02c-3.4,1.66-6.93,3.09-10.58,4.26-5.08,1.63-10.37,2.78-15.84,3.36,.04,.36,.09,.72,.14,1.07,3.87,28.15,26.2,50.48,54.35,54.35,.36,.05,.72,.09,1.08,.14,2.35,.28,4.74,.44,7.16,.46,.16,0,.31,.01,.47,.01s.31-.01,.47-.01c2.42-.02,4.81-.18,7.16-.46,.36-.04,.72-.09,1.08-.14,28.15-3.87,50.48-26.2,54.35-54.35,.05-.36,.09-.72,.14-1.07-5.46-.59-10.76-1.73-15.84-3.36-3.65-1.17-7.18-2.6-10.58-4.26-15.97-7.82-28.95-20.8-36.77-36.77-7.82,15.97-20.8,28.95-36.77,36.77Z"/>
        <path class="cls-1" d="M178.71,396.02c-3.4,1.66-6.93,3.09-10.58,4.26-5.08,1.63-10.37,2.78-15.84,3.36,.04,.36,.09,.72,.14,1.07,3.87,28.15,26.2,50.48,54.35,54.35,.36,.05,.72,.09,1.07,.14,2.35,.28,4.74,.44,7.16,.46,.16,0,.31,.01,.47,.01s.31-.01,.47-.01c2.42-.02,4.81-.18,7.16-.46,.36-.04,.72-.09,1.07-.14,28.15-3.87,50.48-26.2,54.35-54.35,.05-.36,.09-.72,.14-1.07-5.46-.59-10.76-1.73-15.84-3.36-3.65-1.17-7.18-2.6-10.58-4.26-15.97-7.82-28.95-20.8-36.77-36.77-7.82,15.97-20.8,28.95-36.77,36.77Z"/>
        <path class="cls-1" d="M350.28,459.07c.36,.05,.72,.09,1.08,.14,2.35,.28,4.74,.44,7.16,.46,.16,0,.31,.01,.47,.01s.31-.01,.47-.01c2.42-.02,4.81-.18,7.16-.46,.36-.04,.72-.09,1.07-.14,28.15-3.87,50.48-26.2,54.35-54.35,.05-.36,.09-.72,.14-1.07-5.46-.59-10.76-1.73-15.84-3.36-3.65-1.17-7.18-2.6-10.58-4.26-15.97-7.82-28.95-20.8-36.77-36.77-7.82,15.97-20.8,28.95-36.77,36.77-3.4,1.66-6.93,3.09-10.58,4.26-5.08,1.63-10.37,2.78-15.84,3.36,.04,.36,.09,.72,.14,1.07,3.87,28.15,26.2,50.48,54.35,54.35Z"/>
        <path class="cls-1" d="M493.78,459.07c.36,.05,.72,.09,1.07,.14,2.35,.28,4.74,.44,7.16,.46,.16,0,.31,.01,.47,.01s.31-.01,.47-.01c2.42-.02,4.81-.18,7.16-.46,.36-.04,.72-.09,1.07-.14,28.15-3.87,50.48-26.2,54.35-54.35,.05-.36,.09-.72,.14-1.07-5.46-.59-10.76-1.73-15.84-3.36-3.65-1.17-7.18-2.6-10.58-4.26-15.97-7.82-28.95-20.8-36.77-36.77-7.82,15.97-20.8,28.95-36.77,36.77-3.4,1.66-6.93,3.09-10.58,4.26-5.08,1.63-10.37,2.78-15.84,3.36,.04,.36,.09,.72,.14,1.07,3.87,28.15,26.2,50.48,54.35,54.35Z"/>
        <path class="cls-1" d="M637.28,459.07c.36,.05,.72,.09,1.07,.14,2.35,.28,4.74,.44,7.16,.46,.16,0,.31,.01,.47,.01s.31-.01,.47-.01c2.42-.02,4.81-.18,7.16-.46,.36-.04,.72-.09,1.07-.14,28.15-3.87,50.49-26.2,54.35-54.35,.05-.36,.09-.72,.14-1.07-5.46-.59-10.76-1.73-15.84-3.36-3.65-1.17-7.18-2.6-10.58-4.26-15.97-7.82-28.95-20.8-36.77-36.77-7.82,15.97-20.8,28.95-36.77,36.77-3.4,1.66-6.93,3.09-10.58,4.26-5.08,1.63-10.37,2.78-15.84,3.36,.04,.36,.09,.72,.14,1.07,3.87,28.15,26.2,50.48,54.35,54.35Z"/>
        <path class="cls-1" d="M780.77,459.07c.36,.05,.72,.09,1.07,.14,2.35,.28,4.74,.44,7.16,.46,.16,0,.31,.01,.47,.01s.31-.01,.47-.01c2.42-.02,4.81-.18,7.16-.46,.36-.04,.72-.09,1.07-.14,28.15-3.87,50.48-26.2,54.35-54.35,.05-.36,.09-.72,.14-1.07-5.46-.59-10.76-1.73-15.84-3.36-3.65-1.17-7.18-2.6-10.58-4.26-15.97-7.82-28.95-20.8-36.77-36.77-7.82,15.97-20.8,28.95-36.77,36.77-3.4,1.66-6.93,3.09-10.58,4.26-5.08,1.63-10.37,2.78-15.84,3.36,.04,.36,.09,.72,.14,1.07,3.87,28.15,26.2,50.48,54.35,54.35Z"/>
        <path class="cls-1" d="M924.27,459.07c.36,.05,.72,.09,1.08,.14,2.35,.28,4.74,.44,7.16,.46,.16,0,.31,.01,.47,.01s.31-.01,.47-.01c2.42-.02,4.81-.18,7.16-.46,.36-.04,.72-.09,1.08-.14,28.15-3.87,50.49-26.2,54.35-54.35,.05-.36,.09-.72,.14-1.07-5.46-.59-10.76-1.73-15.84-3.36-3.65-1.17-7.18-2.6-10.58-4.26-15.97-7.82-28.95-20.8-36.77-36.77-7.82,15.97-20.8,28.95-36.77,36.77-3.4,1.66-6.93,3.09-10.58,4.26-5.08,1.63-10.37,2.78-15.84,3.36,.04,.36,.09,.72,.14,1.07,3.87,28.15,26.2,50.48,54.35,54.35Z"/>
        <path class="cls-1" d="M1067.77,459.07c.36,.05,.72,.09,1.07,.14,2.35,.28,4.74,.44,7.16,.46,.16,0,.31,.01,.47,.01s.31-.01,.47-.01c2.42-.02,4.81-.18,7.16-.46,.36-.04,.72-.09,1.07-.14,28.15-3.87,50.48-26.2,54.35-54.35,.05-.36,.09-.72,.14-1.07-5.46-.59-10.76-1.73-15.84-3.36-3.65-1.17-7.18-2.6-10.58-4.26-15.97-7.82-28.95-20.8-36.77-36.77-7.82,15.97-20.8,28.95-36.77,36.77-3.4,1.66-6.93,3.09-10.58,4.26-5.08,1.63-10.37,2.78-15.84,3.36,.04,.36,.09,.72,.14,1.07,3.87,28.15,26.2,50.48,54.35,54.35Z"/>
        <path class="cls-1" d="M1283.01,404.72c.05-.36,.09-.72,.14-1.07-5.46-.59-10.76-1.73-15.84-3.36-3.65-1.17-7.18-2.6-10.58-4.26-15.97-7.82-28.95-20.8-36.77-36.77-7.82,15.97-20.8,28.95-36.77,36.77-3.4,1.66-6.93,3.09-10.58,4.26-5.08,1.63-10.38,2.78-15.84,3.36,.04,.36,.09,.72,.14,1.07,3.87,28.15,26.2,50.48,54.35,54.35,.36,.05,.72,.09,1.08,.14,2.35,.28,4.74,.44,7.16,.46,.16,0,.31,.01,.47,.01s.31-.01,.47-.01c2.42-.02,4.81-.18,7.16-.46,.36-.04,.72-.09,1.07-.14,28.15-3.87,50.48-26.2,54.35-54.35Z"/>
        <path class="cls-1" d="M.7,387.92c2.79-.02,5.54-.23,8.23-.6,28.15-3.87,50.49-26.2,54.35-54.35,.05-.36,.09-.72,.14-1.07-5.46-.59-10.76-1.73-15.84-3.36-3.65-1.17-7.18-2.6-10.58-4.26-16.13-7.9-29.22-21.08-37-37.28v100.93c.08,0,.16,0,.24,0,.16,0,.31-.01,.47-.01Z"/>
        <path class="cls-1" d="M106.97,324.27c-3.4,1.66-6.93,3.09-10.58,4.26-5.08,1.63-10.37,2.78-15.84,3.36,.04,.36,.09,.72,.14,1.07,3.87,28.15,26.2,50.48,54.35,54.35,.36,.05,.72,.09,1.07,.14,2.35,.28,4.74,.44,7.16,.46,.16,0,.31,.01,.47,.01s.31-.01,.47-.01c2.42-.02,4.81-.18,7.16-.46,.36-.04,.72-.09,1.08-.14,28.15-3.87,50.48-26.2,54.35-54.35,.05-.36,.09-.72,.14-1.07-5.46-.59-10.76-1.73-15.84-3.36-3.65-1.17-7.18-2.6-10.58-4.26-15.97-7.82-28.95-20.8-36.77-36.77-7.82,15.97-20.8,28.95-36.77,36.77Z"/>
        <path class="cls-1" d="M286.76,387.92c.16,0,.31,.01,.47,.01s.31-.01,.47-.01c2.42-.02,4.81-.18,7.16-.46,.36-.04,.72-.09,1.07-.14,28.15-3.87,50.49-26.2,54.35-54.35,.05-.36,.09-.72,.14-1.07-5.46-.59-10.76-1.73-15.84-3.36-3.65-1.17-7.18-2.6-10.58-4.26-15.97-7.82-28.95-20.8-36.77-36.77-7.82,15.97-20.8,28.95-36.77,36.77-3.4,1.66-6.93,3.09-10.58,4.26-5.08,1.63-10.37,2.78-15.84,3.36,.04,.36,.09,.72,.14,1.07,3.87,28.15,26.2,50.48,54.35,54.35,.36,.05,.72,.09,1.08,.14,2.35,.28,4.74,.44,7.16,.46Z"/>
        <path class="cls-1" d="M430.26,387.92c.16,0,.31,.01,.47,.01s.31-.01,.47-.01c2.42-.02,4.81-.18,7.16-.46,.36-.04,.72-.09,1.08-.14,28.15-3.87,50.48-26.2,54.35-54.35,.05-.36,.09-.72,.14-1.07-5.46-.59-10.76-1.73-15.84-3.36-3.65-1.17-7.18-2.6-10.58-4.26-15.97-7.82-28.95-20.8-36.77-36.77-7.82,15.97-20.8,28.95-36.77,36.77-3.4,1.66-6.93,3.09-10.58,4.26-5.08,1.63-10.37,2.78-15.84,3.36,.04,.36,.09,.72,.14,1.07,3.87,28.15,26.2,50.48,54.35,54.35,.36,.05,.72,.09,1.08,.14,2.35,.28,4.74,.44,7.16,.46Z"/>
        <path class="cls-1" d="M573.76,387.92c.16,0,.31,.01,.47,.01s.31-.01,.47-.01c2.42-.02,4.81-.18,7.16-.46,.36-.04,.72-.09,1.08-.14,28.15-3.87,50.48-26.2,54.35-54.35,.05-.36,.09-.72,.14-1.07-5.46-.59-10.76-1.73-15.84-3.36-3.65-1.17-7.18-2.6-10.58-4.26-15.97-7.82-28.95-20.8-36.77-36.77-7.82,15.97-20.8,28.95-36.77,36.77-3.4,1.66-6.93,3.09-10.58,4.26-5.08,1.63-10.38,2.78-15.84,3.36,.04,.36,.09,.72,.14,1.07,3.87,28.15,26.2,50.48,54.35,54.35,.36,.05,.72,.09,1.07,.14,2.35,.28,4.74,.44,7.16,.46Z"/>
        <path class="cls-1" d="M717.26,387.92c.16,0,.31,.01,.47,.01s.31-.01,.47-.01c2.42-.02,4.81-.18,7.16-.46,.36-.04,.72-.09,1.08-.14,28.15-3.87,50.48-26.2,54.35-54.35,.05-.36,.09-.72,.14-1.07-5.46-.59-10.76-1.73-15.84-3.36-3.65-1.17-7.18-2.6-10.58-4.26-15.97-7.82-28.95-20.8-36.77-36.77-7.82,15.97-20.8,28.95-36.77,36.77-3.4,1.66-6.93,3.09-10.58,4.26-5.08,1.63-10.38,2.78-15.84,3.36,.04,.36,.09,.72,.14,1.07,3.87,28.15,26.2,50.48,54.35,54.35,.36,.05,.72,.09,1.07,.14,2.35,.28,4.74,.44,7.16,.46Z"/>
        <path class="cls-1" d="M860.75,387.92c.16,0,.31,.01,.47,.01s.31-.01,.47-.01c2.42-.02,4.81-.18,7.16-.46,.36-.04,.72-.09,1.07-.14,28.15-3.87,50.48-26.2,54.35-54.35,.05-.36,.09-.72,.14-1.07-5.46-.59-10.76-1.73-15.84-3.36-3.65-1.17-7.18-2.6-10.58-4.26-15.97-7.82-28.95-20.8-36.77-36.77-7.82,15.97-20.8,28.95-36.77,36.77-3.4,1.66-6.93,3.09-10.58,4.26-5.08,1.63-10.37,2.78-15.84,3.36,.04,.36,.09,.72,.14,1.07,3.87,28.15,26.2,50.48,54.35,54.35,.36,.05,.72,.09,1.08,.14,2.35,.28,4.74,.44,7.16,.46Z"/>
        <path class="cls-1" d="M1004.25,387.92c.16,0,.31,.01,.47,.01s.31-.01,.47-.01c2.42-.02,4.81-.18,7.16-.46,.36-.04,.72-.09,1.08-.14,28.15-3.87,50.48-26.2,54.35-54.35,.05-.36,.09-.72,.14-1.07-5.46-.59-10.76-1.73-15.84-3.36-3.65-1.17-7.18-2.6-10.58-4.26-15.97-7.82-28.95-20.8-36.77-36.77-7.82,15.97-20.8,28.95-36.77,36.77-3.4,1.66-6.93,3.09-10.58,4.26-5.08,1.63-10.38,2.78-15.84,3.36,.04,.36,.09,.72,.14,1.07,3.87,28.15,26.2,50.48,54.35,54.35,.36,.05,.72,.09,1.08,.14,2.35,.28,4.74,.44,7.16,.46Z"/>
        <path class="cls-1" d="M1211.27,332.97c.05-.36,.09-.72,.14-1.07-5.46-.59-10.76-1.73-15.84-3.36-3.65-1.17-7.18-2.6-10.58-4.26-15.97-7.82-28.95-20.8-36.77-36.77-7.82,15.97-20.8,28.95-36.77,36.77-3.4,1.66-6.93,3.09-10.58,4.26-5.08,1.63-10.38,2.78-15.84,3.36,.04,.36,.09,.72,.14,1.07,3.87,28.15,26.2,50.48,54.35,54.35,.36,.05,.72,.09,1.08,.14,2.35,.28,4.74,.44,7.16,.46,.16,0,.31,.01,.47,.01s.31-.01,.47-.01c2.42-.02,4.81-.18,7.16-.46,.36-.04,.72-.09,1.07-.14,28.15-3.87,50.49-26.2,54.35-54.35Z"/>
        <path class="cls-1" d="M1254.94,324.27c-3.4,1.66-6.93,3.09-10.58,4.26-5.08,1.63-10.38,2.78-15.84,3.36,.04,.36,.09,.72,.14,1.07,3.87,28.15,26.2,50.48,54.35,54.35,.36,.05,.72,.09,1.08,.14,2.35,.28,4.74,.44,7.16,.46,.16,0,.31,.01,.47,.01h0v-26.89h0v-73.54s0,0,0,0c-7.82,15.97-20.8,28.95-36.77,36.77Z"/>
        <path class="cls-1" d="M35.22,252.52c-3.4,1.66-6.93,3.09-10.58,4.26-5.08,1.63-10.37,2.78-15.84,3.36,.04,.36,.09,.72,.14,1.07,3.87,28.15,26.2,50.49,54.35,54.35,.36,.05,.72,.09,1.08,.14,2.35,.28,4.74,.44,7.16,.46,.16,0,.31,.01,.47,.01s.31-.01,.47-.01c2.42-.02,4.81-.18,7.16-.46,.36-.04,.72-.09,1.08-.14,28.15-3.87,50.48-26.2,54.35-54.35,.05-.36,.09-.72,.14-1.07-5.46-.59-10.76-1.73-15.84-3.36-3.65-1.17-7.18-2.6-10.58-4.26-15.97-7.82-28.95-20.8-36.77-36.77-7.82,15.97-20.8,28.95-36.77,36.77Z"/>
        <path class="cls-1" d="M178.71,252.52c-3.4,1.66-6.93,3.09-10.58,4.26-5.08,1.63-10.37,2.78-15.84,3.36,.04,.36,.09,.72,.14,1.07,3.87,28.15,26.2,50.49,54.35,54.35,.36,.05,.72,.09,1.07,.14,2.35,.28,4.74,.44,7.16,.46,.16,0,.31,.01,.47,.01s.31-.01,.47-.01c2.42-.02,4.81-.18,7.16-.46,.36-.04,.72-.09,1.07-.14,28.15-3.87,50.48-26.2,54.35-54.35,.05-.36,.09-.72,.14-1.07-5.46-.59-10.76-1.73-15.84-3.36-3.65-1.17-7.18-2.6-10.58-4.26-15.97-7.82-28.95-20.8-36.77-36.77-7.82,15.97-20.8,28.95-36.77,36.77Z"/>
        <path class="cls-1" d="M350.28,315.57c.36,.05,.72,.09,1.08,.14,2.35,.28,4.74,.44,7.16,.46,.16,0,.31,.01,.47,.01s.31-.01,.47-.01c2.42-.02,4.81-.18,7.16-.46,.36-.04,.72-.09,1.07-.14,28.15-3.87,50.48-26.2,54.35-54.35,.05-.36,.09-.72,.14-1.07-5.46-.59-10.76-1.73-15.84-3.36-3.65-1.17-7.18-2.6-10.58-4.26-15.97-7.82-28.95-20.8-36.77-36.77-7.82,15.97-20.8,28.95-36.77,36.77-3.4,1.66-6.93,3.09-10.58,4.26-5.08,1.63-10.37,2.78-15.84,3.36,.04,.36,.09,.72,.14,1.07,3.87,28.15,26.2,50.49,54.35,54.35Z"/>
        <path class="cls-1" d="M493.78,315.57c.36,.05,.72,.09,1.07,.14,2.35,.28,4.74,.44,7.16,.46,.16,0,.31,.01,.47,.01s.31-.01,.47-.01c2.42-.02,4.81-.18,7.16-.46,.36-.04,.72-.09,1.07-.14,28.15-3.87,50.48-26.2,54.35-54.35,.05-.36,.09-.72,.14-1.07-5.46-.59-10.76-1.73-15.84-3.36-3.65-1.17-7.18-2.6-10.58-4.26-15.97-7.82-28.95-20.8-36.77-36.77-7.82,15.97-20.8,28.95-36.77,36.77-3.4,1.66-6.93,3.09-10.58,4.26-5.08,1.63-10.37,2.78-15.84,3.36,.04,.36,.09,.72,.14,1.07,3.87,28.15,26.2,50.49,54.35,54.35Z"/>
        <path class="cls-1" d="M637.28,315.57c.36,.05,.72,.09,1.07,.14,2.35,.28,4.74,.44,7.16,.46,.16,0,.31,.01,.47,.01s.31-.01,.47-.01c2.42-.02,4.81-.18,7.16-.46,.36-.04,.72-.09,1.07-.14,28.15-3.87,50.49-26.2,54.35-54.35,.05-.36,.09-.72,.14-1.07-5.46-.59-10.76-1.73-15.84-3.36-3.65-1.17-7.18-2.6-10.58-4.26-15.97-7.82-28.95-20.8-36.77-36.77-7.82,15.97-20.8,28.95-36.77,36.77-3.4,1.66-6.93,3.09-10.58,4.26-5.08,1.63-10.37,2.78-15.84,3.36,.04,.36,.09,.72,.14,1.07,3.87,28.15,26.2,50.49,54.35,54.35Z"/>
        <path class="cls-1" d="M780.77,315.57c.36,.05,.72,.09,1.07,.14,2.35,.28,4.74,.44,7.16,.46,.16,0,.31,.01,.47,.01s.31-.01,.47-.01c2.42-.02,4.81-.18,7.16-.46,.36-.04,.72-.09,1.07-.14,28.15-3.87,50.48-26.2,54.35-54.35,.05-.36,.09-.72,.14-1.07-5.46-.59-10.76-1.73-15.84-3.36-3.65-1.17-7.18-2.6-10.58-4.26-15.97-7.82-28.95-20.8-36.77-36.77-7.82,15.97-20.8,28.95-36.77,36.77-3.4,1.66-6.93,3.09-10.58,4.26-5.08,1.63-10.37,2.78-15.84,3.36,.04,.36,.09,.72,.14,1.07,3.87,28.15,26.2,50.49,54.35,54.35Z"/>
        <path class="cls-1" d="M924.27,315.57c.36,.05,.72,.09,1.08,.14,2.35,.28,4.74,.44,7.16,.46,.16,0,.31,.01,.47,.01s.31-.01,.47-.01c2.42-.02,4.81-.18,7.16-.46,.36-.04,.72-.09,1.08-.14,28.15-3.87,50.49-26.2,54.35-54.35,.05-.36,.09-.72,.14-1.07-5.46-.59-10.76-1.73-15.84-3.36-3.65-1.17-7.18-2.6-10.58-4.26-15.97-7.82-28.95-20.8-36.77-36.77-7.82,15.97-20.8,28.95-36.77,36.77-3.4,1.66-6.93,3.09-10.58,4.26-5.08,1.63-10.37,2.78-15.84,3.36,.04,.36,.09,.72,.14,1.07,3.87,28.15,26.2,50.49,54.35,54.35Z"/>
        <path class="cls-1" d="M1139.52,261.22c.05-.36,.09-.72,.14-1.07-5.46-.59-10.76-1.73-15.84-3.36-3.65-1.17-7.18-2.6-10.58-4.26-15.97-7.82-28.95-20.8-36.77-36.77-7.82,15.97-20.8,28.95-36.77,36.77-3.4,1.66-6.93,3.09-10.58,4.26-5.08,1.63-10.37,2.78-15.84,3.36,.04,.36,.09,.72,.14,1.07,3.87,28.15,26.2,50.49,54.35,54.35,.36,.05,.72,.09,1.07,.14,2.35,.28,4.74,.44,7.16,.46,.16,0,.31,.01,.47,.01s.31-.01,.47-.01c2.42-.02,4.81-.18,7.16-.46,.36-.04,.72-.09,1.07-.14,28.15-3.87,50.48-26.2,54.35-54.35Z"/>
        <path class="cls-1" d="M1283.01,261.22c.05-.36,.09-.72,.14-1.07-5.46-.59-10.76-1.73-15.84-3.36-3.65-1.17-7.18-2.6-10.58-4.26-15.97-7.82-28.95-20.8-36.77-36.77-7.82,15.97-20.8,28.95-36.77,36.77-3.4,1.66-6.93,3.09-10.58,4.26-5.08,1.63-10.37,2.78-15.84,3.36,.04,.36,.09,.72,.14,1.07,3.87,28.15,26.2,50.49,54.35,54.35,.36,.05,.72,.09,1.08,.14,2.35,.28,4.74,.44,7.16,.46,.16,0,.31,.01,.47,.01s.31-.01,.47-.01c2.42-.02,4.81-.18,7.16-.46,.36-.04,.72-.09,1.07-.14,28.15-3.87,50.48-26.2,54.35-54.35Z"/>
        <path class="cls-1" d="M.7,244.42c2.79-.02,5.54-.23,8.23-.6,28.15-3.87,50.49-26.2,54.35-54.35,.05-.36,.09-.72,.14-1.07-5.46-.59-10.76-1.73-15.84-3.36-3.65-1.17-7.18-2.6-10.58-4.26-16.13-7.9-29.22-21.08-37-37.28v100.93c.08,0,.16,0,.24,0,.16,0,.31-.01,.47-.01Z"/>
        <path class="cls-1" d="M106.97,180.77c-3.4,1.66-6.93,3.09-10.58,4.26-5.08,1.63-10.37,2.78-15.84,3.36,.04,.36,.09,.72,.14,1.07,3.87,28.15,26.2,50.49,54.35,54.35,.36,.05,.72,.09,1.07,.14,2.35,.28,4.74,.44,7.16,.46,.16,0,.31,.01,.47,.01s.31-.01,.47-.01c2.42-.02,4.81-.18,7.16-.46,.36-.04,.72-.09,1.08-.14,28.15-3.87,50.48-26.2,54.35-54.35,.05-.36,.09-.72,.14-1.07-5.46-.59-10.76-1.73-15.84-3.36-3.65-1.17-7.18-2.6-10.58-4.26-15.97-7.82-28.95-20.8-36.77-36.77-7.82,15.97-20.8,28.95-36.77,36.77Z"/>
        <path class="cls-1" d="M250.46,180.77c-3.4,1.66-6.93,3.09-10.58,4.26-5.08,1.63-10.37,2.78-15.84,3.36,.04,.36,.09,.72,.14,1.07,3.87,28.15,26.2,50.49,54.35,54.35,.36,.05,.72,.09,1.08,.14,2.35,.28,4.74,.44,7.16,.46,.16,0,.31,.01,.47,.01s.31-.01,.47-.01c2.42-.02,4.81-.18,7.16-.46,.36-.04,.72-.09,1.07-.14,28.15-3.87,50.49-26.2,54.35-54.35,.05-.36,.09-.72,.14-1.07-5.46-.59-10.76-1.73-15.84-3.36-3.65-1.17-7.18-2.6-10.58-4.26-15.97-7.82-28.95-20.8-36.77-36.77-7.82,15.97-20.8,28.95-36.77,36.77Z"/>
        <path class="cls-1" d="M430.26,244.42c.16,0,.31,.01,.47,.01s.31-.01,.47-.01c2.42-.02,4.81-.18,7.16-.46,.36-.04,.72-.09,1.08-.14,28.15-3.87,50.48-26.2,54.35-54.35,.05-.36,.09-.72,.14-1.07-5.46-.59-10.76-1.73-15.84-3.36-3.65-1.17-7.18-2.6-10.58-4.26-15.97-7.82-28.95-20.8-36.77-36.77-7.82,15.97-20.8,28.95-36.77,36.77-3.4,1.66-6.93,3.09-10.58,4.26-5.08,1.63-10.37,2.78-15.84,3.36,.04,.36,.09,.72,.14,1.07,3.87,28.15,26.2,50.49,54.35,54.35,.36,.05,.72,.09,1.08,.14,2.35,.28,4.74,.44,7.16,.46Z"/>
        <path class="cls-1" d="M573.76,244.42c.16,0,.31,.01,.47,.01s.31-.01,.47-.01c2.42-.02,4.81-.18,7.16-.46,.36-.04,.72-.09,1.08-.14,28.15-3.87,50.48-26.2,54.35-54.35,.05-.36,.09-.72,.14-1.07-5.46-.59-10.76-1.73-15.84-3.36-3.65-1.17-7.18-2.6-10.58-4.26-15.97-7.82-28.95-20.8-36.77-36.77-7.82,15.97-20.8,28.95-36.77,36.77-3.4,1.66-6.93,3.09-10.58,4.26-5.08,1.63-10.37,2.78-15.84,3.36,.04,.36,.09,.72,.14,1.07,3.87,28.15,26.2,50.49,54.35,54.35,.36,.05,.72,.09,1.07,.14,2.35,.28,4.74,.44,7.16,.46Z"/>
        <path class="cls-1" d="M717.26,244.42c.16,0,.31,.01,.47,.01s.31-.01,.47-.01c2.42-.02,4.81-.18,7.16-.46,.36-.04,.72-.09,1.08-.14,28.15-3.87,50.48-26.2,54.35-54.35,.05-.36,.09-.72,.14-1.07-5.46-.59-10.76-1.73-15.84-3.36-3.65-1.17-7.18-2.6-10.58-4.26-15.97-7.82-28.95-20.8-36.77-36.77-7.82,15.97-20.8,28.95-36.77,36.77-3.4,1.66-6.93,3.09-10.58,4.26-5.08,1.63-10.37,2.78-15.84,3.36,.04,.36,.09,.72,.14,1.07,3.87,28.15,26.2,50.49,54.35,54.35,.36,.05,.72,.09,1.07,.14,2.35,.28,4.74,.44,7.16,.46Z"/>
        <path class="cls-1" d="M860.75,244.42c.16,0,.31,.01,.47,.01s.31-.01,.47-.01c2.42-.02,4.81-.18,7.16-.46,.36-.04,.72-.09,1.07-.14,28.15-3.87,50.48-26.2,54.35-54.35,.05-.36,.09-.72,.14-1.07-5.46-.59-10.76-1.73-15.84-3.36-3.65-1.17-7.18-2.6-10.58-4.26-15.97-7.82-28.95-20.8-36.77-36.77-7.82,15.97-20.8,28.95-36.77,36.77-3.4,1.66-6.93,3.09-10.58,4.26-5.08,1.63-10.37,2.78-15.84,3.36,.04,.36,.09,.72,.14,1.07,3.87,28.15,26.2,50.49,54.35,54.35,.36,.05,.72,.09,1.08,.14,2.35,.28,4.74,.44,7.16,.46Z"/>
        <path class="cls-1" d="M1004.25,244.42c.16,0,.31,.01,.47,.01s.31-.01,.47-.01c2.42-.02,4.81-.18,7.16-.46,.36-.04,.72-.09,1.08-.14,28.15-3.87,50.48-26.2,54.35-54.35,.05-.36,.09-.72,.14-1.07-5.46-.59-10.76-1.73-15.84-3.36-3.65-1.17-7.18-2.6-10.58-4.26-15.97-7.82-28.95-20.8-36.77-36.77-7.82,15.97-20.8,28.95-36.77,36.77-3.4,1.66-6.93,3.09-10.58,4.26-5.08,1.63-10.37,2.78-15.84,3.36,.04,.36,.09,.72,.14,1.07,3.87,28.15,26.2,50.49,54.35,54.35,.36,.05,.72,.09,1.08,.14,2.35,.28,4.74,.44,7.16,.46Z"/>
        <path class="cls-1" d="M1211.27,189.47c.05-.36,.09-.72,.14-1.07-5.46-.59-10.76-1.73-15.84-3.36-3.65-1.17-7.18-2.6-10.58-4.26-15.97-7.82-28.95-20.8-36.77-36.77-7.82,15.97-20.8,28.95-36.77,36.77-3.4,1.66-6.93,3.09-10.58,4.26-5.08,1.63-10.37,2.78-15.84,3.36,.04,.36,.09,.72,.14,1.07,3.87,28.15,26.2,50.49,54.35,54.35,.36,.05,.72,.09,1.08,.14,2.35,.28,4.74,.44,7.16,.46,.16,0,.31,.01,.47,.01s.31-.01,.47-.01c2.42-.02,4.81-.18,7.16-.46,.36-.04,.72-.09,1.07-.14,28.15-3.87,50.49-26.2,54.35-54.35Z"/>
        <path class="cls-1" d="M1254.94,180.77c-3.4,1.66-6.93,3.09-10.58,4.26-5.08,1.63-10.37,2.78-15.84,3.36,.04,.36,.09,.72,.14,1.07,3.87,28.15,26.2,50.49,54.35,54.35,.36,.05,.72,.09,1.08,.14,2.35,.28,4.74,.44,7.16,.46,.16,0,.31,.01,.47,.01h0v-26.89h0v-73.54s0,0,0,0c-7.82,15.97-20.8,28.95-36.77,36.77Z"/>
        <path class="cls-1" d="M35.22,109.02c-3.4,1.66-6.93,3.09-10.58,4.26-5.08,1.63-10.37,2.78-15.84,3.36,.04,.36,.09,.72,.14,1.07,3.87,28.15,26.2,50.49,54.35,54.35,.36,.05,.72,.09,1.08,.14,2.35,.28,4.74,.44,7.16,.46,.16,0,.31,.01,.47,.01s.31-.01,.47-.01c2.42-.02,4.81-.18,7.16-.46,.36-.04,.72-.09,1.08-.14,28.15-3.87,50.48-26.2,54.35-54.35,.05-.36,.09-.72,.14-1.07-5.46-.59-10.76-1.73-15.84-3.36-3.65-1.17-7.18-2.6-10.58-4.26-15.97-7.82-28.95-20.8-36.77-36.77-7.82,15.97-20.8,28.95-36.77,36.77Z"/>
        <path class="cls-1" d="M178.71,109.02c-3.4,1.66-6.93,3.09-10.58,4.26-5.08,1.63-10.37,2.78-15.84,3.36,.04,.36,.09,.72,.14,1.07,3.87,28.15,26.2,50.49,54.35,54.35,.36,.05,.72,.09,1.07,.14,2.35,.28,4.74,.44,7.16,.46,.16,0,.31,.01,.47,.01s.31-.01,.47-.01c2.42-.02,4.81-.18,7.16-.46,.36-.04,.72-.09,1.07-.14,28.15-3.87,50.48-26.2,54.35-54.35,.05-.36,.09-.72,.14-1.07-5.46-.59-10.76-1.73-15.84-3.36-3.65-1.17-7.18-2.6-10.58-4.26-15.97-7.82-28.95-20.8-36.77-36.77-7.82,15.97-20.8,28.95-36.77,36.77Z"/>
        <path class="cls-1" d="M322.21,109.02c-3.4,1.66-6.93,3.09-10.58,4.26-5.08,1.63-10.37,2.78-15.84,3.36,.04,.36,.09,.72,.14,1.07,3.87,28.15,26.2,50.49,54.35,54.35,.36,.05,.72,.09,1.08,.14,2.35,.28,4.74,.44,7.16,.46,.16,0,.31,.01,.47,.01s.31-.01,.47-.01c2.42-.02,4.81-.18,7.16-.46,.36-.04,.72-.09,1.07-.14,28.15-3.87,50.48-26.2,54.35-54.35,.05-.36,.09-.72,.14-1.07-5.46-.59-10.76-1.73-15.84-3.36-3.65-1.17-7.18-2.6-10.58-4.26-15.97-7.82-28.95-20.8-36.77-36.77-7.82,15.97-20.8,28.95-36.77,36.77Z"/>
        <path class="cls-1" d="M465.71,109.02c-3.4,1.66-6.93,3.09-10.58,4.26-5.08,1.63-10.37,2.78-15.84,3.36,.04,.36,.09,.72,.14,1.07,3.87,28.15,26.2,50.49,54.35,54.35,.36,.05,.72,.09,1.07,.14,2.35,.28,4.74,.44,7.16,.46,.16,0,.31,.01,.47,.01s.31-.01,.47-.01c2.42-.02,4.81-.18,7.16-.46,.36-.04,.72-.09,1.07-.14,28.15-3.87,50.48-26.2,54.35-54.35,.05-.36,.09-.72,.14-1.07-5.46-.59-10.76-1.73-15.84-3.36-3.65-1.17-7.18-2.6-10.58-4.26-15.97-7.82-28.95-20.8-36.77-36.77-7.82,15.97-20.8,28.95-36.77,36.77Z"/>
        <path class="cls-1" d="M609.21,109.02c-3.4,1.66-6.93,3.09-10.58,4.26-5.08,1.63-10.37,2.78-15.84,3.36,.04,.36,.09,.72,.14,1.07,3.87,28.15,26.2,50.49,54.35,54.35,.36,.05,.72,.09,1.07,.14,2.35,.28,4.74,.44,7.16,.46,.16,0,.31,.01,.47,.01s.31-.01,.47-.01c2.42-.02,4.81-.18,7.16-.46,.36-.04,.72-.09,1.07-.14,28.15-3.87,50.49-26.2,54.35-54.35,.05-.36,.09-.72,.14-1.07-5.46-.59-10.76-1.73-15.84-3.36-3.65-1.17-7.18-2.6-10.58-4.26-15.97-7.82-28.95-20.8-36.77-36.77-7.82,15.97-20.8,28.95-36.77,36.77Z"/>
        <path class="cls-1" d="M752.7,109.02c-3.4,1.66-6.93,3.09-10.58,4.26-5.08,1.63-10.37,2.78-15.84,3.36,.04,.36,.09,.72,.14,1.07,3.87,28.15,26.2,50.49,54.35,54.35,.36,.05,.72,.09,1.07,.14,2.35,.28,4.74,.44,7.16,.46,.16,0,.31,.01,.47,.01s.31-.01,.47-.01c2.42-.02,4.81-.18,7.16-.46,.36-.04,.72-.09,1.07-.14,28.15-3.87,50.48-26.2,54.35-54.35,.05-.36,.09-.72,.14-1.07-5.46-.59-10.76-1.73-15.84-3.36-3.65-1.17-7.18-2.6-10.58-4.26-15.97-7.82-28.95-20.8-36.77-36.77-7.82,15.97-20.8,28.95-36.77,36.77Z"/>
        <path class="cls-1" d="M896.2,109.02c-3.4,1.66-6.93,3.09-10.58,4.26-5.08,1.63-10.37,2.78-15.84,3.36,.04,.36,.09,.72,.14,1.07,3.87,28.15,26.2,50.49,54.35,54.35,.36,.05,.72,.09,1.08,.14,2.35,.28,4.74,.44,7.16,.46,.16,0,.31,.01,.47,.01s.31-.01,.47-.01c2.42-.02,4.81-.18,7.16-.46,.36-.04,.72-.09,1.08-.14,28.15-3.87,50.49-26.2,54.35-54.35,.05-.36,.09-.72,.14-1.07-5.46-.59-10.76-1.73-15.84-3.36-3.65-1.17-7.18-2.6-10.58-4.26-15.97-7.82-28.95-20.8-36.77-36.77-7.82,15.97-20.8,28.95-36.77,36.77Z"/>
        <path class="cls-1" d="M1139.52,117.72c.05-.36,.09-.72,.14-1.07-5.46-.59-10.76-1.73-15.84-3.36-3.65-1.17-7.18-2.6-10.58-4.26-15.97-7.82-28.95-20.8-36.77-36.77-7.82,15.97-20.8,28.95-36.77,36.77-3.4,1.66-6.93,3.09-10.58,4.26-5.08,1.63-10.37,2.78-15.84,3.36,.04,.36,.09,.72,.14,1.07,3.87,28.15,26.2,50.49,54.35,54.35,.36,.05,.72,.09,1.07,.14,2.35,.28,4.74,.44,7.16,.46,.16,0,.31,.01,.47,.01s.31-.01,.47-.01c2.42-.02,4.81-.18,7.16-.46,.36-.04,.72-.09,1.07-.14,28.15-3.87,50.48-26.2,54.35-54.35Z"/>
        <path class="cls-1" d="M1283.01,117.72c.05-.36,.09-.72,.14-1.07-5.46-.59-10.76-1.73-15.84-3.36-3.65-1.17-7.18-2.6-10.58-4.26-15.97-7.82-28.95-20.8-36.77-36.77-7.82,15.97-20.8,28.95-36.77,36.77-3.4,1.66-6.93,3.09-10.58,4.26-5.08,1.63-10.38,2.78-15.84,3.36,.04,.36,.09,.72,.14,1.07,3.87,28.15,26.2,50.49,54.35,54.35,.36,.05,.72,.09,1.08,.14,2.35,.28,4.74,.44,7.16,.46,.16,0,.31,.01,.47,.01s.31-.01,.47-.01c2.42-.02,4.81-.18,7.16-.46,.36-.04,.72-.09,1.07-.14,28.15-3.87,50.48-26.2,54.35-54.35Z"/>
        <path class="cls-1" d="M.7,100.92c2.79-.02,5.54-.23,8.23-.6,28.15-3.87,50.49-26.2,54.35-54.35,.05-.36,.09-.72,.14-1.07-5.46-.59-10.76-1.73-15.84-3.36-3.65-1.17-7.18-2.6-10.58-4.26C20.87,29.38,7.79,16.19,0,0V100.93c.08,0,.16,0,.24,0,.16,0,.31-.01,.47-.01Z"/>
        <path class="cls-1" d="M106.97,37.28c-3.4,1.66-6.93,3.09-10.58,4.26-5.08,1.63-10.37,2.78-15.84,3.36,.04,.36,.09,.72,.14,1.07,3.87,28.15,26.2,50.48,54.35,54.35,.36,.05,.72,.09,1.07,.14,2.35,.28,4.74,.44,7.16,.46,.16,0,.31,.01,.47,.01s.31-.01,.47-.01c2.42-.02,4.81-.18,7.16-.46,.36-.04,.72-.09,1.08-.14,28.15-3.87,50.48-26.2,54.35-54.35,.05-.36,.09-.72,.14-1.07-5.46-.59-10.76-1.73-15.84-3.36-3.65-1.17-7.18-2.6-10.58-4.26-15.97-7.82-28.95-20.8-36.77-36.77-7.82,15.97-20.8,28.95-36.77,36.77Z"/>
        <path class="cls-1" d="M324,37.28c-15.97-7.82-28.95-20.8-36.77-36.77-7.82,15.97-20.8,28.95-36.77,36.77-3.4,1.66-6.93,3.09-10.58,4.26-5.08,1.63-10.37,2.78-15.84,3.36,.04,.36,.09,.72,.14,1.07,3.87,28.15,26.2,50.48,54.35,54.35,.36,.05,.72,.09,1.08,.14,2.35,.28,4.74,.44,7.16,.46,.16,0,.31,.01,.47,.01s.31-.01,.47-.01c2.42-.02,4.81-.18,7.16-.46,.36-.04,.72-.09,1.07-.14,28.15-3.87,50.49-26.2,54.35-54.35,.05-.36,.09-.72,.14-1.07-5.46-.59-10.76-1.73-15.84-3.36-3.65-1.17-7.18-2.6-10.58-4.26Z"/>
        <path class="cls-1" d="M467.5,37.28c-15.97-7.82-28.95-20.8-36.77-36.77-7.82,15.97-20.8,28.95-36.77,36.77-3.4,1.66-6.93,3.09-10.58,4.26-5.08,1.63-10.37,2.78-15.84,3.36,.04,.36,.09,.72,.14,1.07,3.87,28.15,26.2,50.48,54.35,54.35,.36,.05,.72,.09,1.08,.14,2.35,.28,4.74,.44,7.16,.46,.16,0,.31,.01,.47,.01s.31-.01,.47-.01c2.42-.02,4.81-.18,7.16-.46,.36-.04,.72-.09,1.08-.14,28.15-3.87,50.48-26.2,54.35-54.35,.05-.36,.09-.72,.14-1.07-5.46-.59-10.76-1.73-15.84-3.36-3.65-1.17-7.18-2.6-10.58-4.26Z"/>
        <path class="cls-1" d="M610.99,37.28c-15.97-7.82-28.95-20.8-36.77-36.77-7.82,15.97-20.8,28.95-36.77,36.77-3.4,1.66-6.93,3.09-10.58,4.26-5.08,1.63-10.37,2.78-15.84,3.36,.04,.36,.09,.72,.14,1.07,3.87,28.15,26.2,50.48,54.35,54.35,.36,.05,.72,.09,1.07,.14,2.35,.28,4.74,.44,7.16,.46,.16,0,.31,.01,.47,.01s.31-.01,.47-.01c2.42-.02,4.81-.18,7.16-.46,.36-.04,.72-.09,1.08-.14,28.15-3.87,50.48-26.2,54.35-54.35,.05-.36,.09-.72,.14-1.07-5.46-.59-10.76-1.73-15.84-3.36-3.65-1.17-7.18-2.6-10.58-4.26Z"/>
        <path class="cls-1" d="M754.49,37.28c-15.97-7.82-28.95-20.8-36.77-36.77-7.82,15.97-20.8,28.95-36.77,36.77-3.4,1.66-6.93,3.09-10.58,4.26-5.08,1.63-10.37,2.78-15.84,3.36,.04,.36,.09,.72,.14,1.07,3.87,28.15,26.2,50.48,54.35,54.35,.36,.05,.72,.09,1.07,.14,2.35,.28,4.74,.44,7.16,.46,.16,0,.31,.01,.47,.01s.31-.01,.47-.01c2.42-.02,4.81-.18,7.16-.46,.36-.04,.72-.09,1.08-.14,28.15-3.87,50.48-26.2,54.35-54.35,.05-.36,.09-.72,.14-1.07-5.46-.59-10.76-1.73-15.84-3.36-3.65-1.17-7.18-2.6-10.58-4.26Z"/>
        <path class="cls-1" d="M897.99,37.28c-15.97-7.82-28.95-20.8-36.77-36.77-7.82,15.97-20.8,28.95-36.77,36.77-3.4,1.66-6.93,3.09-10.58,4.26-5.08,1.63-10.37,2.78-15.84,3.36,.04,.36,.09,.72,.14,1.07,3.87,28.15,26.2,50.48,54.35,54.35,.36,.05,.72,.09,1.08,.14,2.35,.28,4.74,.44,7.16,.46,.16,0,.31,.01,.47,.01s.31-.01,.47-.01c2.42-.02,4.81-.18,7.16-.46,.36-.04,.72-.09,1.07-.14,28.15-3.87,50.48-26.2,54.35-54.35,.05-.36,.09-.72,.14-1.07-5.46-.59-10.76-1.73-15.84-3.36-3.65-1.17-7.18-2.6-10.58-4.26Z"/>
        <path class="cls-1" d="M1067.77,45.97c.05-.36,.09-.72,.14-1.07-5.46-.59-10.76-1.73-15.84-3.36-3.65-1.17-7.18-2.6-10.58-4.26-15.97-7.82-28.95-20.8-36.77-36.77-7.82,15.97-20.8,28.95-36.77,36.77-3.4,1.66-6.93,3.09-10.58,4.26-5.08,1.63-10.38,2.78-15.84,3.36,.04,.36,.09,.72,.14,1.07,3.87,28.15,26.2,50.48,54.35,54.35,.36,.05,.72,.09,1.08,.14,2.35,.28,4.74,.44,7.16,.46,.16,0,.31,.01,.47,.01s.31-.01,.47-.01c2.42-.02,4.81-.18,7.16-.46,.36-.04,.72-.09,1.08-.14,28.15-3.87,50.48-26.2,54.35-54.35Z"/>
        <path class="cls-1" d="M1211.27,45.97c.05-.36,.09-.72,.14-1.07-5.46-.59-10.76-1.73-15.84-3.36-3.65-1.17-7.18-2.6-10.58-4.26-15.97-7.82-28.95-20.8-36.77-36.77-7.82,15.97-20.8,28.95-36.77,36.77-3.4,1.66-6.93,3.09-10.58,4.26-5.08,1.63-10.37,2.78-15.84,3.36,.04,.36,.09,.72,.14,1.07,3.87,28.15,26.2,50.48,54.35,54.35,.36,.05,.72,.09,1.08,.14,2.35,.28,4.74,.44,7.16,.46,.16,0,.31,.01,.47,.01s.31-.01,.47-.01c2.42-.02,4.81-.18,7.16-.46,.36-.04,.72-.09,1.07-.14,28.15-3.87,50.49-26.2,54.35-54.35Z"/>
        <path class="cls-1" d="M1254.94,37.28c-3.4,1.66-6.93,3.09-10.58,4.26-5.08,1.63-10.38,2.78-15.84,3.36,.04,.36,.09,.72,.14,1.07,3.87,28.15,26.2,50.48,54.35,54.35,.36,.05,.72,.09,1.08,.14,2.35,.28,4.74,.44,7.16,.46,.16,0,.31,.01,.47,.01h0v-26.89h0V.51s0,0,0,0c-7.82,15.97-20.8,28.95-36.77,36.77Z"/>
      </g>
      <rect class="cls-2" y="45.97" width="1291.71" height="844.2"/>
    </g>
  </g>
</svg>