<?xml version="1.0" encoding="UTF-8"?>
<svg id="Ebene_2" data-name="Ebene 2" xmlns="http://www.w3.org/2000/svg" viewBox="0 0 3120.92 2713.65">
  <defs>
    <style>
      .cls-1 {
        fill: lime;
      }

      .cls-1, .cls-2, .cls-3, .cls-4, .cls-5, .cls-6, .cls-7, .cls-8 {
        fill-rule: evenodd;
      }

      .cls-9, .cls-4 {
        fill: #184f71;
      }

      .cls-2 {
        fill: #d9dcd7;
      }

      .cls-3 {
        fill: #7f7f7f;
      }

      .cls-5 {
        fill: #558cb0;
      }

      .cls-6 {
        fill: #f0f4f2;
      }

      .cls-7 {
        fill: #ccc;
      }
    </style>
  </defs>
  <g id="Layer_1" data-name="Layer 1">
    <path class="cls-8" d="M2466.81,1886.48l-8.2,9.36c-172,189.96-352.54,147.85-538.13,111.35-84.83-16.73-172.7-33.92-266.2-31.81-2.58-29.83-6.91-55.56-13.94-80.59-6.68-24.1-15.7-47.61-27.88-73.57,91.97-26.31,137.9-43.05,148.68-119.77,17.34-122.47-112.36-186.33-210.07-234.41-6.44-3.16-12.89-6.32-19.21-9.47,3.75-11.11,7.03-22.46,9.73-33.92,111.66,4.56,204.92-21.17,289.86-66.55,86.12-45.97,163.1-111.82,241.94-186.45,133.8-16.38,265.14-46.44,376.91-105.39,125.83-66.44,330.63-266.34,281.54-430.68-12.07-40.7-44.29-69.71-101.23-83.87-57.18-14.27-114.12-23.86-171.76-33.45-32.92-5.5-66.2-11.11-99.94-17.66-248.97-48.31-372.81-175.92-528.52-336.28-11.6-11.93-23.43-24.1-35.38-36.38-50.38-51.47-118.57-106.56-184.65-122.35-53.19-12.75-108.85,1.17-155.48,40.94-239.83,32.99-483.41,127.14-688.33,255.46-136.96-16.14-274.51-.94-419.68,45.85-128.64,41.41-244.28,108.78-318.21,204.46-38.55,50.06-35.38,79.42-7.26,101.06,20.27,15.56,56.94,18.95,96.66,29.48,63.62,16.84,136.61,52.4,190.62,109.83-46.75,96.38-79.08,189.6-86.58,296.16C12.37,1250.88-10.71,1467.62,185.42,1604.47c144.58,405.29,380.78,766.14,773.62,969.78,448.85,232.41,933.55,155.1,1269.81-91,227.88-166.79,420.5-409.51,601.4-655.14,22.03-29.71,54.72-36.73,87.4-52.75,135.67-66.32,189.92-207.03,203.28-279.32-43.46,33.45-75.68,55.79-124.42,80.24-69.83,34.97-142.59,50.53-211.13,17.54-99.47-48.07-172.46-166.91-227.41-283.88-25.43-54.04-45.58-102.46-55.65-166.56-24.72,41.52-37.03,87.02-38.31,134.98-2.93,101.06,22.5,189.25,58.82,309.03,33.27,109.95,21.68,208.44-56,299.09h0Z"/>
    <path class="cls-2" d="M2485.91,1240.12c10.19,59.65,23.43,120.71,42.06,179.43,29.52,92.87,72.76,180.13,139.42,247.74,21.67,21.99,39.95,42.22,48.5,65.03,8.2,22.1,7.62,48.19-7.15,83.63-69.71,166.56-181.6,321.2-320.09,444.36-133.8,118.96-292.43,208.67-461.73,251.36-230.34,58.02-458.11,32.99-658.57-73.57-188.05-99.89-352.42-271.48-472.63-513.38,7.73-1.05,15.23-2.22,22.49-3.39,53.31-8.42,94.55-19.18,128.06-36.61,34.45-17.9,60.34-42.58,81.78-78.6,103.69-173.11-138.72-299.09-248.27-362.37,39.84-7.13,81.54-11.58,127.35-13.22-97.25-27.02-232.68-20.82-347.86,84.33,59.17-26.08,113.18-45.97,168.83-59.88,3.75-.94,7.38-1.87,11.13-2.81,98.65,59.54,360.16,180.72,264.9,339.67-18.75,31.35-41.12,52.87-70.77,68.2-9.61,5.03-29.17,13.57-40.54,17.43,17.11-12.98,15.47-41.87,6.09-70.18-41.47-126.79-223.55-188.2-333.56-235.1-9.26-3.86-18.51-7.84-27.65-11.81-106.38-45.5-119.74-101.53-90.8-156.27,31.52-59.77,109.31-120.13,177.38-166.68,70.77-48.19,108.37-104.33,135.56-184.22,57.88-169.72,158.52-281.07,280.96-345.41,141.3-74.39,312-86.44,479.43-53.69,228,44.68,412.76,8.89,609.13-29.12,102.05-19.77,210.66-47.02,316.34-47.96,59.99-.47,241.82,6.32,259.4,65.5,17.92,60.24-2.11,120.13-29.41,173.81-116.34,227.97-366.01,311.02-609.95,339.79-81.31,76.03-168.95,152.41-271.35,198.96-228.23,103.75-493.61,18.83-569.53-231.83,13.71,130.3,92.79,206.21,142.35,238.26-58-13.22-102.87-40.59-143.05-68.66,82.13,100.12,239.83,117.9,289.51,127.38-16.29,68.54-58.58,130.89-106.03,182-45.11-9.01-179.61-3.86-249.09,70.06,62.68-37.78,216.52-69.13,274.16-26.55,80.84,59.65,153.36,157.55,180.78,256.39,6.68,23.98,10.78,48.78,13.24,78.02-51.08,9.83-126.42,35.44-173.87,113.81,55.89-51.35,141.06-91,217.69-91,84.59,.12,166.02,16.14,244.63,31.58,197.42,38.71,378.2,74.27,563.79-140.83,35.15-40.71,62.68-86.79,75.69-137.32,11.6-44.8,11.83-92.87-3.63-143.87-.47-1.75-1.06-3.51-1.64-5.26-41.36-136.15-71.94-236.75-63.5-367.16h0Zm-1035.83,383.77c-4.8-3.51-9.72-7.02-14.88-10.53,36.91-37.08,69.36-88.19,90.33-138.72,84.12,41.41,231.63,109.95,206.56,231.24-9.73,47.14-43.12,63.4-105.56,82.11,72.99-79.77-73.23-137.79-176.45-164.11h0Zm-151.84-810.94c32.34-8.19,71.35-.94,98.77,18.6-70.18-90.42-208.78-35.09-157.11,75.21-5.27-41.05,9.37-67.96,32.69-82.81,82.6,370.91,377.03,639.93,705.2,325.41-246.39-60.12-493.02-158.49-679.54-336.4h0Z"/>
    <path class="cls-5" d="M2487.42,550.24c-120.44-7.37-245.92,24.68-363.32,47.49-193.67,37.43-375.16,81.41-597.76,37.78-173.28-33.92-351.14-29.83-498.53,47.6-128.41,67.61-223.66,184.34-284,361.55-25.31,74.16-59.28,131.47-125.01,176.27-70.88,48.54-162.39,105.27-196.6,170.19-36.91,70.06-22.73,140.36,104.51,194.87,9.26,3.98,18.51,7.95,27.77,11.81,87.29,37.2,304.04,114.05,326.65,224.11,11.37,55.45-24.72,65.27-67.25,71.93-40.89,6.55-91.15,13.22-130.52,8.19-34.1-4.33-59.64-18.25-59.64-51.12-.12-26.08,13.94-48.54,32.57-78.13,1.99-3.39,4.1-6.67,6.21-10.06,37.61,7.84,70.65,10.52,125.83,11.93-173.75-40.82-364.26-97.32-527.11-176.74-88.11-42.69-149.62-114.39-165.31-213.35-7.85-49.01,3.63-96.61,30.93-142.7,63.03-106.67,205.97-197.91,312.59-251.6-59.87,15.67-136.26,45.62-174.34,73.22C314.18,524.04,932.68,155.82,1423.36,78.27c-13,25.85-26.13,56.26-27.65,99.77,28.82-91.94,105.68-163.17,214.06-137.2,60.22,14.39,117.98,57.2,165.2,105.5,12.07,12.28,23.78,24.45,35.38,36.38,159.1,163.87,285.64,294.29,543.28,344.24,33.74,6.55,67.37,12.16,100.64,17.66,11.01,1.87,22.02,3.74,33.15,5.61h0ZM745.1,315.25c-129.58,75.56-286.46,206.21-418.5,441.79-58.93-58.13-139.78-79.54-204.45-96.62-36.79-9.71-67.96-18.01-83.77-30.06-14.06-10.88-13.47-28.54,12.3-62.11,144.23-186.56,468.65-270.55,694.42-253h0ZM242.48,1627.16c120.91,59.54,260.8,94.87,391.56,128.43-.47,.82-.94,1.64-1.52,2.46-20.86,33.33-36.67,58.6-36.67,92.87,0,84.1,100.17,85.04,160.28,78.48,229.17,468.46,688.45,757.14,1218.02,588.93,343.99-109.36,606.31-377.45,752.06-694.67,17.81-42.81,26.36-72.4,15.7-101.06-10.31-27.84-38.55-41.76-62.56-66.09-94.2-95.45-156.3-267.15-171.53-399.68,43.93,105.27,104.98,213.58,173.64,288.67,98.06,107.15,227.53,143.64,410.42-1.52-17.11,39.19-35.15,73.58-57.76,103.64-31.87,42.46-73,76.84-133.92,105.15-15.23,7.14-30.11,14.97-43.82,24.21-14.06,9.59-26.71,20.82-36.55,34.27-153.02,207.15-322.08,422.6-522.66,586.48-199.64,163.05-430.8,275.34-709.19,277.8-320.44,2.92-593.19-102.82-814.51-280.03-239.01-191.24-415.11-456.88-530.98-768.36h0Zm1356.27,168.9c-.94-1.29-1.76-2.69-2.69-3.98-38.19-57.31-68.31-102.46-116.81-144.81,91.74,26.78,204.21,76.38,133.8,144.69l-14.29,4.1Zm206.91-1382.1c-13.12-60.47-29.87-113.46-56.82-156.39-28.47-45.27-68.19-78.95-126.42-97.44-67.72-21.64-151.14-5.14-175.16,70.18-6.09,18.95-8.09,41.05-5.04,66.09,4.22,34.15,19.68,67.84,34.1,99.3-43.24-11.11-76.62-44.33-87.76-82.93,6.44,44.56,36.2,74.86,65.38,89.6-52.84,11.7-86.47,9.71-144.34-11.7,68.54,67.49,190.86,27.96,224.72,24.45,111.42-11.7,250.5,2.1,349.73,45.26-21.21-20.12-51.55-34.62-78.38-46.44h0Z"/>
    <path class="cls-7" d="M2507.81,1256.84c108.96,297.57,316.69,577.24,584.06,287.15-182.89,145.16-312.36,108.67-410.42,1.52-68.66-75.09-129.7-183.41-173.64-288.67h0Zm-20.39-706.61c-30.11-1.87-60.57-1.17-91.03,1.17-166.02-24.45-289.39-88.31-390.85-164.11-106.15-79.3-189.57-180.48-290.8-264.46-75.8-62.93-168.71-102.7-268.3-34.27,39.13-41.76,95.02-64.1,163.32-47.72,60.22,14.39,117.98,57.2,165.2,105.5,12.07,12.28,23.78,24.45,35.38,36.38,159.1,163.87,285.64,294.29,543.28,344.24,33.74,6.55,67.37,12.16,100.64,17.66,11.01,1.87,22.02,3.74,33.15,5.61h0Z"/>
    <path class="cls-4" d="M636.85,1805.31c5.39-10.18,12.07-20.82,19.45-32.52,1.99-3.39,4.1-6.67,6.21-10.06,37.61,7.84,70.65,10.52,125.83,11.93-173.75-40.82-364.26-97.32-527.11-176.74-54.36-26.32-98.53-63.75-128.17-111.71,61.51,91.12,417.92,205.87,653.88,282.01,11.13,3.63,11.95,5.62,8.44,9.71-12.77,15.21-34.92,25.26-58.58,28.54-33.39,4.68-81.66-23.63-99.94-1.17h0Zm903.79-137.09c1.4,1.99,2.81,3.98,4.33,5.97,28.12,37.67,52.37,70.53,73.7,111.82-1.76,1.99-3.63,3.98-5.62,5.97l-14.29,4.1c-.94-1.29-1.76-2.69-2.69-3.98-38.19-57.31-68.31-102.46-116.81-144.81,20.27,5.96,41.36,12.98,61.39,20.94h0ZM439.43,990.27c-59.87,15.67-136.26,45.62-174.34,73.22C314.18,524.04,932.68,155.82,1423.36,78.27c-13,25.85-26.13,56.26-27.65,99.77-401.05,87.14-883.76,376.99-956.28,812.23h0Zm347.04,997.5c-88.46,3.04-171.88,11.34-185.47-94.74-1.52-11.35-42.18-21.17-68.42-27.26-73.7-17.19-7.38,115.57,6.68,145.51,262.68,560.63,941.87,772.57,1484.33,562.62-131.69,62.7-275.92,100.24-435.61,101.65-320.44,2.92-593.19-102.82-814.51-280.03-239.01-191.24-415.11-456.88-530.98-768.36,120.91,59.54,260.8,94.87,391.56,128.43-.47,.82-.94,1.64-1.52,2.46-20.86,33.33-36.67,58.6-36.67,92.87,0,84.1,100.17,85.04,160.28,78.48,9.73,19.89,19.8,39.3,30.34,58.37h0ZM67.44,548.02c13.71,13.8,29.29,18.01,46.28,19.88,39.95,4.45,72.64,8.54,106.85,20.59,92.56,32.28,131.93-1.4,184.18-60.71,72.64-82.46,158.17-157.79,252.6-214.4,30.34-.94,59.75-.35,87.75,1.87-129.58,75.56-286.46,206.21-418.5,441.79-58.93-58.13-139.78-79.54-204.45-96.62-36.79-9.71-67.96-18.01-83.77-30.06-14.06-10.88-13.47-28.54,12.3-62.11,5.39-6.9,11.01-13.57,16.75-20.24h0Z"/>
    <path class="cls-1" d="M2466.81,1886.48l-8.2,9.36,1.64-1.87c2.23-2.46,4.45-4.91,6.56-7.49h0Z"/>
    <path class="cls-3" d="M1583.87,1504.11c-10.08,53.81-87.05,76.03-54.83,144.34-26.36-9.94-53.9-18.13-78.97-24.56-4.8-3.51-9.72-7.02-14.88-10.53,36.91-37.08,69.36-88.19,90.33-138.72,17.46,8.54,37.61,18.25,58.34,29.47h0Z"/>
    <path class="cls-6" d="M1791.83,410.81c-68.89-18.37-196.01-32.63-282.13-20.7-1.64,.23-3.28,.47-4.92,.7-14.06-30.41-30.81-64.57-34.8-97.79-2.58-21.06-1.05-39.18,3.75-54.27,19.1-60.01,101.93-68.19,154.77-51.35,91.15,29.01,142.82,134.05,163.33,223.41h0Zm915.51,239.78c13.94,57.55-5.5,114.51-31.63,165.74-116.34,227.97-366.01,311.02-609.95,339.79-81.31,76.03-168.95,152.41-271.35,198.96-172.93,78.6-367.19,48.89-484.12-79.19,237.96,201.19,521.49,95.45,732.61-126.32-24.25-5.97-60.34-25.5-85.29-42.81,42.53,18.25,84.83,28.31,136.97,23.28,350.08-34.39,620.14-254.52,612.76-479.45h0Zm-1057.39,634.67c-248.97-24.56-379.02-275.11-377.38-461.32,53.43,239.67,195.19,436.76,377.38,461.32h0Zm-410.07-378.51c-76.39-110.18,56.35-177.91,136.26-96.5-73.23-58.48-183.24-3.63-136.26,96.5h0Zm-500.64,545.42c98.65,59.54,360.16,180.72,264.9,339.67-18.16,30.41-39.72,51.47-67.95,66.79,192.03-191.36-64.32-311.25-196.95-406.46h0Zm757.57,18.36c-20.97,48.77-53.66,93.34-89.16,131.71-8.08-1.64-18.98-2.81-31.87-3.16,45.58-26.32,86-75.91,121.03-128.55h0Zm-338.25,201.77c62.68-37.78,216.52-69.13,274.16-26.55,80.84,59.65,153.36,157.55,180.78,256.39,6.68,23.98,10.78,48.78,13.24,78.02-4.45,.82-9.14,1.87-13.94,2.92-11.48-118.37-98.3-260.49-191.09-328.45-57.41-41.99-194.61-13.45-263.15,17.66h0Zm294.31,421.67c55.89-51.35,141.06-91,217.69-91,84.59,.12,166.02,16.14,244.63,31.58,190.27,37.31,365.31,71.7,543.87-118.72-212.88,262.71-499.34,138.14-699.69,106.79-111.42-17.54-212.77,5.73-306.5,71.35h0Zm157.12-575.25c70.06,47.37,144.34,127.84,103.57,226.1,9.02-10.29,15.23-22.81,18.51-38.95,17.81-85.74-50.73-145.04-122.08-187.15h0Zm325.94-360.5c-15.58,14.04-30.93,26.55-46.28,37.55l-9.49-47.84-51.08,49.6-10.08-58.95-102.05,83.16,2.81-108.9-143.05,80.71,20.03-125.97-105.21,48.89,10.19-112.29-84.01,33.92,3.04-77.55-50.61,35.91c-15.82-35.09-28.7-71.59-38.19-108.08,173.17,146.68,453.65,233.58,603.97,269.85h0Zm-56.82,45.03c-221.32,151.47-410.3,2.46-503.92-195.92l25.07-17.78,4.92,66.32,76.39-29.59-3.63,109.48,93.38-43.4-13.94,125.51,144.7-81.53,7.03,102.93,101.58-78.84,12.07,53.69,54.01-46.2,2.34,35.33Zm-342.11-937.5c-28.59,5.26-47.1,35.68-41.13,67.61,5.98,32.05,34.1,53.81,62.68,48.54,28.59-5.26,46.98-35.67,41.12-67.72-5.98-31.93-34.09-53.69-62.68-48.43h0Zm-18.63,29.13c-11.13,2.1-18.28,13.92-15.93,26.43,2.34,12.4,13.24,20.82,24.37,18.83,11.13-2.11,18.28-13.92,16.05-26.32-2.34-12.51-13.24-20.94-24.49-18.95h0Z"/>
    <path class="cls-7" d="M1927.16,1166.08c-15.11-2.11-29.99-4.44-44.87-7.14l-2.11-11-9.14,8.89c-17.11-3.28-33.98-6.9-50.85-10.88l-1.17-7.37-6.8,5.5c-31.28-7.6-62.09-16.49-92.56-26.44l.12-4.79-5.27,3.04c-39.95-13.22-79.2-28.54-118.22-45.5l.47-2.81-3.28,1.52c-26.13-11.46-52.14-23.75-78.15-36.85-5.04-2.57-10.19-5.38-15.35-8.19l1.76-19.89-22.61,9.12c-11.25-4.79-22.38-7.6-33.16-5.15-13.12,3.04-19.57,13.69-22.26,27.49l-5.98,2.46,3.04-77.55-50.61,35.91c-15.82-35.09-28.7-71.59-38.19-108.08,173.17,146.68,453.65,233.58,603.97,269.85-2.93,2.69-5.86,5.26-8.79,7.84h0Zm-389.57-778.89c-9.72,.7-18.98,1.75-27.88,2.92-1.64,.23-3.28,.47-4.92,.7-14.06-30.41-30.81-64.57-34.8-97.79-2.58-21.06-1.05-39.18,3.75-54.27,19.1-60.01,101.93-68.19,154.77-51.35,11.13,3.51,21.68,8.19,31.63,13.8-30.46-12.16-73.34-18.36-107.2-3.86-37.14,15.79-51.44,50.18-47.34,89.01-8.9,12.63-12.89,29.59-9.72,47.02,4.22,22.46,19.1,39.77,37.49,46.32,1.52,2.69,2.93,5.26,4.22,7.49h0Zm-115.52,662.16c-.7,15.09,1.41,31.82,3.51,46.09-18.98-27.49-35.85-57.2-50.38-88.08l25.07-17.78,4.92,66.32,16.87-6.55Z"/>
    <g>
      <g>
        <path class="cls-9" d="M289.22,1375.29s2.24,15.62,18.23,19.93c0,0-3.18-16.32-18.23-19.93Z"/>
        <path class="cls-9" d="M274.19,1375.36s2.24,15.62,18.23,19.93c0,0-3.18-16.32-18.23-19.93Z"/>
        <path class="cls-9" d="M261.51,1371.64s-.28,15.78,14.81,22.59c0,0-.53-16.62-14.81-22.59Z"/>
        <path class="cls-9" d="M245.74,1366.93s-.29,15.78,14.79,22.6c0,0-.51-16.62-14.79-22.6Z"/>
        <path class="cls-9" d="M230.65,1362.55s.39,15.77,15.76,21.94c0,0-1.23-16.58-15.76-21.94Z"/>
        <path class="cls-9" d="M220.12,1395.03s13.8,7.65,26.9-2.48c0,0-14.92-7.33-26.9,2.48Z"/>
        <path class="cls-9" d="M255.57,1412.71s13.81,1.27,19.79-14.95c0,0-14.55-.43-19.79,14.95Z"/>
        <path class="cls-9" d="M270.54,1413.61s13.46,3.34,21.81-11.8c0,0-14.32-2.62-21.81,11.8Z"/>
        <path class="cls-9" d="M209.21,1373.64s9.41,12.66,25.53,8.84c0,0-10.57-12.83-25.53-8.84Z"/>
        <path class="cls-9" d="M259.19,1396.16s-5.58,1.2-8.58,1.15c-3-.05-11.22,2.7-13.56,7.41,0,0,17.05,2.27,22.14-8.57Z"/>
        <path class="cls-9" d="M305.24,1402.6s-14.07,1.75-17.99,17.19c0,0,9.43-.71,14.03-7.28"/>
      </g>
      <g>
        <path class="cls-9" d="M342.03,1357.59s7.15,14.07-3.45,26.79c0,0-6.79-15.17,3.45-26.79Z"/>
        <path class="cls-9" d="M354.37,1349s7.15,14.07-3.45,26.79c0,0-6.79-15.17,3.45-26.79Z"/>
        <path class="cls-9" d="M362.59,1338.66s9.31,12.74,.88,27c0,0-9.13-13.89-.88-27Z"/>
        <path class="cls-9" d="M372.79,1325.73s9.32,12.74,.9,27c0,0-9.14-13.89-.9-27Z"/>
        <path class="cls-9" d="M382.6,1313.47s8.76,13.13-.27,27.01c0,0-8.53-14.27,.27-27.01Z"/>
        <path class="cls-9" d="M409.91,1333.98s-6.89,14.2-23.43,13.44c0,0,7.99-14.58,23.43-13.44Z"/>
        <path class="cls-9" d="M391.08,1368.84s-10.56,8.99-24.78-.85c0,0,11.65-8.72,24.78,.85Z"/>
        <path class="cls-9" d="M379.35,1378.18s-9.09,10.48-24.63,2.9c0,0,10.2-10.38,24.63-2.9Z"/>
        <path class="cls-9" d="M406.53,1310.21s-.42,15.77-15.8,21.91c0,0,1.26-16.58,15.8-21.91Z"/>
        <path class="cls-9" d="M378.6,1357.38s5.26-2.23,7.68-3.99c2.42-1.76,10.73-4.25,15.35-1.73,0,0-12.64,11.67-23.04,5.73Z"/>
        <path class="cls-9" d="M344.63,1389.14s12.52-6.66,24.6,3.72c0,0-8.12,4.84-15.66,2.12"/>
      </g>
      <path class="cls-9" d="M302.69,1398.58s24.06-5.2,37.52-.8c0,0-20.76,2.17-37.52,.8Z"/>
      <path class="cls-9" d="M343.99,1385.51s-22.67,9.59-31.15,20.93c0,0,18.22-10.17,31.15-20.93Z"/>
      <path class="cls-9" d="M404.74,1110.79c1.9,3.95,.57,7.95-3,10.43-5.5,3.82-10.12,8.37-11.26,15.48-.22,1.38-1.08,2.93-2.13,3.84-3.69,3.18-6.21,7.04-7.78,11.61-.21,.62-.62,1.35-1.15,1.66-8.98,5.35-14.35,13.64-18.46,22.88-.88,1.98-1.1,4.28-1.44,6.46-.43,2.8-1.9,4.52-4.64,5.2-.93,.23-1.82,.61-2.76,.82-4.03,.94-6.17,3.39-6.54,7.58-.16,1.84-.94,3.62-1.39,5.45-1.28,5.24,4.22,15.2,9.09,17.03,3.1,1.17,5.58,3.95,8.42,5.89,1.42,.97,3.1,1.54,4.52,2.49,3.63,2.41,7.33,4.75,10.68,7.51,1.26,1.04,2.44,2.88,1.82,4.84-3.4-.09-6.78-.71-9.93-.11-3.56,.68-6.93,2.4-10.32,3.83-.42,.18-.56,1.35-.59,2.08-.17,3.34-3.46,5.75-6.74,4.93-2.27-.57-4.22-1.87-6.82-1.88-2.33,0-4.46-.09-6.52,1.04-2.32,1.28-4.65,2.55-6.94,3.89-3.35,1.95-3.32,4.88-2.91,8.37,.61,5.09,2.67,10.09,1.42,15.33-.17,.73-.95,1.86-1.46,1.87-5.44,.07-7.96,3.53-10,7.91-.56,1.21-2.05,2.06-3.25,2.89-3.49,2.44-6.82,4.99-8.37,9.2-.2,.53-.72,1-1.19,1.36-1.54,1.17-3.13,2.28-4.7,3.41-.13,.09-.21,.26-.35,.32-4.77,1.98-8.7,5.48-13.38,7.54-2.31,1.02-5.18,.7-7.59,1.58-6.39,2.32-11.33,6.47-14.87,12.37-2.48,4.14-.97,9.21,2.49,12.01,.66,.53,1.3,1.07,2.25,1.85-.9,.5-1.45,.98-2.07,1.12-2.78,.63-5.57,1.26-8.38,1.64-.63,.08-1.82-.72-2.03-1.36-.84-2.46-1.96-4.57-4.35-5.85-1.32-.71-2.54-1.6-3.84-2.35-2.71-1.56-5.4-1.11-8.05,.19-.21,.1-.42,.24-.64,.32-3.12,1.16-6.07,2.21-8.81,4.61-4.17,3.65-9.58,5.01-15.32,3.59-3.11-.77-6.22-1.7-9.38-2.05-3.79-.42-7.7,.11-11.44-.48-6.67-1.06-13.09-2.83-16.41-9.79-1.53-3.22-3.95-5.34-7.63-6.5-3.61-1.14-6.43-3.96-7.82-7.62-1.45-3.8-2.51-7.75-4.08-11.56,.02,.33,.04,.66,.06,.99-5.66-2.51-8.62-9.08-6.55-15.21,1.43,.88,2.79,1.74,4.16,2.57,3.86,2.35,7.92,4.69,12.34,1.92,2.46-1.54,4.37-4,6.4-6.16,2.75-2.91,3.65-6.6,3.73-10.45,.1-4.35,1.6-7.75,5.55-9.91,1.02-.56,1.98-1.31,2.78-2.15,3.57-3.73,8.02-4.77,12.95-4.36,4.2,.35,8.39,.84,12.59,1.1,4.65,.29,8.48-2.39,10.66-6.56,2.31-4.43,1.3-8.82,.22-13.14-1.23-4.92-2.9-9.74-4.57-14.53-.71-2.04-1.9-3.91-3.06-6.21,1.67-.17,2.96-.41,4.24-.4,5.16,.02,10.33,.16,15.49,.15,1,0,2.17-.23,2.96-.78,2.85-2.01,6.06-2.44,9.39-2.59,.46-.02,1.09-.04,1.35-.32,2.38-2.54,5.3-1.76,8.16-1.42,.46,.06,1.07,.18,1.38-.04,3.79-2.68,8.38-2.09,12.53-3.19,5.79-1.53,11.42-3.72,17.1-5.65,4.63-1.57,8.75-4.09,12.73-6.88,.82-.57,1.9-.89,2.91-1.05,4.68-.74,7.55-3.89,9.6-7.67,2-3.69,4.65-5.9,8.78-6.79,6.18-1.34,11-5.19,15.5-9.37,5.44-5.06,10.44-10.64,16.19-15.3,3.95-3.19,5.95-7.08,7.45-11.6,.27-.83,.97-2.02,1.63-2.14,5.37-.98,8.64-4.93,12.16-8.45,1.58-1.58,2.99-3.5,3.94-5.52,1.29-2.75,2.92-4.88,5.73-6.19,.99-.46,1.61-1.71,2.38-2.61,.4-.47,.68-1.21,1.18-1.4,5.96-2.25,10.6-6.25,14.76-10.91,.2-.23,.47-.4,.74-.56,.12-.07,.31-.05,.46-.06Z"/>
    </g>
  </g>
</svg>